<svg width="194" height="193" viewBox="0 0 194 193" fill="none" xmlns="http://www.w3.org/2000/svg">
<mask id="mask0_590_3207" style="mask-type:alpha" maskUnits="userSpaceOnUse" x="0" y="0" width="194" height="193">
<circle cx="97" cy="96.5" r="96.5" fill="#D9D9D9"/>
</mask>
<g mask="url(#mask0_590_3207)">
<ellipse cx="93.0437" cy="100.8" rx="112.153" ry="111.809" fill="#0E1F4E"/>
<path d="M112.02 110.303C112.02 108.677 112.666 107.117 113.816 105.967C114.966 104.818 116.525 104.172 118.151 104.172C119.777 104.172 121.336 104.818 122.486 105.967C123.636 107.117 124.281 108.677 124.281 110.303C124.281 110.542 124.267 110.782 124.24 111.02C124.071 112.462 123.396 113.798 122.335 114.789C121.273 115.781 119.895 116.363 118.444 116.432C116.993 116.502 115.565 116.054 114.414 115.169C113.263 114.284 112.463 113.019 112.157 111.599" stroke="#FEBA15" stroke-width="2" stroke-miterlimit="10" stroke-linecap="round"/>
<path d="M111.917 110.296C111.917 110.296 110.221 110.426 110.179 110.992C110.138 111.559 112.113 111.522 112.113 111.522" stroke="#FEBA15" stroke-width="2" stroke-miterlimit="10" stroke-linecap="round"/>
<path d="M124.645 110.349C124.645 110.619 124.493 110.884 124.463 111.146C124.38 111.199 124.43 111.25 124.341 111.299C124.357 111.201 124.365 111.101 124.365 111.001C124.365 110.482 124.165 109.986 123.81 109.619C123.455 109.253 122.973 109.047 122.471 109.047C121.968 109.047 121.487 109.253 121.131 109.619C120.776 109.986 120.577 110.482 120.577 111.001C120.577 111.228 120.569 110.815 120.638 111.018C117.441 110.736 115.104 109.016 115.104 105.646C115.104 105.153 115.158 104.662 115.267 104.182C116.272 103.7 117.378 103.487 118.484 103.563C119.59 103.638 120.66 104 121.594 104.615C122.529 105.229 123.298 106.077 123.831 107.079C124.364 108.082 124.644 109.206 124.645 110.349Z" fill="#FEBA15"/>
<path d="M120.759 110.889C120.759 110.541 120.863 110.201 121.056 109.911C121.25 109.621 121.525 109.396 121.846 109.262C122.168 109.129 122.522 109.094 122.864 109.162C123.205 109.23 123.519 109.398 123.765 109.644C124.012 109.89 124.179 110.204 124.247 110.546C124.315 110.887 124.28 111.241 124.147 111.563C124.014 111.885 123.788 112.16 123.499 112.354C123.209 112.547 122.869 112.65 122.52 112.65" stroke="#FEBA15" stroke-width="2" stroke-miterlimit="10" stroke-linecap="round"/>
<path d="M122.259 104.74C122.259 104.74 130.527 96.8283 136.744 95.4976C136.744 95.4976 141.037 99.4288 122.259 104.74Z" fill="#FEBA15"/>
<path d="M116.324 116.172C116.324 116.172 118.672 119.564 114.759 125.564C114.759 125.564 118.803 128.173 122.716 125.303C122.716 125.303 118.151 119.955 120.107 116.172C120.107 116.172 118.151 116.824 116.324 116.172Z" stroke="#FEBA15" stroke-width="2" stroke-miterlimit="10" stroke-linecap="round"/>
<path d="M122.716 125.303C140.203 128.857 146.717 148.521 146.717 148.521" stroke="#FEBA15" stroke-width="2" stroke-miterlimit="10" stroke-linecap="round"/>
<path d="M108.629 148.521C108.629 148.521 106.317 141.051 107.291 134.398" stroke="#FEBA15" stroke-width="2" stroke-miterlimit="10" stroke-linecap="round"/>
<path d="M135.629 139.26L137.977 148.521" stroke="#FEBA15" stroke-width="2" stroke-miterlimit="10" stroke-linecap="round"/>
<path d="M121.542 111.346L122.586 110.563" stroke="#FEBA15" stroke-width="2" stroke-miterlimit="10" stroke-linecap="round"/>
<path d="M121.812 111.142L122.977 111.737" stroke="#FEBA15" stroke-width="2" stroke-miterlimit="10" stroke-linecap="round"/>
<path d="M79.9384 88.9756H50.9092C47.7004 88.9756 45.0995 86.9016 45.0995 84.3437V51.2787C45.0995 48.7208 47.7004 46.6469 50.9092 46.6469H105.302C108.511 46.6469 111.112 48.7208 111.112 51.2787V84.3437C111.107 86.9016 108.506 88.9756 105.302 88.9756H91.451" stroke="#FEBA15" stroke-width="2" stroke-miterlimit="10" stroke-linecap="round"/>
<path d="M49.5399 74.9078L54.8879 70.649H64.41L79.1496 60.9913L97.411 62.0569L104.324 53.2354" stroke="#FEBA15" stroke-width="2" stroke-miterlimit="10" stroke-linecap="round"/>
<path d="M96.1863 54.7537L104.343 52.9875L106.207 61.3004" stroke="#FEBA15" stroke-width="2" stroke-miterlimit="10" stroke-linecap="round"/>
<path d="M49.6049 77.2856H76.997" stroke="#FEBA15" stroke-width="2" stroke-miterlimit="10" stroke-linecap="round"/>
<path d="M49.6049 79.1575H76.997" stroke="#FEBA15" stroke-width="2" stroke-miterlimit="10" stroke-linecap="round"/>
<path d="M49.6049 81.3411H76.997" stroke="#FEBA15" stroke-width="2" stroke-miterlimit="10" stroke-linecap="round"/>
<path d="M49.6049 83.6289H67.5363" stroke="#FEBA15" stroke-width="2" stroke-miterlimit="10" stroke-linecap="round"/>
<path d="M162.5 131.955C162.195 131.955 161.89 131.939 161.587 131.906C159.679 131.694 157.902 130.832 156.556 129.464C155.209 128.096 154.376 126.306 154.195 124.395C154.014 122.484 154.497 120.569 155.563 118.972C156.629 117.376 158.212 116.196 160.047 115.63C161.881 115.065 163.854 115.149 165.634 115.869C167.414 116.588 168.891 117.899 169.817 119.58C170.744 121.261 171.062 123.21 170.72 125.099C170.377 126.988 169.394 128.7 167.936 129.949" stroke="#FEBA15" stroke-width="2" stroke-miterlimit="10" stroke-linecap="round"/>
<path d="M160.804 113.955C160.804 113.955 158.065 109.911 154.152 112.259C150.239 114.607 154.987 125.594 166.152 123.998C175.283 122.694 167.718 112.781 160.804 113.955Z" fill="#FEBA15"/>
<path d="M158.13 123.216C158.685 123.216 159.227 123.38 159.688 123.688C160.149 123.997 160.509 124.435 160.721 124.947C160.933 125.459 160.989 126.023 160.881 126.567C160.773 127.111 160.505 127.611 160.113 128.003C159.721 128.396 159.221 128.663 158.677 128.771C158.133 128.879 157.569 128.823 157.057 128.611C156.545 128.399 156.107 128.04 155.798 127.578C155.49 127.117 155.326 126.575 155.326 126.02" stroke="#FEBA15" stroke-width="2" stroke-miterlimit="10" stroke-linecap="round"/>
<path d="M157.152 125.955C157.152 125.955 158.587 124.781 159.239 126.868" stroke="#FEBA15" stroke-width="2" stroke-miterlimit="10" stroke-linecap="round"/>
<path d="M158.522 125.759C158.522 125.759 158.587 127.256 157.413 127.125" stroke="#FEBA15" stroke-width="2" stroke-miterlimit="10" stroke-linecap="round"/>
<path d="M168.826 138.151L167.934 129.945" stroke="#FEBA15" stroke-width="2" stroke-miterlimit="10" stroke-linecap="round"/>
<path d="M161.579 131.955L162.5 139.26" stroke="#FEBA15" stroke-width="2" stroke-miterlimit="10" stroke-linecap="round"/>
<path d="M179.802 141.108C175.202 138.399 169.463 137.076 162.578 139.146C141.663 145.437 143.493 177.79 143.493 177.79L143.428 199.551" stroke="#FEBA15" stroke-width="2" stroke-miterlimit="10" stroke-linecap="round"/>
<path d="M190.833 150.09C185.977 143.029 178.044 138.267 165.08 141.609C147.471 146.147 146.107 170.238 146.12 177.847L146.111 199.551" stroke="#FEBA15" stroke-width="2" stroke-miterlimit="10" stroke-linecap="round"/>
<path d="M107.846 69.801V81.037C107.846 81.037 107.977 86.3668 100.803 86.3668" stroke="#FEBA15" stroke-width="2" stroke-miterlimit="10" stroke-linecap="round"/>
<path d="M61.3445 149.206C61.3447 149.471 61.3303 149.736 61.3014 150V156.543H46.7132V150C46.5734 148.716 46.7753 147.417 47.2984 146.235C47.8216 145.054 48.6474 144.031 49.6924 143.271C54.7978 138.785 51.4846 130.013 51.4846 130.013H55.9195C52.9599 138.812 57.9296 142.968 58.2935 143.259L58.304 143.267C59.2448 143.945 60.0111 144.838 60.5397 145.87C61.0684 146.903 61.3442 148.046 61.3445 149.206V149.206Z" stroke="#FEBA15" stroke-width="2" stroke-miterlimit="10" stroke-linecap="round"/>
<path d="M49.2501 117.561C49.2501 117.561 47.2284 124.259 53.1251 129.785C53.1251 129.785 54.8941 121.328 49.2501 117.561Z" stroke="#FEBA15" stroke-width="2" stroke-miterlimit="10" stroke-linecap="round"/>
<path d="M53.3877 129.933L64.2141 119.107C64.2141 119.107 64.3445 130.064 53.3877 129.933Z" stroke="#FEBA15" stroke-width="2" stroke-miterlimit="10" stroke-linecap="round"/>
<path d="M57.2729 123.244C58.8218 123.244 60.0774 121.988 60.0774 120.439C60.0774 118.891 58.8218 117.635 57.2729 117.635C55.7241 117.635 54.4685 118.891 54.4685 120.439C54.4685 121.988 55.7241 123.244 57.2729 123.244Z" stroke="#FEBA15" stroke-width="2" stroke-miterlimit="10" stroke-linecap="round"/>
<path d="M57.8224 120.411C58.3267 120.411 58.7355 120.003 58.7355 119.498C58.7355 118.994 58.3267 118.585 57.8224 118.585C57.3181 118.585 56.9093 118.994 56.9093 119.498C56.9093 120.003 57.3181 120.411 57.8224 120.411Z" stroke="#FEBA15" stroke-width="2" stroke-miterlimit="10" stroke-linecap="round"/>
<path d="M56.4817 123.244C56.4817 123.244 53.6486 125.2 53.1268 129.244L49.5118 118.157" stroke="#FEBA15" stroke-width="2" stroke-miterlimit="10" stroke-linecap="round"/>
<path d="M61.3055 148.456H150.471" stroke="#FEBA15" stroke-width="2" stroke-miterlimit="10" stroke-linecap="round"/>
<path d="M143.96 164.446H11.1649V148.62H46.5998" stroke="#FEBA15" stroke-width="2" stroke-miterlimit="10" stroke-linecap="round"/>
<path d="M28.7103 167.351L144.024 167.351" stroke="#FEBA15" stroke-width="2" stroke-miterlimit="10" stroke-linecap="round"/>
<path d="M30.7745 167.002V199.536H190.748V149.652" stroke="#FEBA15" stroke-width="2"/>
<path d="M114.372 125.745C95.5885 121.963 90.3709 87.7877 90.3709 87.7877L80.9793 94.8314C80.9793 94.8314 83.3116 124.196 106.798 135.406" stroke="#FEBA15" stroke-width="2" stroke-miterlimit="10" stroke-linecap="round"/>
<path d="M90.3708 87.7878C90.3708 87.7878 90.1099 76.8309 89.3273 77.3527C88.5447 77.8744 88.0229 81.6571 88.0229 81.6571C88.0229 81.6571 85.9359 68.8741 84.8924 69.9176C83.8489 70.9611 85.2837 81.2658 85.2837 81.2658C85.2837 81.2658 82.9358 78.657 82.414 83.6137C82.414 83.6137 80.8488 81.7876 80.9792 86.4834C80.9792 86.4834 76.4138 85.9968 82.8693 93.4149L90.3708 87.7878Z" stroke="#FEBA15" stroke-width="2" stroke-miterlimit="10" stroke-linecap="round"/>
<path d="M82.4142 83.6136C82.4142 83.6136 82.4142 88.4399 83.3273 87.7877C84.2403 87.1355 84.8925 83.6136 84.8925 83.6136" stroke="#FEBA15" stroke-width="2" stroke-miterlimit="10" stroke-linecap="round"/>
<path d="M80.9793 86.4834C80.9793 86.4834 81.7946 91.5705 83.0168 87.7878" stroke="#FEBA15" stroke-width="2" stroke-miterlimit="10" stroke-linecap="round"/>
<path d="M80.5984 90.4969C80.5984 90.4969 81.7724 91.8248 81.7724 88.9578" stroke="#FEBA15" stroke-width="2" stroke-miterlimit="10" stroke-linecap="round"/>
<path d="M81.3664 97.6358C81.3664 97.6358 84.3052 92.1013 86.1392 93.7227C87.9731 95.344 81.3664 97.6358 81.3664 97.6358Z" stroke="#FEBA15" stroke-width="2" stroke-miterlimit="10" stroke-linecap="round"/>
<path d="M81.286 97.6149C81.286 97.6149 76.1258 95.987 76.6854 94.6409C77.245 93.2947 80.6938 96.6105 81.286 97.6149Z" stroke="#FEBA15" stroke-width="2" stroke-miterlimit="10" stroke-linecap="round"/>
<path d="M80.5879 104.875C79.5444 100.44 81.3705 97.5707 81.3705 97.5707C81.3705 97.5707 80.1966 100.701 82.1532 104.875" stroke="#FEBA15" stroke-width="2" stroke-miterlimit="10" stroke-linecap="round"/>
<path d="M90.5198 88.0858C90.5198 88.0858 92.8677 117.565 112.825 125.522" stroke="#FEBA15" stroke-width="2" stroke-miterlimit="10" stroke-linecap="round"/>
</g>
</svg>
