<svg width="96" height="96" viewBox="0 0 96 96" fill="none" xmlns="http://www.w3.org/2000/svg">
<rect width="96" height="96" rx="25" fill="#4B9F9C"/>
<g clip-path="url(#clip0_39_353)">
<path d="M19.1494 48C21.6561 34.3467 33.6214 24 48.0001 24C62.3787 24 74.3414 34.3467 76.8507 48C74.3441 61.6533 62.3787 72 48.0001 72C33.6214 72 21.6587 61.6533 19.1494 48ZM48.0001 61.3333C51.5363 61.3333 54.9277 59.9286 57.4282 57.4281C59.9287 54.9276 61.3334 51.5362 61.3334 48C61.3334 44.4638 59.9287 41.0724 57.4282 38.5719C54.9277 36.0714 51.5363 34.6667 48.0001 34.6667C44.4639 34.6667 41.0725 36.0714 38.572 38.5719C36.0715 41.0724 34.6667 44.4638 34.6667 48C34.6667 51.5362 36.0715 54.9276 38.572 57.4281C41.0725 59.9286 44.4639 61.3333 48.0001 61.3333ZM48.0001 56C45.8784 56 43.8435 55.1571 42.3432 53.6569C40.8429 52.1566 40.0001 50.1217 40.0001 48C40.0001 45.8783 40.8429 43.8434 42.3432 42.3431C43.8435 40.8429 45.8784 40 48.0001 40C50.1218 40 52.1566 40.8429 53.6569 42.3431C55.1572 43.8434 56.0001 45.8783 56.0001 48C56.0001 50.1217 55.1572 52.1566 53.6569 53.6569C52.1566 55.1571 50.1218 56 48.0001 56Z" fill="#F5FFF5"/>
</g>
<defs>
<clipPath id="clip0_39_353">
<rect width="64" height="64" fill="white" transform="translate(16 16)"/>
</clipPath>
</defs>
</svg>
