<svg width="96" height="96" viewBox="0 0 96 96" fill="none" xmlns="http://www.w3.org/2000/svg">
<g clip-path="url(#clip0_11_472)">
<path d="M95.1371 47.1488L87.332 39.4329V39.4284L79.5262 31.7121L77.4754 29.6852V32.5678V46.7962H0V49.203H77.475V63.4314V66.3145L79.5258 64.2871L87.3317 56.5712L95.1368 48.8557L95.9996 48.0026L95.1371 47.1488ZM45.6283 17.1111H0V19.5179H45.6283V33.7463V36.6293L47.6795 34.602L55.4854 26.8857L63.2905 19.1701L64.1533 18.3171L63.2905 17.4637L55.4854 9.7474V9.74287L47.6795 2.02734L45.6283 0V2.88265V17.1111ZM45.6283 76.4818H0V78.8886H45.6283V93.1166V96L47.6795 93.9723L55.4854 86.2568L63.2905 78.5412L64.1533 77.6882L63.2905 76.8344L55.4854 69.1185V69.1136L47.6795 61.398L45.6283 59.3711V62.2537V76.4818ZM53.794 70.8227L60.7336 77.6825L53.7917 84.545L48.037 90.2332V77.6855V65.1371L53.7917 70.8253L53.794 70.8227ZM53.794 11.4523L60.7336 18.3126L53.7917 25.1751L48.037 30.8632V18.3148V5.76643L53.7917 11.4546L53.794 11.4523ZM85.6403 41.1371L92.5799 47.9974L85.638 54.8598L79.8837 60.548V48V35.4516L85.638 41.1394L85.6403 41.1371Z" fill="#0E1F4E"/>
</g>
<defs>
<clipPath id="clip0_11_472">
<rect width="96" height="96" fill="white"/>
</clipPath>
</defs>
</svg>
