<svg width="96" height="96" viewBox="0 0 96 96" fill="none" xmlns="http://www.w3.org/2000/svg">
<g clip-path="url(#clip0_11_475)">
<path d="M48 0C61.2544 0 73.2556 5.37298 81.9413 14.0587C90.627 22.7444 96 34.7456 96 48C96 61.2548 90.627 73.2548 81.9413 81.9413C73.2556 90.627 61.2544 96 48 96C34.7456 96 22.7456 90.627 14.0587 81.9413C5.37298 73.2548 0 61.2544 0 48C0 34.7456 5.37298 22.7444 14.0587 14.0587C22.7456 5.37298 34.7452 0 48 0ZM25.0167 62.3955H32.5085H33.7115L33.707 63.5992L33.603 91.2733C37.7665 92.6578 42.1965 93.4586 46.7966 93.5777V38.6517V37.4487L48 37.4479H72.3693C72.6202 36.0155 73.31 34.7339 74.2961 33.7485C75.5501 32.4941 77.2834 31.7178 79.1985 31.7178C81.1124 31.7178 82.8461 32.4941 84.1013 33.7485C85.3557 35.003 86.1317 36.737 86.1317 38.6513C86.1317 40.5657 85.3557 42.2993 84.1013 43.5538C82.8469 44.8082 81.1132 45.5849 79.1985 45.5849C77.2838 45.5849 75.5501 44.8082 74.2961 43.5538C73.3104 42.5684 72.6202 41.2872 72.3693 39.8547H49.2034V93.5777C53.8031 93.4583 58.2327 92.657 62.3955 91.2726V70.4277C60.963 70.1768 59.6818 69.4866 58.6964 68.5009C57.4424 67.2472 56.6657 65.5132 56.6657 63.5985C56.6657 61.6838 57.4424 59.9501 58.6964 58.6957C59.9509 57.4413 61.6845 56.6649 63.5989 56.6649C65.5132 56.6649 67.2476 57.4413 68.502 58.6957C69.7561 59.9497 70.5324 61.6842 70.5324 63.5985C70.5324 65.5128 69.7561 67.2461 68.502 68.5009C67.5167 69.4862 66.2351 70.1768 64.803 70.4277V90.3969C70.6352 88.0834 75.8774 84.6013 80.2397 80.239C88.4901 71.9883 93.5932 60.5896 93.5932 47.9996C93.5932 35.4093 88.4901 24.0106 80.2397 15.7603C71.989 7.50992 60.5904 2.40643 48 2.40643C35.41 2.40643 24.0113 7.50954 15.7606 15.7606C7.77411 23.7472 2.73638 34.6843 2.42268 46.797H25.5723C25.8229 45.3645 26.5134 44.0829 27.4991 43.0976C28.7531 41.8428 30.4868 41.0668 32.4015 41.0668C34.3155 41.0668 36.0495 41.8428 37.3043 43.0976C38.5587 44.352 39.3343 46.0857 39.3343 48.0004C39.3343 49.9151 38.5587 51.6484 37.3043 52.9028C36.0499 54.1572 34.3158 54.9335 32.4015 54.9335C30.4868 54.9335 28.7531 54.1572 27.4991 52.9028C26.5134 51.9175 25.8225 50.6366 25.5723 49.2034H2.42268C2.73638 61.3153 7.77411 72.2525 15.7606 80.2394C20.1256 84.6043 25.3716 88.0883 31.2094 90.4018L31.3055 64.803H25.0167C24.7657 66.2347 24.076 67.516 23.0906 68.5017C21.8362 69.7561 20.1022 70.5328 18.1878 70.5328C16.2731 70.5328 14.5395 69.7561 13.2854 68.5017C12.031 67.248 11.2547 65.514 11.2547 63.5992C11.2547 61.6845 12.031 59.9509 13.2854 58.6964C14.5398 57.442 16.2731 56.6657 18.1878 56.6657C20.1018 56.6657 21.8362 57.442 23.0906 58.6964C24.076 59.6818 24.7657 60.9634 25.0167 62.3955ZM29.2006 51.2013C30.0197 52.0199 31.1516 52.5271 32.4015 52.5271C33.6514 52.5271 34.7837 52.0199 35.6028 51.2013C36.421 50.3826 36.9279 49.2506 36.9279 48.0004C36.9279 46.7501 36.4207 45.6178 35.6028 44.7991C34.7837 43.9805 33.6514 43.4733 32.4015 43.4733C31.1509 43.4733 30.0197 43.9805 29.2006 44.7991C28.382 45.6178 27.8748 46.7501 27.8748 48.0004C27.8748 49.2499 28.382 50.3826 29.2006 51.2013ZM39.2304 19.8969H56.7696C57.0206 18.4641 57.7107 17.1829 58.6964 16.1975C59.9509 14.9427 61.6845 14.1668 63.5989 14.1668C65.5132 14.1668 67.2476 14.9427 68.502 16.1975C69.7561 17.4516 70.5324 19.1856 70.5324 21.1003C70.5324 23.0151 69.7561 24.7483 68.502 26.0028C67.248 27.2568 65.514 28.0335 63.5989 28.0335C61.6849 28.0335 59.9509 27.2568 58.6964 26.0028C57.7111 25.0171 57.0206 23.7366 56.7696 22.3034H39.2304C38.9794 23.7358 38.2896 25.0171 37.3043 26.0028C36.0499 27.2568 34.3158 28.0335 32.4015 28.0335C30.4868 28.0335 28.7531 27.2568 27.4991 26.0028C26.2447 24.7483 25.4676 23.0151 25.4676 21.1003C25.4676 19.1856 26.2447 17.4516 27.4991 16.1975C28.7531 14.9427 30.4868 14.1668 32.4015 14.1668C34.3155 14.1668 36.0495 14.9427 37.3043 16.1975C38.29 17.1832 38.9798 18.4645 39.2304 19.8969ZM75.9972 41.8522C76.8159 42.6709 77.9478 43.1781 79.1981 43.1781C80.448 43.1781 81.5804 42.6709 82.399 41.8522C83.2176 41.0336 83.7249 39.9012 83.7249 38.6517C83.7249 37.4011 83.2176 36.2691 82.399 35.4505C81.5804 34.6314 80.448 34.125 79.1981 34.125C77.9475 34.125 76.8159 34.6314 75.9972 35.4505C75.1786 36.2691 74.6714 37.4011 74.6714 38.6517C74.6714 39.9012 75.1786 41.0336 75.9972 41.8522ZM14.987 66.7994C15.8056 67.618 16.9376 68.1252 18.1875 68.1252C19.4374 68.1252 20.5697 67.618 21.3887 66.7994C22.2074 65.9807 22.7138 64.8488 22.7138 63.5989C22.7138 62.3486 22.2074 61.2163 21.3887 60.3976C20.5697 59.579 19.4374 59.0721 18.1875 59.0721C16.9376 59.0721 15.8056 59.579 14.987 60.3976C14.1679 61.2163 13.6611 62.3486 13.6611 63.5989C13.6611 64.8488 14.1683 65.9807 14.987 66.7994ZM60.3984 24.3012C61.217 25.1199 62.349 25.6271 63.5989 25.6271C64.8491 25.6271 65.9819 25.1199 66.8005 24.3012C67.6191 23.4822 68.1256 22.3502 68.1256 21.1003C68.1256 19.8501 67.6191 18.7177 66.8005 17.8991C65.9819 17.0804 64.8491 16.5732 63.5989 16.5732C62.349 16.5732 61.217 17.0804 60.3984 17.8991C59.5797 18.7177 59.0725 19.8501 59.0725 21.1003C59.0725 22.3499 59.5797 23.4822 60.3984 24.3012ZM29.2006 24.3012C30.0197 25.1199 31.1516 25.6271 32.4015 25.6271C33.6514 25.6271 34.7837 25.1199 35.6028 24.3012C36.421 23.4822 36.9279 22.3502 36.9279 21.1003C36.9279 19.8501 36.4207 18.7177 35.6028 17.8991C34.7837 17.0804 33.6514 16.5732 32.4015 16.5732C31.1509 16.5732 30.0197 17.0804 29.2006 17.8991C28.382 18.7177 27.8748 19.8501 27.8748 21.1003C27.8748 22.3499 28.382 23.4822 29.2006 24.3012ZM66.8001 60.398C65.9815 59.5793 64.8488 59.0725 63.5985 59.0725C62.3486 59.0725 61.2166 59.5793 60.398 60.398C59.5793 61.2166 59.0721 62.349 59.0721 63.5992C59.0721 64.8491 59.5793 65.9811 60.398 66.7997C61.2166 67.6184 62.3486 68.1256 63.5985 68.1256C64.8488 68.1256 65.9815 67.6184 66.8001 66.7997C67.6188 65.9811 68.1252 64.8491 68.1252 63.5992C68.1252 62.349 67.6188 61.2166 66.8001 60.398Z" fill="#0E1F4E"/>
</g>
<defs>
<clipPath id="clip0_11_475">
<rect width="96" height="96" fill="white"/>
</clipPath>
</defs>
</svg>
