<svg width="96" height="96" viewBox="0 0 96 96" fill="none" xmlns="http://www.w3.org/2000/svg">
<g clip-path="url(#clip0_11_455)">
<path d="M1.2034 49.2038C0.538961 49.2038 0 48.6652 0 48V16.8023C0 16.1382 0.538961 15.5992 1.2034 15.5992H31.1977V1.20378C31.1977 0.538961 31.7363 0 32.4011 0C32.7334 0 33.0346 0.134173 33.2519 0.35263L64.4496 31.5504C64.9191 32.0198 64.9191 32.7825 64.4496 33.2519L34.1027 63.5985L62.3951 91.8917V79.1977C62.3951 78.5333 62.934 77.9943 63.5985 77.9943H93.5932V49.203H71.9962C71.331 49.203 70.7921 48.6644 70.7921 47.9996C70.7921 47.3356 71.331 46.7966 71.9962 46.7966H94.7656H94.7966H94.8276L94.8586 46.7974V46.7977L94.8892 46.7992L94.9194 46.8019V46.8023L94.9493 46.8053V46.8057L94.9795 46.8091V46.8094L95.009 46.814V46.8144L95.0389 46.8193V46.8197L95.068 46.8261V46.8265L95.0967 46.8333V46.8336L95.1254 46.8408V46.8412L95.1541 46.8491V46.8495L95.1821 46.8578V46.8582L95.2093 46.8677V46.868L95.2373 46.8782L95.2637 46.8888V46.8892L95.291 46.9009V46.9013L95.317 46.9134V46.9138L95.3431 46.9262V46.9266L95.3688 46.9395V46.9398L95.3938 46.9538V46.9542L95.4187 46.9686V46.9689L95.4429 46.9837V46.9841L95.4671 46.9996V46.9999L95.4909 47.0158V47.0162L95.5147 47.0328V47.0332L95.5378 47.0506V47.051L95.5608 47.0683V47.0687L95.5827 47.0869V47.0872L95.6047 47.1058V47.1061L95.6258 47.1254V47.1258L95.6462 47.1454V47.1458L95.667 47.1659V47.1662L95.6863 47.1874V47.1878L95.7063 47.2093L95.7245 47.2312V47.2316L95.7426 47.2535V47.2539L95.7604 47.277V47.2774L95.7774 47.3V47.3004L95.7936 47.3242L95.8099 47.348V47.3484L95.825 47.3722V47.3726L95.8401 47.3975V47.3979L95.8541 47.4229L95.8677 47.4486L95.8806 47.4746L95.8927 47.5007V47.5011L95.9048 47.5272V47.5276L95.9157 47.5544V47.5548L95.9259 47.582L95.9354 47.6096V47.61L95.9448 47.6375V47.6379L95.9528 47.6659L95.9607 47.6946V47.695L95.9679 47.7237V47.7241L95.9747 47.7528V47.7532L95.98 47.7827L95.9853 47.8122V47.8125L95.9898 47.842V47.8424L95.9932 47.8723L95.9958 47.9025V47.9029L95.9977 47.9335V47.9339L95.9992 47.9641V47.9645L96 48V79.1977C96 79.8622 95.461 80.4011 94.7966 80.4011H64.8019V94.7966C64.8019 95.1046 64.6843 95.413 64.4496 95.6477C63.9802 96.1172 63.2175 96.1172 62.7477 95.6477L31.5504 64.45C31.0806 63.9802 31.0806 63.2175 31.5504 62.7477L61.8969 32.4011L33.6045 4.10835V16.8023C33.6045 17.4671 33.066 18.0057 32.4011 18.0057H2.40643V46.7974H24.0038C24.6686 46.7974 25.2072 47.3363 25.2072 48.0004C25.2072 48.6652 24.6686 49.2038 24.0038 49.2038H1.2034ZM63.5985 49.2038C62.934 49.2038 62.3951 48.6652 62.3951 48.0004C62.3951 47.3363 62.934 46.7974 63.5985 46.7974H66.7699C67.4347 46.7974 67.9737 47.3363 67.9737 48.0004C67.9737 48.6652 67.4347 49.2038 66.7699 49.2038H63.5985ZM32.4011 46.797C33.066 46.797 33.6045 47.3359 33.6045 48C33.6045 48.6648 33.066 49.2034 32.4011 49.2034H29.2297C28.5653 49.2034 28.0263 48.6648 28.0263 48C28.0263 47.3359 28.5653 46.797 29.2297 46.797H32.4011Z" fill="#0E1F4E"/>
</g>
<defs>
<clipPath id="clip0_11_455">
<rect width="96" height="96" fill="white"/>
</clipPath>
</defs>
</svg>
