<svg width="96" height="96" viewBox="0 0 96 96" fill="none" xmlns="http://www.w3.org/2000/svg">
<g clip-path="url(#clip0_216_679)">
<path d="M13.7851 54.3035C17.6326 50.9722 17.622 44.9998 13.7775 41.6867C14.383 38.3981 15.4738 35.2093 16.9875 32.2284C17.7056 30.8141 15.5577 29.7264 14.8418 31.1373C13.3482 34.094 12.2986 37.0345 11.5933 40.3257C6.14324 38.0062 0 42.0011 0 48.0004C0 53.9921 6.14098 58.0025 11.6009 55.669C13.0998 62.62 16.2796 68.6536 21.1945 73.7945C22.2867 74.9272 24.0295 73.2688 22.9198 72.1172C18.1988 67.2174 15.0539 61.1021 13.7851 54.3035ZM7.24762 63.0856C8.71068 62.586 7.75408 60.9143 7.30772 59.3208C6.88139 57.7988 4.56378 58.4447 4.992 59.9739C5.39679 61.4211 5.72485 63.6045 7.24762 63.0856ZM11.5544 71.6772C12.8693 70.8699 11.5744 69.4484 10.7887 67.9899C10.0388 66.5983 7.91924 67.7367 8.67175 69.1351C9.38268 70.4564 10.182 72.5185 11.5544 71.6772ZM27.8426 87.8347C29.2569 88.5494 30.3432 86.4045 28.9293 85.6872C25.4154 83.8972 22.292 81.747 19.3376 79.0386C18.1712 77.9728 16.5449 79.7477 17.7169 80.818C20.8135 83.6568 24.0911 85.9177 27.8426 87.8347ZM35.7203 90.9309C37.2389 91.3689 37.9083 89.0563 36.3829 88.6171C34.8136 88.1654 33.123 87.1809 32.6192 88.6564C32.1033 90.1655 34.2599 90.5095 35.7203 90.9309ZM63.3808 88.6564C62.8758 87.1809 61.186 88.1647 59.6171 88.6171C58.0917 89.0566 58.7603 91.3686 60.2797 90.9309C61.7397 90.5102 63.8963 90.1648 63.3808 88.6564ZM55.6728 84.4071C58.9659 83.701 61.8973 82.656 64.8624 81.1578C66.2733 80.4431 65.1859 78.2944 63.7712 79.0129C60.7918 80.5259 57.6008 81.6178 54.3137 82.2225L53.8915 81.7731C52.3854 80.262 50.3017 79.3289 48 79.3289C45.4911 79.3289 43.2238 80.4393 41.6859 82.2225C38.3924 81.6113 35.2203 80.5251 32.228 79.0129C30.8202 78.299 29.7052 80.4314 31.1573 81.168C34.0452 82.628 37.1486 83.7422 40.3249 84.4067C38.993 87.5384 39.7122 91.1652 42.1054 93.5584C43.6191 95.0661 45.7032 96 48 96C53.9834 96 57.9972 89.8617 55.6728 84.4071ZM48 81.7361C49.6373 81.7361 51.1192 82.3997 52.1919 83.4724C52.509 83.4724 53.9286 85.5916 53.9286 87.6643C53.9286 90.946 51.281 93.5936 47.9996 93.5936C45.9273 93.5936 43.8074 92.174 43.8074 91.8569C40.0883 88.1374 42.7272 81.7361 48 81.7361ZM78.2827 80.8184C79.4555 79.748 77.8292 77.9732 76.6624 79.039C73.7749 81.6858 70.5774 83.9006 67.0711 85.6876C65.6568 86.4045 66.7442 88.5502 68.157 87.8351C71.8923 85.926 75.1895 83.6534 78.2827 80.8184ZM87.3286 69.1351C88.0815 67.7363 85.9608 66.5987 85.2117 67.9899C84.4259 69.4488 83.1296 70.8695 84.446 71.6772C85.8179 72.5185 86.6177 70.4561 87.3286 69.1351ZM91.0084 59.9739C91.4362 58.4447 89.1186 57.7988 88.6919 59.3208C88.2448 60.9143 87.2905 62.586 88.752 63.0856C90.2755 63.6045 90.6032 61.4203 91.0084 59.9739ZM88.6556 32.6192C87.1808 33.123 88.1643 34.8151 88.6163 36.3829C89.0559 37.9079 91.3678 37.2401 90.9301 35.7199C90.5095 34.2603 90.1648 32.1037 88.6556 32.6192ZM81.1574 31.1373C80.4359 29.7354 78.2895 30.7911 79.0231 32.2488C80.55 35.2668 81.5864 38.315 82.2225 41.6867C78.5582 44.8452 78.3402 50.4582 81.7735 53.8915L82.2149 54.3042C80.9605 61.1036 77.8148 67.1611 73.0806 72.1175C71.9716 73.2684 73.7121 74.9276 74.8052 73.7949C79.748 68.6744 82.8601 62.5962 84.3991 55.6694C89.8549 58.0014 96.0004 53.9981 96.0004 48.0008C96.0004 43.3969 92.2681 39.665 87.6646 39.665C86.5081 39.665 85.4071 39.9001 84.4067 40.3257L81.1574 31.1373ZM83.4671 52.1926C81.2081 50.0391 81.1174 46.1628 83.4724 43.8077C87.1979 40.0823 93.5936 42.7351 93.5936 48.0004C93.5936 53.0661 87.479 56.0179 83.4671 52.1926ZM80.8184 17.7169C79.7469 16.5441 77.9728 18.1701 79.0386 19.3372C81.6911 22.2308 83.907 25.4328 85.6868 28.9293C86.4038 30.3432 88.5494 29.2558 87.8343 27.8426C85.951 24.1569 83.63 20.784 80.8184 17.7169ZM69.1344 8.67137C67.7356 7.91887 66.5987 10.0396 67.9895 10.7883C69.4492 11.574 70.8688 12.8704 71.6765 11.5544C72.5189 10.1817 70.4557 9.38192 69.1344 8.67137ZM59.9735 4.99162C58.4443 4.5634 57.7988 6.88176 59.3204 7.30809C60.9131 7.75446 62.5867 8.70954 63.0849 7.24724C63.6049 5.72447 61.4181 5.39603 59.9735 4.99162ZM36.0265 4.99162C34.5812 5.39641 32.3955 5.72447 32.9148 7.24724C33.414 8.70954 35.0854 7.75408 36.6796 7.30809C38.2012 6.88214 37.5564 4.56302 36.0265 4.99162ZM24.3232 11.554C25.0806 12.7877 26.366 11.6973 27.4103 11.1156C27.978 10.7996 29.1043 10.2822 28.4961 9.15666C27.7776 7.82778 26.1952 9.02438 25.307 9.54671C24.5756 9.97758 23.7048 10.5453 24.3232 11.554ZM22.2055 21.1952C21.0735 22.2875 22.732 24.0299 23.8828 22.9202C28.9557 18.0752 34.9497 15.0535 41.6961 13.7854L42.1085 14.2269C43.6135 15.7376 45.6975 16.6711 47.9989 16.6711C51.758 16.6711 53.8473 14.2295 53.8938 14.2295L54.3061 13.7862C61.1505 15.0644 67.1471 18.1807 72.1168 22.9202C73.2665 24.0276 74.9261 22.292 73.7941 21.1952C68.6513 16.2111 62.6196 13.1709 55.6709 11.6016C57.998 6.14702 53.9906 0 48 0C41.9811 0 38.0084 6.16743 40.3313 11.6009C33.5036 13.0484 27.3475 16.2667 22.2055 21.1952ZM52.1922 12.5276C49.8796 14.8407 46.1231 14.843 43.8077 12.5276C42.7332 11.458 42.0714 9.97606 42.0714 8.33575C42.0714 3.05726 48.4823 0.425953 52.1922 4.13858C54.5072 6.45354 54.5095 10.21 52.1922 12.5276ZM7.38368 36.3829C7.83572 34.8144 8.81915 33.123 7.34438 32.6192C5.83635 32.1041 5.49052 34.258 5.06948 35.7199C4.63219 37.2397 6.94413 37.9083 7.38368 36.3829ZM10.3136 28.9293C12.1262 25.3689 14.2946 22.2482 16.9614 19.3372C18.0272 18.1701 16.2527 16.5445 15.182 17.7169C12.3855 20.7708 10.0664 24.1451 8.16567 27.8426C7.45096 29.2562 9.59622 30.3428 10.3136 28.9293ZM8.33537 42.0714C11.6103 42.0714 14.2643 44.7258 14.2643 48.0004C14.2643 53.2838 7.84252 55.8913 4.14312 52.1926C0.435401 48.4849 3.06822 42.0714 8.33537 42.0714Z" fill="#0E1F4E"/>
</g>
<defs>
<clipPath id="clip0_216_679">
<rect width="96" height="96" fill="white"/>
</clipPath>
</defs>
</svg>
