<svg width="96" height="96" viewBox="0 0 96 96" fill="none" xmlns="http://www.w3.org/2000/svg">
<rect width="96" height="96" rx="25" fill="#FEBA15"/>
<g clip-path="url(#clip0_39_356)">
<path d="M26.088 23.536L48 18.6666L69.912 23.536C70.5042 23.6676 71.0338 23.9972 71.4134 24.4704C71.793 24.9435 71.9999 25.532 72 26.1386V52.7706C71.9998 55.4046 71.3494 57.9978 70.1064 60.32C68.8634 62.6422 67.0663 64.6217 64.8747 66.0826L48 77.3333L31.1253 66.0826C28.9341 64.6219 27.1372 62.6429 25.8943 60.3212C24.6513 57.9994 24.0006 55.4068 24 52.7733V26.1386C24.0001 25.532 24.207 24.9435 24.5866 24.4704C24.9662 23.9972 25.4958 23.6676 26.088 23.536ZM48 52L55.8373 56.12L54.3413 47.3946L60.68 41.2133L51.9173 39.9386L48 32L44.08 39.9386L35.32 41.2133L41.6587 47.3946L40.1653 56.12L48 52Z" fill="#F5FFF5"/>
</g>
<defs>
<clipPath id="clip0_39_356">
<rect width="64" height="64" fill="white" transform="translate(16 16)"/>
</clipPath>
</defs>
</svg>
