<svg width="194" height="193" viewBox="0 0 194 193" fill="none" xmlns="http://www.w3.org/2000/svg">
<circle cx="97" cy="96.5" r="96.5" fill="#0E1F4E"/>
<path d="M96.8713 128.587C114.457 128.587 128.713 114.331 128.713 96.7449C128.713 79.1591 114.457 64.903 96.8713 64.903C79.2855 64.903 65.0294 79.1591 65.0294 96.7449C65.0294 114.331 79.2855 128.587 96.8713 128.587Z" stroke="#FEBA15" stroke-width="2" stroke-miterlimit="10" stroke-linecap="round"/>
<path d="M96.9288 64.903V128.587" stroke="#FEBA15" stroke-width="2" stroke-miterlimit="10" stroke-linecap="round"/>
<path d="M93.1545 65.4058C93.1545 65.4058 63.6702 98.4666 93.1545 128.221" stroke="#FEBA15" stroke-width="2" stroke-miterlimit="10" stroke-linecap="round"/>
<path d="M100.058 64.9528C100.058 64.9528 129.826 98.3307 100.058 128.372" stroke="#FEBA15" stroke-width="2" stroke-miterlimit="10" stroke-linecap="round"/>
<path d="M67.1558 85.2876C72.2244 89.2144 103.751 99.0858 126.701 85.561" stroke="#FEBA15" stroke-width="2" stroke-miterlimit="10" stroke-linecap="round"/>
<path d="M68.4276 111.07C73.3875 107.615 96.6539 93.5506 125.436 110.829" stroke="#FEBA15" stroke-width="2" stroke-miterlimit="10" stroke-linecap="round"/>
<path d="M114.768 44.3491C132.181 50.3028 145.692 64.678 150.407 82.6235" stroke="#FEBA15" stroke-width="2" stroke-miterlimit="10" stroke-linecap="round"/>
<path d="M43.3351 82.6235C48.0564 64.678 61.5616 50.3028 78.9786 44.3491" stroke="#FEBA15" stroke-width="2" stroke-miterlimit="10" stroke-linecap="round"/>
<path d="M78.8428 149.095C71.5527 146.573 64.8682 142.56 59.2154 137.311C53.5627 132.061 49.0658 125.692 46.0116 118.608" stroke="#FEBA15" stroke-width="2" stroke-miterlimit="10" stroke-linecap="round"/>
<path d="M147.731 118.625C144.675 125.706 140.177 132.072 134.525 137.318C128.872 142.564 122.188 146.575 114.9 149.095" stroke="#FEBA15" stroke-width="2" stroke-miterlimit="10" stroke-linecap="round"/>
<path d="M128.641 97.3717H65.7105" stroke="#FEBA15" stroke-width="2" stroke-miterlimit="10" stroke-linecap="round"/>
<path d="M96.8715 58.9114C106.964 58.9114 115.146 50.7295 115.146 40.6366C115.146 30.5437 106.964 22.3618 96.8715 22.3618C86.7786 22.3618 78.5966 30.5437 78.5966 40.6366C78.5966 50.7295 86.7786 58.9114 96.8715 58.9114Z" stroke="#FEBA15" stroke-width="2" stroke-miterlimit="10" stroke-linecap="round"/>
<path d="M96.8715 170.373C106.964 170.373 115.146 162.191 115.146 152.098C115.146 142.005 106.964 133.823 96.8715 133.823C86.7786 133.823 78.5966 142.005 78.5966 152.098C78.5966 162.191 86.7786 170.373 96.8715 170.373Z" stroke="#FEBA15" stroke-width="2" stroke-miterlimit="10" stroke-linecap="round"/>
<path d="M152.187 119.173C162.28 119.173 170.462 110.991 170.462 100.898C170.462 90.8053 162.28 82.6234 152.187 82.6234C142.094 82.6234 133.912 90.8053 133.912 100.898C133.912 110.991 142.094 119.173 152.187 119.173Z" stroke="#FEBA15" stroke-width="2" stroke-miterlimit="10" stroke-linecap="round"/>
<path d="M41.4806 119.173C51.5735 119.173 59.7554 110.991 59.7554 100.898C59.7554 90.8053 51.5735 82.6234 41.4806 82.6234C31.3877 82.6234 23.2058 90.8053 23.2058 100.898C23.2058 110.991 31.3877 119.173 41.4806 119.173Z" stroke="#FEBA15" stroke-width="2" stroke-miterlimit="10" stroke-linecap="round"/>
<path d="M109.142 41.8449C109.142 42.686 108.891 43.508 108.422 44.2057C107.952 44.9035 107.285 45.4453 106.506 45.762C105.726 46.0786 104.87 46.1557 104.047 45.9834C103.224 45.8111 102.471 45.3972 101.884 44.7946C100.704 45.6561 99.273 46.1048 97.8123 46.0713C96.3517 46.0377 94.9428 45.5237 93.8037 44.6088C93.1423 45.3875 92.2749 45.964 91.3009 46.2724C90.3268 46.5808 89.2857 46.6085 88.2966 46.3523C87.3076 46.0962 86.4107 45.5666 85.7088 44.8242C85.007 44.0818 84.5284 43.1566 84.3281 42.1548C84.1279 41.1529 84.2139 40.1149 84.5764 39.1597C84.9389 38.2045 85.5631 37.3708 86.3777 36.7541C87.1922 36.1373 88.164 35.7626 89.1817 35.6728C90.1994 35.5829 91.2218 35.7817 92.1318 36.2462C92.7658 35.0859 93.7315 34.1412 94.9053 33.5328C96.0792 32.9244 97.4078 32.6799 98.7214 32.8307C100.035 32.9815 101.274 33.5207 102.279 34.3794C103.284 35.238 104.011 36.377 104.365 37.6508C104.547 37.6275 104.73 37.6159 104.914 37.616C106.035 37.616 107.111 38.0616 107.904 38.8546C108.697 39.6477 109.142 40.7233 109.142 41.8449V41.8449Z" stroke="#FEBA15" stroke-width="2" stroke-miterlimit="10" stroke-linecap="round"/>
<path d="M144.333 99.1159C144.333 99.1159 152.774 91.2276 161.4 99.1159" stroke="#FEBA15" stroke-width="2" stroke-miterlimit="10" stroke-linecap="round"/>
<path d="M146.352 101.86C146.352 101.86 152.774 95.3433 159.38 101.86" stroke="#FEBA15" stroke-width="2" stroke-miterlimit="10" stroke-linecap="round"/>
<path d="M149.104 103.919C149.104 103.919 152.958 100.489 156.807 103.919" stroke="#FEBA15" stroke-width="2" stroke-miterlimit="10" stroke-linecap="round"/>
<path d="M153.168 106.033C153.544 106.033 153.848 105.729 153.848 105.354C153.848 104.978 153.544 104.674 153.168 104.674C152.793 104.674 152.489 104.978 152.489 105.354C152.489 105.729 152.793 106.033 153.168 106.033Z" stroke="#FEBA15" stroke-width="2" stroke-miterlimit="10" stroke-linecap="round"/>
<path d="M104.171 147.718H89.4964C89.086 147.718 88.7533 148.051 88.7533 148.461V157.698C88.7533 158.109 89.086 158.441 89.4964 158.441H104.171C104.581 158.441 104.914 158.109 104.914 157.698V148.461C104.914 148.051 104.581 147.718 104.171 147.718Z" stroke="#FEBA15" stroke-width="2" stroke-miterlimit="10" stroke-linecap="round"/>
<path d="M104.461 148.02L96.7581 153.004L89.0555 147.869" stroke="#FEBA15" stroke-width="2" stroke-miterlimit="10" stroke-linecap="round"/>
<path d="M41.4805 105.617H34.9393L33.2145 107.507C33.1721 107.554 33.1166 107.587 33.0552 107.601C32.9939 107.616 32.9296 107.611 32.8708 107.589C32.8121 107.566 32.7615 107.526 32.7258 107.474C32.6901 107.422 32.6709 107.361 32.6708 107.298V105.617H31.4882C31.1757 105.617 30.8759 105.492 30.6547 105.272C30.4335 105.051 30.3091 104.751 30.3087 104.438V95.4325C30.3087 95.1196 30.433 94.8196 30.6542 94.5984C30.8754 94.3772 31.1754 94.2529 31.4882 94.2529H46.6442C46.9571 94.2529 47.2571 94.3772 47.4783 94.5984C47.6995 94.8196 47.8238 95.1196 47.8238 95.4325V102.862" stroke="#FEBA15" stroke-width="2" stroke-miterlimit="10" stroke-linecap="round"/>
<path d="M41.707 103.593V108.601C41.707 108.775 41.776 108.941 41.899 109.064C42.0219 109.187 42.1886 109.256 42.3625 109.256H48.8704L49.7872 110.262C49.8141 110.291 49.8492 110.311 49.8878 110.32C49.9264 110.329 49.9667 110.326 50.0037 110.312C50.0406 110.298 50.0724 110.273 50.0949 110.24C50.1174 110.207 50.1297 110.169 50.13 110.129V109.255H50.7885C50.8748 109.255 50.9604 109.239 51.0404 109.206C51.1203 109.174 51.1931 109.126 51.2544 109.065C51.3157 109.004 51.3644 108.932 51.3977 108.852C51.4311 108.773 51.4483 108.687 51.4485 108.601V103.593C51.4485 103.419 51.3795 103.252 51.2565 103.129C51.1336 103.006 50.9669 102.937 50.793 102.937H42.3625C42.1886 102.937 42.0219 103.006 41.899 103.129C41.776 103.252 41.707 103.419 41.707 103.593Z" stroke="#FEBA15" stroke-width="2" stroke-miterlimit="10" stroke-linecap="round"/>
<path d="M31.6635 99.992V96.3673C31.6635 96.3673 31.5124 95.3101 32.7207 95.3101" stroke="#FEBA15" stroke-width="2" stroke-miterlimit="10" stroke-linecap="round"/>
<path d="M49.7874 103.919C49.7874 103.919 50.5425 103.768 50.5425 104.674V106.184" stroke="#FEBA15" stroke-width="2" stroke-miterlimit="10" stroke-linecap="round"/>
<path d="M86.0348 40.6367C86.0348 40.6367 87.9982 36.2568 92.8312 38.5222C92.8312 38.5222 95.2478 33.0851 100.081 35.3506" stroke="#FEBA15" stroke-width="2" stroke-miterlimit="10" stroke-linecap="round"/>
<path d="M89.6597 149.681V156.629C89.6597 156.629 89.6597 157.686 90.868 157.384" stroke="#FEBA15" stroke-width="2" stroke-miterlimit="10" stroke-linecap="round"/>
</svg>
