<svg width="194" height="193" viewBox="0 0 194 193" fill="none" xmlns="http://www.w3.org/2000/svg">
<circle cx="97" cy="96.5" r="96.5" fill="#0E1F4E"/>
<path d="M132.742 60.2051H61.6025C59.9668 60.2051 58.6408 61.5366 58.6408 63.1792V105.395C58.6408 107.038 59.9668 108.369 61.6025 108.369H132.742C134.377 108.369 135.703 107.038 135.703 105.395V63.1792C135.703 61.5366 134.377 60.2051 132.742 60.2051Z" fill="#0E1F4E" stroke="#FEBA15" stroke-width="1.7" stroke-miterlimit="10"/>
<path d="M100.268 108.369H93.7317V129.699H100.268V108.369Z" fill="#0E1F4E" stroke="#FEBA15" stroke-width="1.7" stroke-miterlimit="10"/>
<path d="M115.773 129.699H78.571C77.824 129.699 77.2184 130.322 77.2184 131.09V134.5C77.2184 135.268 77.824 135.891 78.571 135.891H115.773C116.52 135.891 117.126 135.268 117.126 134.5V131.09C117.126 130.322 116.52 129.699 115.773 129.699Z" fill="#0E1F4E" stroke="#FEBA15" stroke-width="1.7" stroke-miterlimit="10"/>
<path d="M61.4341 60.2051H132.907C133.649 60.2051 134.36 60.5147 134.884 61.0657C135.409 61.6168 135.703 62.3641 135.703 63.1434V66.7416H58.6408V63.1451C58.6408 62.3658 58.9354 61.6184 59.4598 61.0673C59.9843 60.5163 60.6955 60.2067 61.4371 60.2067L61.4341 60.2051Z" fill="#0E1F4E" stroke="#FEBA15" stroke-width="1.7" stroke-miterlimit="10"/>
<path d="M132.455 68.8057H98.0122C97.5482 68.8057 97.172 69.1856 97.172 69.6542V103.736C97.172 104.205 97.5482 104.585 98.0122 104.585H132.455C132.919 104.585 133.295 104.205 133.295 103.736V69.6542C133.295 69.1856 132.919 68.8057 132.455 68.8057Z" fill="#0E1F4E" stroke="#FEBA15" stroke-width="1.7" stroke-miterlimit="10"/>
<path d="M93.2872 96.3279H62.5256C61.5201 96.3279 60.705 97.1586 60.705 98.1834V102.729C60.705 103.754 61.5201 104.585 62.5256 104.585H93.2872C94.2927 104.585 95.1078 103.754 95.1078 102.729V98.1834C95.1078 97.1586 94.2927 96.3279 93.2872 96.3279Z" fill="#0E1F4E" stroke="#FEBA15" stroke-width="1.7" stroke-miterlimit="10"/>
<path d="M94.071 68.8057H61.7418C61.1692 68.8057 60.705 69.2753 60.705 69.8547V93.5588C60.705 94.1381 61.1692 94.6078 61.7418 94.6078H94.071C94.6436 94.6078 95.1078 94.1381 95.1078 93.5588V69.8547C95.1078 69.2753 94.6436 68.8057 94.071 68.8057Z" fill="#0E1F4E" stroke="#FEBA15" stroke-width="1.7" stroke-miterlimit="10"/>
<path d="M124.951 86.2906L126.14 85.6823C126.233 85.6342 126.309 85.5582 126.358 85.4648C126.406 85.3715 126.424 85.2655 126.41 85.1614C126.321 84.5181 126.176 83.884 125.976 83.2664C125.944 83.167 125.881 83.0801 125.797 83.0176C125.714 82.9551 125.613 82.9199 125.508 82.9171L124.17 82.8921C124.078 82.8908 123.987 82.8641 123.909 82.8148C123.831 82.7655 123.768 82.6957 123.727 82.6129C123.641 82.4382 123.549 82.2667 123.453 82.0982C123.407 82.0176 123.384 81.926 123.387 81.8333C123.389 81.7405 123.418 81.6504 123.468 81.5726L124.193 80.4544C124.251 80.3658 124.279 80.2615 124.274 80.1561C124.27 80.0507 124.232 79.9495 124.167 79.8664C123.767 79.3553 123.323 78.8799 122.841 78.4455C122.763 78.3747 122.665 78.3301 122.56 78.3181C122.455 78.306 122.349 78.3272 122.257 78.3785L121.088 79.0242C121.007 79.0692 120.915 79.0909 120.822 79.0868C120.729 79.0826 120.638 79.0529 120.561 79.0008C120.405 78.8932 120.237 78.7902 120.07 78.6889C119.99 78.6413 119.924 78.5724 119.88 78.4899C119.836 78.4073 119.816 78.3142 119.822 78.221L119.891 76.8875C119.896 76.7827 119.869 76.6788 119.813 76.59C119.758 76.5012 119.676 76.4319 119.579 76.3915C118.977 76.1474 118.354 75.9579 117.718 75.8253C117.615 75.8034 117.508 75.8141 117.411 75.856C117.314 75.898 117.233 75.969 117.179 76.0593L116.491 77.2025C116.443 77.2822 116.374 77.3471 116.291 77.39C116.209 77.433 116.116 77.4523 116.023 77.4458C115.833 77.4333 115.641 77.4271 115.449 77.4255C115.356 77.4256 115.264 77.3999 115.185 77.3511C115.105 77.3024 115.041 77.2326 114.998 77.1495L114.392 75.9626C114.344 75.8687 114.268 75.7921 114.175 75.7434C114.081 75.6948 113.975 75.6765 113.871 75.6912C113.228 75.7798 112.594 75.9248 111.976 76.1248C111.877 76.1572 111.789 76.2195 111.727 76.3032C111.664 76.387 111.628 76.4881 111.625 76.5927L111.6 77.9324C111.599 78.025 111.572 78.1154 111.523 78.1936C111.473 78.2718 111.403 78.3347 111.32 78.3754C111.146 78.4611 110.975 78.5516 110.806 78.6483C110.726 78.6942 110.635 78.7171 110.542 78.7143C110.45 78.7116 110.36 78.6833 110.282 78.6327L109.163 77.9075C109.074 77.8504 108.97 77.8223 108.865 77.827C108.759 77.8318 108.658 77.8691 108.575 77.934C108.063 78.3344 107.587 78.7785 107.153 79.2612C107.082 79.3395 107.038 79.4377 107.026 79.5422C107.014 79.6467 107.035 79.7524 107.085 79.8446L107.733 81.0127C107.778 81.0941 107.8 81.1864 107.796 81.2794C107.792 81.3724 107.763 81.4626 107.711 81.5399C107.607 81.7 107.503 81.8638 107.399 82.0312C107.352 82.1117 107.283 82.1776 107.2 82.2214C107.118 82.2651 107.024 82.2852 106.931 82.2792L105.598 82.2105C105.493 82.205 105.389 82.232 105.3 82.2879C105.212 82.3437 105.142 82.4257 105.102 82.5225C104.859 83.125 104.67 83.7476 104.536 84.3831C104.513 84.4862 104.524 84.5937 104.566 84.6905C104.608 84.7873 104.679 84.8685 104.77 84.9228L105.913 85.6106C105.993 85.6585 106.058 85.7276 106.101 85.8101C106.144 85.8926 106.164 85.9855 106.158 86.0785C106.144 86.2687 106.137 86.459 106.136 86.6524C106.135 86.7458 106.109 86.8374 106.06 86.9169C106.011 86.9964 105.941 87.0609 105.858 87.1032L104.673 87.7098C104.579 87.7576 104.502 87.8334 104.454 87.9268C104.405 88.0202 104.387 88.1265 104.402 88.2308C104.49 88.8739 104.635 89.508 104.835 90.1257C104.868 90.2251 104.93 90.312 105.014 90.3746C105.097 90.4371 105.198 90.4722 105.303 90.4751L106.641 90.5C106.734 90.5016 106.825 90.5287 106.904 90.5785C106.982 90.6283 107.046 90.6989 107.087 90.7824C107.171 90.9555 107.262 91.1255 107.358 91.2939C107.404 91.3742 107.427 91.4657 107.424 91.5581C107.422 91.6506 107.393 91.7405 107.343 91.818L106.618 92.9378C106.561 93.0264 106.532 93.1307 106.537 93.236C106.542 93.3413 106.579 93.4426 106.644 93.5258C107.045 94.0374 107.489 94.5133 107.971 94.9482C108.05 95.0185 108.148 95.0627 108.252 95.0747C108.357 95.0868 108.462 95.066 108.555 95.0152L109.723 94.368C109.804 94.3233 109.896 94.3018 109.988 94.3056C110.081 94.3095 110.171 94.3386 110.248 94.3898C110.404 94.499 110.574 94.6019 110.741 94.7017C110.822 94.749 110.888 94.8178 110.931 94.9005C110.975 94.9831 110.995 95.0763 110.989 95.1696L110.92 96.5016C110.915 96.6063 110.942 96.7102 110.998 96.799C111.054 96.8878 111.135 96.9571 111.232 96.9975C111.834 97.2414 112.457 97.4314 113.093 97.5653C113.196 97.5865 113.303 97.5755 113.4 97.5336C113.496 97.4917 113.577 97.4211 113.632 97.3313L114.32 96.1865C114.368 96.1071 114.438 96.0424 114.52 95.9995C114.603 95.9566 114.695 95.9371 114.788 95.9432C114.977 95.9557 115.168 95.9635 115.362 95.9635C115.455 95.9642 115.547 95.9907 115.626 96.0399C115.706 96.0892 115.77 96.1593 115.813 96.2427L116.418 97.428C116.466 97.5217 116.542 97.5981 116.636 97.6467C116.729 97.6953 116.836 97.7137 116.94 97.6994C117.583 97.6102 118.217 97.4646 118.835 97.2642C118.935 97.2324 119.022 97.1702 119.085 97.0863C119.147 97.0024 119.182 96.901 119.184 96.7963L119.209 95.4582C119.211 95.3652 119.238 95.2745 119.288 95.1961C119.337 95.1177 119.408 95.0545 119.491 95.0137C119.666 94.9279 119.836 94.8374 120.003 94.7407C120.084 94.6952 120.175 94.6726 120.268 94.6753C120.361 94.678 120.451 94.7061 120.529 94.7563L121.648 95.4816C121.737 95.5385 121.841 95.5666 121.946 95.5618C122.051 95.5571 122.152 95.5198 122.235 95.455C122.746 95.0547 123.222 94.6112 123.657 94.1293C123.727 94.0507 123.771 93.9523 123.783 93.8476C123.795 93.7428 123.775 93.6369 123.724 93.5445L123.077 92.3763C123.032 92.2948 123.01 92.2024 123.014 92.1094C123.018 92.0164 123.048 91.9263 123.1 91.8491C123.204 91.688 123.308 91.5242 123.412 91.3579C123.459 91.277 123.528 91.211 123.611 91.1672C123.693 91.1234 123.787 91.1035 123.88 91.1099L125.213 91.1785C125.318 91.1843 125.422 91.1573 125.511 91.1015C125.6 91.0456 125.669 90.9635 125.709 90.8666C125.952 90.2641 126.141 89.6415 126.275 89.0059C126.297 88.9028 126.287 88.7954 126.245 88.6987C126.203 88.602 126.132 88.5207 126.041 88.4663L124.898 87.7785C124.818 87.731 124.753 87.662 124.71 87.5793C124.667 87.4966 124.648 87.4035 124.655 87.3106C124.668 87.1187 124.675 86.9269 124.675 86.7335C124.677 86.6417 124.704 86.552 124.752 86.4741C124.801 86.3961 124.87 86.3327 124.951 86.2906ZM122.924 86.7335C122.919 88.2213 122.472 89.674 121.641 90.908C120.81 92.142 119.632 93.1018 118.255 93.6659C116.879 94.23 115.366 94.3732 113.908 94.0772C112.45 93.7813 111.113 93.0595 110.065 92.0032C109.017 90.947 108.307 89.6037 108.022 88.1433C107.738 86.6829 107.894 85.1711 108.469 83.799C109.044 82.427 110.013 81.2564 111.254 80.4353C112.494 79.6142 113.951 79.1796 115.438 79.1864C116.425 79.1903 117.402 79.3886 118.313 79.7699C119.223 80.1513 120.05 80.7083 120.745 81.4091C121.44 82.11 121.991 82.9409 122.365 83.8544C122.739 84.768 122.929 85.7463 122.926 86.7335H122.924Z" fill="#0E1F4E" stroke="#FEBA15" stroke-width="1.7" stroke-miterlimit="10"/>
<path d="M46.0512 108.04L46.4969 107.821C46.532 107.803 46.5606 107.776 46.5787 107.742C46.5968 107.709 46.6035 107.67 46.5979 107.633C46.5652 107.401 46.5107 107.173 46.4348 106.951C46.423 106.915 46.3995 106.883 46.3677 106.86C46.3359 106.838 46.2974 106.825 46.2578 106.825L45.7562 106.816C45.7216 106.815 45.688 106.805 45.6587 106.788C45.6294 106.77 45.6057 106.745 45.59 106.716C45.5589 106.652 45.5248 106.591 45.4875 106.53C45.4697 106.501 45.4603 106.469 45.4603 106.436C45.4603 106.402 45.4697 106.37 45.4875 106.342L45.7593 105.939C45.7807 105.907 45.7914 105.87 45.7897 105.832C45.788 105.794 45.7741 105.757 45.7499 105.727C45.5998 105.543 45.433 105.371 45.2514 105.215C45.2221 105.189 45.1852 105.173 45.1459 105.169C45.1067 105.165 45.067 105.172 45.0325 105.191L44.5945 105.423C44.5648 105.44 44.5307 105.45 44.4959 105.45C44.4612 105.45 44.4271 105.44 44.3973 105.423C44.3367 105.384 44.2762 105.347 44.2125 105.311C44.1829 105.295 44.1585 105.27 44.1421 105.241C44.1257 105.212 44.1178 105.179 44.1193 105.146L44.1457 104.666C44.1477 104.628 44.1375 104.59 44.1163 104.558C44.0952 104.526 44.0642 104.501 44.0277 104.487C43.8013 104.4 43.5675 104.331 43.3289 104.283C43.2902 104.275 43.25 104.279 43.2139 104.294C43.1777 104.31 43.1474 104.335 43.127 104.368L42.8692 104.779C42.8511 104.808 42.8252 104.831 42.7942 104.847C42.7633 104.862 42.7285 104.869 42.6937 104.867C42.6223 104.867 42.5508 104.867 42.4778 104.867C42.443 104.867 42.4089 104.857 42.3794 104.84C42.3498 104.822 42.3258 104.797 42.3101 104.767L42.0818 104.339C42.0636 104.306 42.035 104.278 42 104.261C41.965 104.244 41.9252 104.237 41.8861 104.242C41.6455 104.272 41.408 104.322 41.1764 104.392C41.1387 104.403 41.1057 104.426 41.082 104.456C41.0583 104.487 41.0452 104.523 41.0444 104.562L41.0351 105.043C41.0346 105.076 41.0245 105.109 41.0058 105.137C40.9872 105.165 40.9608 105.188 40.9295 105.203C40.8643 105.234 40.8006 105.267 40.7369 105.301C40.7075 105.318 40.6736 105.327 40.6391 105.327C40.6046 105.327 40.5707 105.318 40.5413 105.301L40.1204 105.039C40.087 105.018 40.0479 105.009 40.0084 105.01C39.969 105.012 39.9311 105.026 39.8999 105.049C39.7084 105.193 39.5302 105.353 39.3672 105.526C39.341 105.554 39.3245 105.59 39.32 105.627C39.3156 105.665 39.3234 105.703 39.3424 105.736L39.5846 106.157C39.6014 106.186 39.6096 106.219 39.6082 106.253C39.6068 106.286 39.596 106.318 39.5769 106.346C39.5365 106.404 39.4977 106.464 39.4604 106.524C39.4428 106.552 39.4174 106.575 39.3871 106.591C39.3567 106.607 39.3225 106.614 39.288 106.613L38.788 106.588C38.7484 106.586 38.7094 106.597 38.6761 106.617C38.6428 106.638 38.6168 106.667 38.6016 106.702C38.5107 106.919 38.4395 107.143 38.3888 107.372C38.3809 107.409 38.3852 107.448 38.401 107.482C38.4169 107.517 38.4436 107.546 38.4774 107.566L38.906 107.813C38.9358 107.831 38.9601 107.856 38.9763 107.886C38.9924 107.916 38.9998 107.95 38.9976 107.983C38.9976 108.05 38.9899 108.12 38.9899 108.189C38.9897 108.223 38.9799 108.255 38.9616 108.284C38.9432 108.313 38.917 108.336 38.8858 108.351L38.4401 108.569C38.4083 108.587 38.3823 108.612 38.3652 108.644C38.3482 108.675 38.3407 108.71 38.3438 108.745C38.3772 108.977 38.4318 109.205 38.5069 109.428C38.5193 109.464 38.5431 109.495 38.5747 109.517C38.6064 109.54 38.6446 109.552 38.6839 109.553L39.1855 109.562C39.2203 109.563 39.2542 109.572 39.2835 109.59C39.3129 109.608 39.3365 109.633 39.3517 109.663C39.3843 109.726 39.4185 109.787 39.4542 109.848C39.4725 109.876 39.4822 109.909 39.4822 109.942C39.4822 109.975 39.4725 110.008 39.4542 110.036L39.1824 110.44C39.1612 110.472 39.1508 110.51 39.1528 110.548C39.1547 110.586 39.1689 110.622 39.1933 110.652C39.3434 110.836 39.5096 111.007 39.6902 111.163C39.7195 111.189 39.7564 111.205 39.7957 111.209C39.835 111.214 39.8747 111.206 39.9092 111.187L40.3471 110.955C40.3777 110.938 40.4123 110.931 40.4471 110.932C40.4819 110.934 40.5156 110.945 40.5444 110.963C40.6049 111.002 40.6655 111.04 40.7292 111.074C40.7591 111.091 40.7835 111.115 40.8 111.145C40.8164 111.174 40.8241 111.207 40.8224 111.241L40.796 111.721C40.7942 111.759 40.8047 111.796 40.8262 111.828C40.8476 111.86 40.8788 111.884 40.9155 111.898C41.1414 111.986 41.3747 112.054 41.6128 112.103C41.6513 112.11 41.6914 112.106 41.7275 112.091C41.7637 112.077 41.7941 112.051 41.8147 112.019L42.0725 111.606C42.0908 111.578 42.1168 111.555 42.1477 111.539C42.1786 111.524 42.2133 111.517 42.248 111.52C42.3194 111.52 42.3924 111.52 42.4639 111.527C42.4989 111.527 42.5332 111.537 42.5631 111.554C42.5929 111.572 42.6172 111.597 42.6331 111.627L42.8599 112.053C42.8778 112.087 42.9063 112.115 42.9414 112.132C42.9764 112.15 43.0163 112.157 43.0555 112.152C43.2967 112.122 43.5347 112.072 43.7668 112.003C43.8041 111.991 43.8367 111.968 43.8601 111.937C43.8834 111.907 43.8964 111.87 43.8972 111.833L43.9066 111.35C43.9074 111.316 43.9178 111.284 43.9367 111.255C43.9557 111.227 43.9823 111.205 44.0137 111.19C44.0774 111.159 44.1426 111.127 44.2047 111.092C44.2345 111.074 44.2686 111.065 44.3034 111.065C44.3381 111.065 44.3722 111.074 44.402 111.092L44.8213 111.353C44.8545 111.373 44.8935 111.383 44.933 111.382C44.9725 111.38 45.0105 111.367 45.0418 111.344C45.2333 111.199 45.4115 111.039 45.5745 110.865C45.6011 110.837 45.6179 110.802 45.6224 110.764C45.6268 110.726 45.6188 110.688 45.5993 110.655L45.357 110.234C45.3401 110.205 45.3321 110.172 45.3337 110.138C45.3354 110.105 45.3467 110.073 45.3664 110.045C45.4067 109.987 45.4456 109.929 45.4813 109.868C45.499 109.839 45.5246 109.816 45.5553 109.8C45.586 109.785 45.6206 109.778 45.6552 109.78L46.1537 109.804C46.1933 109.806 46.2326 109.796 46.266 109.776C46.2995 109.756 46.3254 109.726 46.3401 109.69C46.4312 109.473 46.5024 109.248 46.5528 109.019C46.561 108.982 46.5568 108.944 46.541 108.909C46.5251 108.874 46.4983 108.845 46.4643 108.826L46.0357 108.578C46.006 108.561 45.9817 108.536 45.9656 108.507C45.9494 108.477 45.942 108.444 45.9441 108.411C45.9441 108.342 45.9518 108.272 45.9534 108.202C45.9524 108.169 45.961 108.136 45.9783 108.108C45.9956 108.079 46.0208 108.056 46.0512 108.04ZM45.2918 108.198C45.29 108.733 45.1227 109.256 44.8112 109.701C44.4997 110.145 44.058 110.491 43.5419 110.694C43.0258 110.897 42.4585 110.949 41.9117 110.842C41.365 110.736 40.8634 110.477 40.4703 110.096C40.0773 109.716 39.8105 109.233 39.7036 108.707C39.5968 108.182 39.6547 107.638 39.8701 107.143C40.0855 106.649 40.4487 106.228 40.9137 105.932C41.3787 105.636 41.9246 105.479 42.4825 105.481C42.8528 105.483 43.2192 105.554 43.5608 105.691C43.9024 105.828 44.2125 106.029 44.4734 106.281C44.7343 106.533 44.9409 106.832 45.0813 107.161C45.2217 107.49 45.2933 107.842 45.2918 108.198Z" fill="#0E1F4E" stroke="#FEBA15" stroke-width="1.7" stroke-miterlimit="10"/>
<path d="M97.1995 138.3L97.172 158.701C97.1702 160.132 97.4492 161.55 97.993 162.873C98.5369 164.196 99.3349 165.398 100.341 166.411C101.348 167.424 102.543 168.228 103.859 168.776C105.175 169.324 106.585 169.606 108.01 169.606C110.884 169.606 113.64 168.459 115.672 166.417C117.704 164.374 118.846 161.604 118.846 158.716V157.296" fill="#0E1F4E"/>
<path d="M97.1995 138.3L97.172 158.701C97.1702 160.132 97.4492 161.55 97.993 162.873C98.5369 164.196 99.3349 165.398 100.341 166.411C101.348 167.424 102.543 168.228 103.859 168.776C105.175 169.324 106.585 169.606 108.01 169.606V169.606C110.884 169.606 113.64 168.459 115.672 166.417C117.704 164.374 118.846 161.604 118.846 158.716V157.296" stroke="#FEBA15" stroke-width="1.7" stroke-miterlimit="10"/>
<path d="M120.394 157.221C125.619 157.221 129.855 152.985 129.855 147.76C129.855 142.535 125.619 138.3 120.394 138.3C115.169 138.3 110.933 142.535 110.933 147.76C110.933 152.985 115.169 157.221 120.394 157.221Z" fill="#0E1F4E" stroke="#FEBA15" stroke-width="1.7" stroke-miterlimit="10"/>
<path d="M138.111 92.8877L161.587 92.8238C163.021 92.8256 164.442 92.5475 165.768 92.0053C167.093 91.4631 168.298 90.6675 169.313 89.664C170.328 88.6604 171.133 87.4687 171.682 86.1569C172.232 84.8451 172.514 83.4389 172.514 82.0188C172.514 79.1532 171.364 76.4049 169.318 74.3786C167.271 72.3522 164.495 71.2139 161.601 71.2139H160.179" fill="#0E1F4E"/>
<path d="M138.111 92.8877L161.587 92.8238C163.021 92.8256 164.442 92.5475 165.768 92.0053C167.093 91.4631 168.298 90.6675 169.313 89.664C170.328 88.6605 171.133 87.4687 171.682 86.1569C172.232 84.8451 172.514 83.4389 172.514 82.0188V82.0188C172.514 79.1532 171.364 76.4049 169.318 74.3786C167.271 72.3522 164.495 71.2139 161.601 71.2139H160.179" stroke="#FEBA15" stroke-width="1.7" stroke-miterlimit="10"/>
<path d="M150.668 79.1266C155.894 79.1266 160.129 74.8909 160.129 69.6659C160.129 64.4408 155.894 60.2051 150.668 60.2051C145.443 60.2051 141.208 64.4408 141.208 69.6659C141.208 74.8909 145.443 79.1266 150.668 79.1266Z" fill="#0E1F4E" stroke="#FEBA15" stroke-width="1.7" stroke-miterlimit="10"/>
<path d="M97.172 57.7969V33.9333C97.1741 32.5501 96.8998 31.1801 96.3648 29.9016C95.8299 28.6231 95.0448 27.4612 94.0544 26.4824C93.0641 25.5036 91.8879 24.727 90.5931 24.197C89.2983 23.6671 87.9104 23.3942 86.5087 23.394C83.6798 23.394 80.9667 24.503 78.9664 26.4769C76.966 28.4508 75.8423 31.1279 75.8423 33.9195V35.2904" fill="#0E1F4E"/>
<path d="M97.172 57.7969V33.9333C97.1741 32.5501 96.8998 31.1801 96.3648 29.9016C95.8299 28.6231 95.0448 27.4612 94.0544 26.4824C93.0641 25.5036 91.8879 24.727 90.5931 24.197C89.2983 23.6671 87.9104 23.3942 86.5087 23.394V23.394C83.6798 23.394 80.9667 24.503 78.9664 26.4769C76.966 28.4508 75.8423 31.1279 75.8423 33.9195V35.2904" stroke="#FEBA15" stroke-width="1.7" stroke-miterlimit="10"/>
<path d="M74.6381 53.6686C79.6732 53.6686 83.7549 49.5869 83.7549 44.5518C83.7549 39.5168 79.6732 35.4351 74.6381 35.4351C69.6031 35.4351 65.5214 39.5168 65.5214 44.5518C65.5214 49.5869 69.6031 53.6686 74.6381 53.6686Z" fill="#0E1F4E" stroke="#FEBA15" stroke-width="1.7" stroke-miterlimit="10"/>
<path d="M55.8886 85.3191H32.025C30.6417 85.3171 29.2716 85.587 27.993 86.1134C26.7144 86.6397 25.5524 87.4123 24.5736 88.3867C23.5947 89.3612 22.8181 90.5185 22.2883 91.7925C21.7585 93.0665 21.4857 94.4321 21.4857 95.8112C21.4857 98.5943 22.5947 101.263 24.5686 103.231C26.5425 105.199 29.2197 106.305 32.0112 106.305H33.3821" fill="#0E1F4E"/>
<path d="M55.8886 85.3191H32.025C30.6417 85.3171 29.2716 85.587 27.993 86.1134C26.7144 86.6397 25.5524 87.4123 24.5736 88.3867C23.5947 89.3612 22.8181 90.5185 22.2883 91.7925C21.7585 93.0665 21.4857 94.4321 21.4857 95.8112V95.8112C21.4857 98.5943 22.5947 101.263 24.5686 103.231C26.5425 105.199 29.2197 106.305 32.0112 106.305H33.3821" stroke="#FEBA15" stroke-width="1.7" stroke-miterlimit="10"/>
<path d="M42.6435 117.314C47.6785 117.314 51.7602 113.155 51.7602 108.025C51.7602 102.895 47.6785 98.7361 42.6435 98.7361C37.6084 98.7361 33.5267 102.895 33.5267 108.025C33.5267 113.155 37.6084 117.314 42.6435 117.314Z" fill="#0E1F4E" stroke="#FEBA15" stroke-width="1.7" stroke-miterlimit="10"/>
<path d="M143.96 73.6221H157.721" stroke="#FEBA15" stroke-width="1.7" stroke-miterlimit="10"/>
<path d="M147.351 67.4297H145.385C145.168 67.4297 144.992 67.6057 144.992 67.8229V73.229C144.992 73.4462 145.168 73.6222 145.385 73.6222H147.351C147.568 73.6222 147.744 73.4462 147.744 73.229V67.8229C147.744 67.6057 147.568 67.4297 147.351 67.4297Z" fill="#0E1F4E" stroke="#FEBA15" stroke-width="1.7" stroke-miterlimit="10"/>
<path d="M150.428 69.1497H148.157C147.929 69.1497 147.744 69.325 147.744 69.5414V73.2303C147.744 73.4467 147.929 73.622 148.157 73.622H150.428C150.656 73.622 150.84 73.4467 150.84 73.2303V69.5414C150.84 69.325 150.656 69.1497 150.428 69.1497Z" fill="#0E1F4E" stroke="#FEBA15" stroke-width="1.7" stroke-miterlimit="10"/>
<path d="M153.55 65.3655H151.227C151.014 65.3655 150.84 65.5394 150.84 65.7538V73.2338C150.84 73.4483 151.014 73.6222 151.227 73.6222H153.55C153.764 73.6222 153.937 73.4483 153.937 73.2338V65.7538C153.937 65.5394 153.764 65.3655 153.55 65.3655Z" fill="#0E1F4E" stroke="#FEBA15" stroke-width="1.7" stroke-miterlimit="10"/>
<path d="M156.322 71.2139H154.303C154.101 71.2139 153.937 71.3964 153.937 71.6217V73.2143C153.937 73.4395 154.101 73.6221 154.303 73.6221H156.322C156.525 73.6221 156.689 73.4395 156.689 73.2143V71.6217C156.689 71.3964 156.525 71.2139 156.322 71.2139Z" fill="#0E1F4E" stroke="#FEBA15" stroke-width="1.7" stroke-miterlimit="10"/>
<path d="M74.6381 49.8841C77.3932 49.8841 79.6266 47.4967 79.6266 44.5517C79.6266 41.6067 77.3932 39.2192 74.6381 39.2192C71.8831 39.2192 69.6497 41.6067 69.6497 44.5517C69.6497 47.4967 71.8831 49.8841 74.6381 49.8841Z" fill="#0E1F4E" stroke="#FEBA15" stroke-width="1.7" stroke-miterlimit="10"/>
<path d="M69.6497 44.7236H79.6266" stroke="#FEBA15" stroke-width="1.7" stroke-miterlimit="10"/>
<path d="M71.3699 40.5955L74.6265 44.3798L77.9064 40.693" fill="#0E1F4E"/>
<path d="M71.3699 40.5955L74.6265 44.3798L77.9064 40.693" stroke="#FEBA15" stroke-width="1.7" stroke-miterlimit="10"/>
<path d="M127.102 145.577V150.083C127.102 150.462 126.956 150.825 126.694 151.093C126.433 151.361 126.078 151.512 125.708 151.512H118.717L117.633 152.649C117.588 152.697 117.53 152.729 117.466 152.742C117.403 152.755 117.337 152.749 117.277 152.724C117.217 152.698 117.166 152.656 117.129 152.601C117.093 152.546 117.074 152.481 117.074 152.414V151.512H116.112C115.742 151.512 115.387 151.361 115.126 151.093C114.864 150.825 114.717 150.462 114.717 150.083V145.577C114.717 145.198 114.864 144.834 115.126 144.566C115.387 144.298 115.742 144.148 116.112 144.148H125.708C126.078 144.148 126.433 144.298 126.694 144.566C126.956 144.834 127.102 145.198 127.102 145.577Z" fill="#0E1F4E" stroke="#FEBA15" stroke-width="1.7" stroke-miterlimit="10"/>
<path d="M117.642 148.62C117.927 148.62 118.158 148.312 118.158 147.932C118.158 147.552 117.927 147.244 117.642 147.244C117.357 147.244 117.126 147.552 117.126 147.932C117.126 148.312 117.357 148.62 117.642 148.62Z" fill="#0E1F4E" stroke="#FEBA15" stroke-width="1.7" stroke-miterlimit="10"/>
<path d="M120.91 148.62C121.29 148.62 121.598 148.312 121.598 147.932C121.598 147.552 121.29 147.244 120.91 147.244C120.53 147.244 120.222 147.552 120.222 147.932C120.222 148.312 120.53 148.62 120.91 148.62Z" fill="#0E1F4E" stroke="#FEBA15" stroke-width="1.7" stroke-miterlimit="10"/>
<path d="M124.006 148.62C124.386 148.62 124.694 148.312 124.694 147.932C124.694 147.552 124.386 147.244 124.006 147.244C123.626 147.244 123.318 147.552 123.318 147.932C123.318 148.312 123.626 148.62 124.006 148.62Z" fill="#0E1F4E" stroke="#FEBA15" stroke-width="1.7" stroke-miterlimit="10"/>
<path d="M115.406 147.244V145.917C115.406 145.917 115.52 145.18 116.094 145.18" fill="#0E1F4E"/>
<path d="M115.406 147.244V145.917C115.406 145.917 115.52 145.18 116.094 145.18" stroke="#FEBA15" stroke-width="1.7" stroke-miterlimit="10" stroke-linecap="round"/>
<path d="M60.705 65.3653V63.0197C60.705 63.0197 60.8197 62.0814 61.7371 61.925" fill="#0E1F4E"/>
<path d="M60.705 65.3653V63.0197C60.705 63.0197 60.8197 62.0814 61.7371 61.925" stroke="#FEBA15" stroke-width="1.7" stroke-miterlimit="10" stroke-linecap="round"/>
<path d="M62.4251 61.9251C62.6151 61.9251 62.7692 61.8481 62.7692 61.7531C62.7692 61.6581 62.6151 61.5811 62.4251 61.5811C62.2351 61.5811 62.0811 61.6581 62.0811 61.7531C62.0811 61.8481 62.2351 61.9251 62.4251 61.9251Z" fill="#0E1F4E"/>
</svg>
