<svg width="24" height="25" viewBox="0 0 24 25" fill="none" xmlns="http://www.w3.org/2000/svg">
<g clip-path="url(#clip0_3_62)">
<path d="M6.94 5.88088C6.93974 6.41132 6.72877 6.91992 6.35351 7.2948C5.97825 7.66969 5.46944 7.88015 4.939 7.87988C4.40857 7.87962 3.89997 7.66865 3.52508 7.29339C3.1502 6.91813 2.93974 6.40932 2.94 5.87888C2.94027 5.34845 3.15124 4.83985 3.5265 4.46496C3.90176 4.09008 4.41057 3.87962 4.941 3.87988C5.47144 3.88015 5.98004 4.09112 6.35492 4.46638C6.72981 4.84164 6.94027 5.35045 6.94 5.88088ZM7 9.36088H3V21.8809H7V9.36088ZM13.32 9.36088H9.34V21.8809H13.28V15.3109C13.28 11.6509 18.05 11.3109 18.05 15.3109V21.8809H22V13.9509C22 7.78088 14.94 8.01088 13.28 11.0409L13.32 9.36088Z" fill="#F5FFF5"/>
</g>
<defs>
<clipPath id="clip0_3_62">
<rect width="24" height="24" fill="white" transform="translate(0 0.880859)"/>
</clipPath>
</defs>
</svg>
