<svg width="48" height="48" viewBox="0 0 48 48" fill="none" xmlns="http://www.w3.org/2000/svg">
<rect width="48" height="48" rx="15" fill="#4B9F9C"/>
<g clip-path="url(#clip0_55_514)">
<path d="M24 32.9L28.95 27.95C29.9289 26.971 30.5955 25.7237 30.8656 24.3659C31.1356 23.008 30.9969 21.6006 30.4671 20.3216C29.9373 19.0425 29.04 17.9493 27.8889 17.1802C26.7378 16.411 25.3844 16.0005 24 16.0005C22.6156 16.0005 21.2622 16.411 20.1111 17.1802C18.96 17.9493 18.0628 19.0425 17.5329 20.3216C17.0031 21.6006 16.8644 23.008 17.1345 24.3659C17.4045 25.7237 18.0711 26.971 19.05 27.95L24 32.9ZM24 35.728L17.636 29.364C16.3773 28.1053 15.5202 26.5017 15.1729 24.7558C14.8257 23.01 15.0039 21.2004 15.6851 19.5559C16.3663 17.9114 17.5198 16.5058 18.9999 15.5168C20.4799 14.5279 22.22 14.0001 24 14.0001C25.78 14.0001 27.5201 14.5279 29.0001 15.5168C30.4802 16.5058 31.6337 17.9114 32.3149 19.5559C32.9961 21.2004 33.1743 23.01 32.8271 24.7558C32.4798 26.5017 31.6227 28.1053 30.364 29.364L24 35.728ZM24 25C24.5304 25 25.0391 24.7893 25.4142 24.4142C25.7893 24.0391 26 23.5304 26 23C26 22.4696 25.7893 21.9609 25.4142 21.5858C25.0391 21.2107 24.5304 21 24 21C23.4696 21 22.9609 21.2107 22.5858 21.5858C22.2107 21.9609 22 22.4696 22 23C22 23.5304 22.2107 24.0391 22.5858 24.4142C22.9609 24.7893 23.4696 25 24 25ZM24 27C22.9391 27 21.9217 26.5786 21.1716 25.8284C20.4214 25.0783 20 24.0609 20 23C20 21.9391 20.4214 20.9217 21.1716 20.1716C21.9217 19.4214 22.9391 19 24 19C25.0609 19 26.0783 19.4214 26.8284 20.1716C27.5786 20.9217 28 21.9391 28 23C28 24.0609 27.5786 25.0783 26.8284 25.8284C26.0783 26.5786 25.0609 27 24 27Z" fill="#F5FFF5"/>
</g>
<defs>
<clipPath id="clip0_55_514">
<rect width="24" height="24" fill="white" transform="translate(12 12)"/>
</clipPath>
</defs>
</svg>
