<svg width="194" height="193" viewBox="0 0 194 193" fill="none" xmlns="http://www.w3.org/2000/svg">
<circle cx="97" cy="96.5" r="96.5" fill="#0E1F4E"/>
<path d="M117.23 111.261C120.56 109.286 124.269 108.035 128.114 107.587" stroke="#FEBA15" stroke-width="2" stroke-miterlimit="10"/>
<path d="M139.595 108.645C150.911 112.152 159.131 122.702 159.131 135.171C159.131 150.505 146.699 162.936 131.365 162.936C116.031 162.936 103.6 150.498 103.6 135.164C103.594 130.845 104.599 126.584 106.536 122.724" stroke="#FEBA15" stroke-width="2" stroke-miterlimit="10"/>
<path d="M67.7946 45.3167C71.2133 47.5061 74.0723 50.4651 76.1429 53.957C78.2135 57.449 79.4382 61.377 79.7192 65.427" stroke="#FEBA15" stroke-width="2" stroke-miterlimit="10"/>
<path d="M74.6089 82.8165C72.1869 86.0646 69.0392 88.7017 65.417 90.5172C61.7948 92.3328 57.7984 93.2765 53.7467 93.2732C39.3681 93.2732 27.7121 81.6172 27.7121 67.2387C27.7121 52.8601 39.3681 41.2041 53.7467 41.2041C54.4714 41.2041 55.1878 41.2332 55.8959 41.2913" stroke="#FEBA15" stroke-width="2" stroke-miterlimit="10"/>
<path d="M65.0287 66.4416C64.8154 65.3476 64.5772 64.2508 64.3127 63.1624" stroke="#FEBA15" stroke-width="2" stroke-miterlimit="10" stroke-linecap="round"/>
<path d="M66.8097 89.6727C66.8097 89.6727 67.023 85.2607 66.5466 78.6523" stroke="#FEBA15" stroke-width="2" stroke-miterlimit="10"/>
<path d="M55.5674 49.729C55.5674 49.729 48.1461 51.1484 45.1993 67.3009C42.2524 83.4534 42.2524 90.4398 42.2524 90.4398" stroke="#FEBA15" stroke-width="2" stroke-miterlimit="10"/>
<path d="M54.1491 53.9863C54.1491 53.9863 58.8422 65.8833 80.4523 75.487L77.1786 83.8915C58.514 76.5796 47.7097 61.6264 47.7097 61.6264" stroke="#FEBA15" stroke-width="2" stroke-miterlimit="10" stroke-linecap="round"/>
<path d="M59.4981 51.1484C59.4981 51.1484 74.0262 60.3145 82.9347 68.2828" stroke="#FEBA15" stroke-width="2" stroke-miterlimit="10"/>
<path d="M56.727 39.1789C56.8489 37.333 57.382 35.6075 58.843 35.1048C62.3355 33.9042 68.4481 35.4316 68.2293 42.6354C68.0105 49.8392 59.7155 50.4943 57.2089 44.6005C57.0603 43.9517 56.9475 43.2952 56.871 42.634" stroke="#FEBA15" stroke-width="2" stroke-miterlimit="10"/>
<path d="M57.2087 44.5999L55.5704 49.7237C55.9046 50.1243 56.3121 50.4575 56.7711 50.7055C57.6199 51.1466 58.5914 51.2928 59.5324 51.121L60.3162 47.9899C60.3162 47.9899 58.0784 47.0011 57.2087 44.5999Z" stroke="#FEBA15" stroke-width="2" stroke-miterlimit="10"/>
<path d="M80.4528 75.4868C80.4528 75.4868 88.3116 76.47 88.529 77.564C88.626 78.0432 85.3647 77.8909 85.3647 77.8909C85.4217 78.7895 85.6883 79.6623 86.143 80.4394C86.5977 81.2166 87.228 81.8766 87.9834 82.3666C90.6035 84.1128 91.8041 84.1128 92.1309 84.3303C92.4577 84.5477 92.6765 85.2041 91.8041 85.4229C91.8041 85.4229 94.3148 86.1859 92.0229 86.7315C92.0229 86.7315 93.441 87.4959 91.3679 88.0416C91.3679 88.0416 92.1309 88.6966 90.4941 88.806C88.8572 88.9154 81.8764 87.1664 78.3271 80.9485" stroke="#FEBA15" stroke-width="2" stroke-miterlimit="10"/>
<path d="M91.8042 85.4198C91.8042 85.4198 90.0579 85.201 87.9835 83.8965" stroke="#FEBA15" stroke-width="2" stroke-miterlimit="10" stroke-linecap="round"/>
<path d="M92.0233 86.7286C92.0233 86.7286 90.1677 86.9474 87.4382 85.4199" stroke="#FEBA15" stroke-width="2" stroke-miterlimit="10" stroke-linecap="round"/>
<path d="M91.3679 88.0383C91.3679 88.0383 89.7296 88.0383 87.111 86.7283" stroke="#FEBA15" stroke-width="2" stroke-miterlimit="10" stroke-linecap="round"/>
<path d="M69.6473 69.7581V68.2847H99.5538V77.8884H85.3096" stroke="#FEBA15" stroke-width="2" stroke-miterlimit="10"/>
<path d="M86.934 80.9447H99.4985V77.8884H85.4107" stroke="#FEBA15" stroke-width="2" stroke-miterlimit="10"/>
<path d="M91.3043 84.0006H99.5536V80.9443H86.4519" stroke="#FEBA15" stroke-width="2" stroke-miterlimit="10"/>
<path d="M77.1793 84.0002H80.6995" stroke="#FEBA15" stroke-width="2" stroke-miterlimit="10"/>
<path d="M58.6807 42.8496C58.3375 42.9679 57.9696 42.9953 57.6127 42.9291C57.2558 42.863 56.9222 42.7056 56.6442 42.4722C56.3662 42.2388 56.1534 41.9375 56.0264 41.5974C55.8995 41.2574 55.8627 40.8903 55.9198 40.5318C55.9768 40.1734 56.1257 39.8358 56.3519 39.552C56.5781 39.2682 56.8739 39.0477 57.2106 38.9122C57.5473 38.7766 57.9134 38.7305 58.2731 38.7784C58.6329 38.8263 58.9742 38.9665 59.2637 39.1854" stroke="#FEBA15" stroke-width="2" stroke-miterlimit="10"/>
<path d="M64.3426 30.9568C63.4682 30.9571 62.6182 31.2449 61.9235 31.7759C61.2288 32.3069 60.728 33.0517 60.4983 33.8954C60.0278 33.6144 59.4898 33.4665 58.9418 33.4675C58.1313 33.4678 57.3542 33.79 56.7811 34.363C56.208 34.9361 55.8859 35.7133 55.8855 36.5238C55.8853 36.8314 55.932 37.1373 56.024 37.4308C56.0642 37.8906 56.1251 38.5027 56.2123 39.31C56.4776 39.088 56.7929 38.934 57.1311 38.8614C57.4693 38.7888 57.8201 38.7998 58.1531 38.8934C58.4861 38.9869 58.7912 39.1603 59.0421 39.3985C59.2929 39.6366 59.4819 39.9323 59.5927 40.26C60.4693 39.6908 61.2946 38.9569 61.692 38.0581L61.7184 37.9335C62.2025 38.3582 62.7825 38.6592 63.4085 38.8106C64.0345 38.962 64.6879 38.9594 65.3126 38.8029C65.9374 38.6464 66.5149 38.3407 66.9956 37.912C67.4762 37.4834 67.8458 36.9445 68.0726 36.3417C68.2993 35.7389 68.3765 35.09 68.2974 34.4508C68.2184 33.8116 67.9856 33.2012 67.6188 32.6717C67.2521 32.1422 66.7624 31.7096 66.1918 31.411C65.6212 31.1123 64.9866 30.9564 64.3426 30.9568Z" fill="#FEBA15"/>
<path d="M58.624 41.6525L57.3139 40.0156" stroke="#FEBA15" stroke-width="2" stroke-miterlimit="10" stroke-linecap="round"/>
<path d="M58.1033 41.0007L56.8778 41.4342" stroke="#FEBA15" stroke-width="2" stroke-miterlimit="10" stroke-linecap="round"/>
<path d="M64.8224 65.4258L69.7025 68.3381" stroke="#FEBA15" stroke-width="2" stroke-miterlimit="10"/>
<path d="M64.1327 44.6541C64.1327 44.6541 64.1327 45.8547 65.2253 46.2909" stroke="#FEBA15" stroke-width="2" stroke-miterlimit="10" stroke-linecap="round"/>
<path d="M125.781 162.238C125.781 162.238 126.658 138.881 127.113 132.55" stroke="#FEBA15" stroke-width="2" stroke-miterlimit="10"/>
<path d="M136.523 118.539C136.523 118.539 143.947 122.721 146.484 134.066C149.915 149.417 149.306 156.231 149.306 156.231" stroke="#FEBA15" stroke-width="2" stroke-miterlimit="10"/>
<path d="M138.128 111.83C137.801 112.379 137.445 112.909 137.061 113.419C132.561 117.59 125.567 113.77 128.198 107.386C129.089 105.222 130.362 103.913 131.755 103.221C134.469 101.875 137.644 102.877 139.353 104.476C140.435 105.486 140.184 107.139 139.769 108.492" stroke="#FEBA15" stroke-width="2" stroke-miterlimit="10" stroke-linecap="round"/>
<path d="M137.061 113.424L136.487 118.547C136.038 118.768 135.551 118.9 135.052 118.937C134.138 118.992 133.231 118.741 132.475 118.223L133.018 115.163C133.018 115.163 135.359 115.181 137.061 113.424Z" stroke="#FEBA15" stroke-width="2" stroke-miterlimit="10"/>
<path d="M132.241 124.294C132.241 124.294 123.551 124.444 110.995 115.173C108.391 113.24 105.909 111.148 103.563 108.908L97.3314 114.889C113.017 132.602 136.559 134.68 136.559 134.68" stroke="#FEBA15" stroke-width="2" stroke-miterlimit="10" stroke-linecap="round"/>
<path d="M103.562 108.904C103.562 108.904 99.8096 102.311 98.7627 102.519C98.3043 102.609 99.6351 105.439 99.6351 105.439C98.8189 105.719 97.9487 105.803 97.0941 105.686C96.2395 105.568 95.4242 105.253 94.7135 104.764C92.207 103.087 91.7666 102.025 91.4536 101.814C91.1406 101.604 90.4842 101.652 90.6075 102.506C90.6075 102.506 89.0108 100.568 89.3695 102.793C89.3695 102.793 88.173 101.824 88.4499 103.854C88.4499 103.854 87.59 103.418 88.0954 104.906C88.6009 106.395 92.7055 111.932 99.5132 112.79" stroke="#FEBA15" stroke-width="2" stroke-miterlimit="10"/>
<path d="M90.6078 102.505C90.6078 102.505 91.4387 103.97 93.3622 105.324" stroke="#FEBA15" stroke-width="2" stroke-miterlimit="10" stroke-linecap="round"/>
<path d="M89.3698 102.792C89.3698 102.792 89.8572 104.514 92.21 106.367" stroke="#FEBA15" stroke-width="2" stroke-miterlimit="10" stroke-linecap="round"/>
<path d="M88.4502 103.852C88.4502 103.852 89.0512 105.301 91.1714 107.138" stroke="#FEBA15" stroke-width="2" stroke-miterlimit="10" stroke-linecap="round"/>
<path d="M132.457 118.321C127.925 117.473 118.331 114.396 106.594 103.258L102.546 107.142" stroke="#FEBA15" stroke-width="2" stroke-miterlimit="10" stroke-linecap="round"/>
<path d="M106.594 103.258C106.594 103.258 102.841 96.6645 101.8 96.8736C101.341 96.9637 102.671 99.7942 102.671 99.7942C101.855 100.073 100.985 100.158 100.13 100.04C99.2761 99.9229 98.461 99.6072 97.7505 99.1184C95.244 97.4414 94.8036 96.3793 94.4907 96.1688C94.1777 95.9583 93.5213 96.0068 93.6445 96.8612C93.6445 96.8612 92.0478 94.9224 92.3982 97.1478C92.3982 97.1478 91.2017 96.1785 91.4801 98.2086C91.4801 98.2086 90.6201 97.7724 91.1242 99.2611C91.5008 100.369 93.8938 103.746 97.9098 105.738" stroke="#FEBA15" stroke-width="2" stroke-miterlimit="10"/>
<path d="M93.6404 96.8586C93.6404 96.8586 94.4712 98.3238 96.3948 99.6781" stroke="#FEBA15" stroke-width="2" stroke-miterlimit="10" stroke-linecap="round"/>
<path d="M92.4011 97.1506C92.4011 97.1506 92.8885 98.8733 95.2427 100.726" stroke="#FEBA15" stroke-width="2" stroke-miterlimit="10" stroke-linecap="round"/>
<path d="M91.4833 98.2061C91.4833 98.2061 92.0843 99.6546 94.2045 101.492" stroke="#FEBA15" stroke-width="2" stroke-miterlimit="10" stroke-linecap="round"/>
<path d="M145.752 107.927L145.657 107.852L145.676 107.829L145.752 107.927Z" fill="black"/>
<path d="M136.458 111.211C136.712 111.448 137.022 111.615 137.36 111.696C137.698 111.778 138.05 111.77 138.384 111.675C138.718 111.579 139.022 111.399 139.265 111.152C139.509 110.904 139.684 110.598 139.774 110.262C139.864 109.927 139.866 109.574 139.78 109.238C139.693 108.902 139.521 108.594 139.28 108.344C139.039 108.094 138.737 107.91 138.404 107.811C138.071 107.712 137.718 107.701 137.38 107.779" stroke="#FEBA15" stroke-width="2" stroke-miterlimit="10"/>
<path d="M136.974 110.188L138.76 109.268" stroke="#FEBA15" stroke-width="2" stroke-miterlimit="10" stroke-linecap="round"/>
<path d="M137.686 109.821L138.586 110.679" stroke="#FEBA15" stroke-width="2" stroke-miterlimit="10" stroke-linecap="round"/>
<path d="M130.981 110.759C130.981 110.759 130.511 111.809 129.385 111.763" stroke="#FEBA15" stroke-width="2" stroke-miterlimit="10" stroke-linecap="round"/>
<path d="M128.883 123.86L129.1 123.036" stroke="#FEBA15" stroke-width="2" stroke-miterlimit="10"/>
<path d="M139.765 109.129C139.421 108.535 138.618 107.874 137.883 107.874C137.504 107.875 137.132 107.985 136.813 108.19C136.494 108.395 136.241 108.687 136.083 109.032C134.9 108.55 133.872 107.755 133.109 106.732C132.346 105.708 131.877 104.496 131.752 103.226C134.467 101.879 137.642 102.882 139.351 104.48C140.428 105.491 140.38 107.469 139.765 109.129Z" fill="#FEBA15"/>
<path d="M152.191 114.69C151.959 115.585 151.411 116.365 150.648 116.887C149.885 117.408 148.958 117.635 148.04 117.525C147.122 117.415 146.275 116.976 145.657 116.289C145.038 115.602 144.69 114.714 144.677 113.79C144.362 113.882 144.035 113.921 143.707 113.903H143.678C143.139 113.94 142.598 113.848 142.102 113.635C141.605 113.421 141.166 113.092 140.822 112.675C140.478 112.258 140.239 111.765 140.124 111.237C140.008 110.709 140.021 110.161 140.16 109.638C140.299 109.116 140.561 108.634 140.923 108.233C141.286 107.832 141.739 107.524 142.245 107.333C142.751 107.142 143.295 107.075 143.832 107.137C144.369 107.198 144.884 107.387 145.333 107.688C145.368 107.71 145.402 107.735 145.437 107.76C145.841 108.052 146.176 108.429 146.417 108.864C146.659 109.3 146.802 109.783 146.836 110.28V110.296C147.491 109.981 148.222 109.86 148.944 109.947C149.666 110.034 150.348 110.325 150.909 110.787C151.471 111.248 151.89 111.86 152.115 112.551C152.341 113.242 152.365 113.983 152.184 114.687L152.191 114.69Z" fill="#FEBA15"/>
<path d="M103.599 152.959C100.985 153.331 98.3467 153.516 95.7058 153.513C65.19 153.513 40.4517 128.775 40.4517 98.259" stroke="#FEBA15" stroke-width="2" stroke-miterlimit="10" stroke-linecap="round"/>
<path d="M76.8927 46.2901C82.9252 44.1085 89.2921 42.9964 95.7069 43.0039C126.223 43.0039 150.961 67.7423 150.961 98.2581C150.962 100.602 150.815 102.943 150.521 105.268" stroke="#FEBA15" stroke-width="2" stroke-miterlimit="10" stroke-linecap="round"/>
</svg>
