<svg width="48" height="49" viewBox="0 0 48 49" fill="none" xmlns="http://www.w3.org/2000/svg">
<rect y="0.5" width="48" height="48" rx="15" fill="#4B9F9C"/>
<g clip-path="url(#clip0_13_1304)">
<path d="M20.0001 25.8333V29.8333H28.0001V25.8333H37.3334V35.1666C37.3334 35.5202 37.1929 35.8593 36.9429 36.1094C36.6928 36.3594 36.3537 36.4999 36.0001 36.4999H12.0001C11.6465 36.4999 11.3073 36.3594 11.0573 36.1094C10.8072 35.8593 10.6667 35.5202 10.6667 35.1666V25.8333H20.0001ZM22.6667 23.1666H25.3334V27.1666H22.6667V23.1666ZM17.3334 15.1666V11.1666C17.3334 10.813 17.4739 10.4738 17.7239 10.2238C17.974 9.97373 18.3131 9.83325 18.6667 9.83325H29.3334C29.687 9.83325 30.0262 9.97373 30.2762 10.2238C30.5263 10.4738 30.6667 10.813 30.6667 11.1666V15.1666H36.0001C36.3537 15.1666 36.6928 15.3071 36.9429 15.5571C37.1929 15.8072 37.3334 16.1463 37.3334 16.4999V23.1666H28.0001V20.4999H20.0001V23.1666H10.6667V16.4999C10.6667 16.1463 10.8072 15.8072 11.0573 15.5571C11.3073 15.3071 11.6465 15.1666 12.0001 15.1666H17.3334ZM20.0001 12.4999V15.1666H28.0001V12.4999H20.0001Z" fill="#F5FFF5"/>
</g>
<defs>
<clipPath id="clip0_13_1304">
<rect width="32" height="32" fill="white" transform="translate(8 8.5)"/>
</clipPath>
</defs>
</svg>
