<svg width="52" height="40" viewBox="0 0 52 40" fill="none" xmlns="http://www.w3.org/2000/svg">
<path d="M25.3286 5.28302C20.2714 10.3983 16.2857 15.8491 13.3714 21.6352L23.7857 28.0503C23.7857 31.4885 22.5857 34.3396 20.1857 36.6038C17.8714 38.8679 15.1286 40 11.9571 40C8.1 40 5.14286 38.9518 3.08572 36.8553C1.02857 34.6751 0 31.6143 0 27.673C0 22.8092 2.05714 17.6939 6.17143 12.327C10.3714 6.96016 14.7429 2.85115 19.2857 0L25.3286 5.28302ZM51.6857 5.28302C46.6286 10.3983 42.6429 15.8491 39.7286 21.6352L50.1429 28.0503C50.1429 31.4885 48.9429 34.3396 46.5429 36.6038C44.2286 38.8679 41.4857 40 38.3143 40C34.4571 40 31.5 38.9518 29.4429 36.8553C27.3857 34.6751 26.3571 31.6143 26.3571 27.673C26.3571 22.8092 28.4143 17.6939 32.5286 12.327C36.7286 6.96016 41.1 2.85115 45.6429 0L51.6857 5.28302Z" fill="#4B9F9C"/>
</svg>
