<svg width="24" height="25" viewBox="0 0 24 25" fill="none" xmlns="http://www.w3.org/2000/svg">
<g clip-path="url(#clip0_3_54)">
<path d="M22.162 6.53679C21.3986 6.87448 20.589 7.09626 19.76 7.19479C20.6337 6.67222 21.2877 5.8498 21.6 4.88079C20.78 5.36879 19.881 5.71079 18.944 5.89579C18.3146 5.22236 17.4804 4.77575 16.5709 4.62537C15.6615 4.47499 14.7279 4.62928 13.9153 5.06424C13.1026 5.4992 12.4564 6.19047 12.0771 7.03058C11.6978 7.87069 11.6067 8.81257 11.818 9.70979C10.1551 9.62644 8.52832 9.19431 7.04328 8.44145C5.55823 7.68859 4.24812 6.63183 3.19799 5.33979C2.82628 5.97824 2.63095 6.70401 2.63199 7.44279C2.63199 8.89279 3.36999 10.1738 4.49199 10.9238C3.828 10.9029 3.17862 10.7236 2.59799 10.4008V10.4528C2.59819 11.4185 2.93236 12.3544 3.54384 13.1018C4.15532 13.8493 5.00647 14.3623 5.95299 14.5538C5.33661 14.7208 4.6903 14.7454 4.06299 14.6258C4.32986 15.457 4.85 16.184 5.55058 16.7049C6.25117 17.2258 7.09712 17.5146 7.96999 17.5308C7.10247 18.2121 6.10917 18.7158 5.04687 19.013C3.98458 19.3101 2.87412 19.395 1.77899 19.2628C3.69069 20.4922 5.91609 21.1449 8.18899 21.1428C15.882 21.1428 20.089 14.7698 20.089 9.24279C20.089 9.06279 20.084 8.88079 20.076 8.70279C20.8949 8.11095 21.6016 7.37781 22.163 6.53779L22.162 6.53679Z" fill="#F5FFF5"/>
</g>
<defs>
<clipPath id="clip0_3_54">
<rect width="24" height="24" fill="white" transform="translate(0 0.880859)"/>
</clipPath>
</defs>
</svg>
