<svg width="561" height="561" viewBox="0 0 561 561" fill="none" xmlns="http://www.w3.org/2000/svg">
<mask id="mask0_522_4052" style="mask-type:alpha" maskUnits="userSpaceOnUse" x="0" y="0" width="561" height="561">
<circle cx="280.5" cy="280.5" r="280.5" fill="#D9D9D9"/>
</mask>
<g mask="url(#mask0_522_4052)">
<ellipse cx="269" cy="293" rx="326" ry="325" fill="#4B9F9C" fill-opacity="0.2"/>
<path d="M390.132 157.585C390.132 157.585 415.535 287.634 554.304 317.208" stroke="#0E1F4E" stroke-opacity="0.08" stroke-width="1.3125" stroke-miterlimit="10"/>
<path d="M425.014 111.328C425.014 111.328 437.905 275.501 560.371 302.421" stroke="#0E1F4E" stroke-opacity="0.08" stroke-width="1.3125" stroke-miterlimit="10"/>
<path d="M477.336 122.324C477.336 122.324 471.649 231.899 557.337 283.084" stroke="#0E1F4E" stroke-opacity="0.08" stroke-width="1.3125" stroke-miterlimit="10"/>
<path d="M259.325 165.547C259.325 165.547 233.922 295.596 95.1523 325.17" stroke="#0E1F4E" stroke-opacity="0.08" stroke-width="1.3125" stroke-miterlimit="10"/>
<path d="M224.443 119.291C224.443 119.291 211.551 283.463 89.0854 310.383" stroke="#0E1F4E" stroke-opacity="0.08" stroke-width="1.3125" stroke-miterlimit="10"/>
<path d="M172.119 130.286C172.119 130.286 177.806 239.861 92.1182 291.046" stroke="#0E1F4E" stroke-opacity="0.08" stroke-width="1.3125" stroke-miterlimit="10"/>
<path d="M324.16 320.62C324.16 315.894 326.037 311.361 329.379 308.019C332.721 304.678 337.254 302.8 341.98 302.8C346.706 302.8 351.239 304.678 354.581 308.019C357.922 311.361 359.8 315.894 359.8 320.62C359.8 321.317 359.759 322.013 359.679 322.706C359.189 326.898 357.227 330.781 354.141 333.662C351.056 336.544 347.048 338.236 342.832 338.438C338.615 338.64 334.464 337.339 331.117 334.766C327.771 332.193 325.446 328.516 324.558 324.389" stroke="#FEBA15" stroke-width="2.5" stroke-miterlimit="10" stroke-linecap="round"/>
<path d="M323.859 320.601C323.859 320.601 318.93 320.98 318.809 322.626C318.688 324.271 324.428 324.165 324.428 324.165" stroke="#FEBA15" stroke-width="2.5" stroke-miterlimit="10" stroke-linecap="round"/>
<path d="M360.856 320.756C360.856 321.539 360.415 322.309 360.327 323.071C360.085 323.227 360.232 323.374 359.974 323.518C360.021 323.231 360.043 322.94 360.042 322.649C360.042 321.143 359.462 319.699 358.429 318.634C357.397 317.569 355.996 316.971 354.536 316.971C353.076 316.971 351.676 317.569 350.644 318.634C349.611 319.699 349.031 321.143 349.031 322.649C349.031 323.309 349.007 322.108 349.21 322.698C339.916 321.879 333.124 316.881 333.124 307.085C333.122 305.652 333.281 304.224 333.596 302.828C336.518 301.428 339.734 300.809 342.949 301.029C346.164 301.249 349.273 302.301 351.989 304.087C354.706 305.874 356.942 308.338 358.492 311.251C360.041 314.164 360.854 317.433 360.856 320.756Z" fill="#FEBA15"/>
<path d="M349.562 322.326C349.562 321.314 349.863 320.324 350.425 319.482C350.988 318.641 351.787 317.985 352.722 317.597C353.658 317.21 354.687 317.108 355.68 317.306C356.673 317.503 357.585 317.991 358.3 318.707C359.016 319.423 359.504 320.335 359.701 321.327C359.899 322.32 359.797 323.35 359.41 324.285C359.023 325.22 358.366 326.02 357.525 326.582C356.683 327.144 355.693 327.445 354.681 327.445" stroke="#FEBA15" stroke-width="2.5" stroke-miterlimit="10" stroke-linecap="round"/>
<path d="M353.922 304.452C353.922 304.452 377.955 281.454 396.026 277.586C396.026 277.586 408.503 289.013 353.922 304.452Z" fill="#FEBA15"/>
<path d="M336.671 337.682C336.671 337.682 343.496 347.54 332.122 364.981C332.122 364.981 343.875 372.564 355.25 364.222C355.25 364.222 341.98 348.677 347.667 337.682C347.667 337.682 341.98 339.578 336.671 337.682Z" stroke="#FEBA15" stroke-width="2.5" stroke-miterlimit="10" stroke-linecap="round"/>
<path d="M355.25 364.222C406.079 374.554 425.013 431.711 425.013 431.711" stroke="#FEBA15" stroke-width="2.5" stroke-miterlimit="10" stroke-linecap="round"/>
<path d="M314.302 431.711C314.302 431.711 307.583 409.997 310.412 390.66" stroke="#FEBA15" stroke-width="2.5" stroke-miterlimit="10" stroke-linecap="round"/>
<path d="M392.786 404.792L399.61 431.711" stroke="#FEBA15" stroke-width="2.5" stroke-miterlimit="10" stroke-linecap="round"/>
<path d="M351.837 323.653L354.87 321.378" stroke="#FEBA15" stroke-width="2.5" stroke-miterlimit="10" stroke-linecap="round"/>
<path d="M352.623 323.062L356.008 324.79" stroke="#FEBA15" stroke-width="2.5" stroke-miterlimit="10" stroke-linecap="round"/>
<path d="M230.907 258.629H146.527C137.199 258.629 129.639 252.6 129.639 245.165V149.054C129.639 141.619 137.199 135.59 146.527 135.59H304.633C313.96 135.59 321.52 141.619 321.52 149.054V245.165C321.505 252.6 313.945 258.629 304.633 258.629H264.371" stroke="#FEBA15" stroke-width="2.5" stroke-miterlimit="10" stroke-linecap="round"/>
<path d="M142.546 217.737L158.091 205.358H185.769L228.613 177.286L281.695 180.383L301.79 154.741" stroke="#FEBA15" stroke-width="2.5" stroke-miterlimit="10" stroke-linecap="round"/>
<path d="M278.135 159.154L301.843 154.021L307.261 178.184" stroke="#FEBA15" stroke-width="2.5" stroke-miterlimit="10" stroke-linecap="round"/>
<path d="M142.735 224.649H222.357" stroke="#FEBA15" stroke-width="2.5" stroke-miterlimit="10" stroke-linecap="round"/>
<path d="M142.735 230.09H222.357" stroke="#FEBA15" stroke-width="2.5" stroke-miterlimit="10" stroke-linecap="round"/>
<path d="M142.735 236.437H222.357" stroke="#FEBA15" stroke-width="2.5" stroke-miterlimit="10" stroke-linecap="round"/>
<path d="M142.735 243.087H194.857" stroke="#FEBA15" stroke-width="2.5" stroke-miterlimit="10" stroke-linecap="round"/>
<path d="M470.892 383.559C470.005 383.559 469.119 383.511 468.238 383.415C462.692 382.801 457.527 380.295 453.613 376.318C449.699 372.341 447.275 367.137 446.75 361.583C446.224 356.028 447.629 350.462 450.727 345.821C453.825 341.181 458.428 337.75 463.76 336.107C469.093 334.464 474.828 334.708 480.001 336.799C485.174 338.89 489.468 342.7 492.161 347.587C494.853 352.474 495.779 358.14 494.783 363.63C493.787 369.119 490.929 374.098 486.691 377.728" stroke="#FEBA15" stroke-width="2.5" stroke-miterlimit="10" stroke-linecap="round"/>
<path d="M465.963 331.236C465.963 331.236 458 319.483 446.626 326.307C435.251 333.132 449.052 365.068 481.508 360.431C508.048 356.639 486.058 327.824 465.963 331.236Z" fill="#FEBA15"/>
<path d="M458.189 358.156C459.802 358.156 461.378 358.634 462.718 359.53C464.059 360.426 465.104 361.699 465.721 363.188C466.338 364.678 466.499 366.317 466.184 367.898C465.87 369.479 465.094 370.932 463.954 372.072C462.813 373.212 461.361 373.988 459.78 374.303C458.198 374.617 456.559 374.456 455.07 373.839C453.58 373.222 452.307 372.177 451.411 370.837C450.516 369.496 450.038 367.92 450.038 366.308" stroke="#FEBA15" stroke-width="2" stroke-miterlimit="10" stroke-linecap="round"/>
<path d="M455.346 366.119C455.346 366.119 459.516 362.706 461.412 368.773" stroke="#FEBA15" stroke-width="2" stroke-miterlimit="10" stroke-linecap="round"/>
<path d="M459.327 365.55C459.327 365.55 459.516 369.898 456.104 369.519" stroke="#FEBA15" stroke-width="2" stroke-miterlimit="10" stroke-linecap="round"/>
<path d="M489.28 401.569L486.687 377.717" stroke="#FEBA15" stroke-width="2.5" stroke-miterlimit="10" stroke-linecap="round"/>
<path d="M468.215 383.559L470.892 404.791" stroke="#FEBA15" stroke-width="2.5" stroke-miterlimit="10" stroke-linecap="round"/>
<path d="M521.183 410.164C507.812 402.29 491.131 398.443 471.119 404.462C410.324 422.748 415.644 516.788 415.644 516.788L415.454 580.041" stroke="#FEBA15" stroke-width="2.5" stroke-miterlimit="10" stroke-linecap="round"/>
<path d="M553.248 436.271C539.134 415.747 516.075 401.905 478.39 411.62C427.205 424.81 423.242 494.836 423.279 516.953L423.253 580.041" stroke="#FEBA15" stroke-width="2.5" stroke-miterlimit="10" stroke-linecap="round"/>
<path d="M312.027 202.893V235.553C312.027 235.553 312.406 251.046 291.553 251.046" stroke="#FEBA15" stroke-width="2.5" stroke-miterlimit="10" stroke-linecap="round"/>
<path d="M176.859 433.702C176.86 434.473 176.818 435.244 176.734 436.011V455.029H134.33V436.011C133.924 432.277 134.51 428.502 136.031 425.067C137.552 421.632 139.952 418.66 142.99 416.451C157.83 403.412 148.199 377.914 148.199 377.914H161.09C152.487 403.491 166.933 415.571 167.991 416.416L168.021 416.439C170.756 418.411 172.983 421.005 174.52 424.006C176.057 427.007 176.858 430.33 176.859 433.702V433.702Z" stroke="#FEBA15" stroke-width="2" stroke-miterlimit="10" stroke-linecap="round"/>
<path d="M141.704 341.717C141.704 341.717 135.827 361.187 152.967 377.249C152.967 377.249 158.11 352.669 141.704 341.717Z" stroke="#FEBA15" stroke-width="2" stroke-miterlimit="10" stroke-linecap="round"/>
<path d="M153.73 377.682L185.2 346.213C185.2 346.213 185.579 378.061 153.73 377.682Z" stroke="#FEBA15" stroke-width="2" stroke-miterlimit="10" stroke-linecap="round"/>
<path d="M165.024 358.237C169.526 358.237 173.176 354.588 173.176 350.086C173.176 345.584 169.526 341.934 165.024 341.934C160.522 341.934 156.872 345.584 156.872 350.086C156.872 354.588 160.522 358.237 165.024 358.237Z" stroke="#FEBA15" stroke-width="2" stroke-miterlimit="10" stroke-linecap="round"/>
<path d="M166.621 350.004C168.087 350.004 169.275 348.816 169.275 347.35C169.275 345.885 168.087 344.696 166.621 344.696C165.156 344.696 163.967 345.885 163.967 347.35C163.967 348.816 165.156 350.004 166.621 350.004Z" stroke="#FEBA15" stroke-width="2" stroke-miterlimit="10" stroke-linecap="round"/>
<path d="M162.724 358.237C162.724 358.237 154.489 363.924 152.972 375.678L142.464 343.45" stroke="#FEBA15" stroke-width="2" stroke-miterlimit="10" stroke-linecap="round"/>
<path d="M176.746 431.522H435.926" stroke="#FEBA15" stroke-width="2.5" stroke-miterlimit="10" stroke-linecap="round"/>
<path d="M417 478H31V432H134" stroke="#FEBA15" stroke-width="2.5" stroke-miterlimit="10" stroke-linecap="round"/>
<path d="M82 486.445L417.187 486.445" stroke="#FEBA15" stroke-width="2.5" stroke-miterlimit="10" stroke-linecap="round"/>
<path d="M88 485.431V580H553V435" stroke="#FEBA15" stroke-width="2.5"/>
<path d="M330.995 365.509C276.397 354.514 261.231 255.176 261.231 255.176L233.932 275.65C233.932 275.65 240.711 361.005 308.981 393.589" stroke="#FEBA15" stroke-width="2.5" stroke-miterlimit="10" stroke-linecap="round"/>
<path d="M261.231 255.176C261.231 255.176 260.473 223.327 258.198 224.844C255.923 226.36 254.406 237.356 254.406 237.356C254.406 237.356 248.34 200.199 245.307 203.232C242.273 206.265 246.444 236.218 246.444 236.218C246.444 236.218 239.619 228.635 238.103 243.043C238.103 243.043 233.553 237.735 233.932 251.384C233.932 251.384 220.662 249.97 239.426 271.532L261.231 255.176Z" stroke="#FEBA15" stroke-width="2.5" stroke-miterlimit="10" stroke-linecap="round"/>
<path d="M238.103 243.043C238.103 243.043 238.103 257.071 240.757 255.176C243.411 253.28 245.307 243.043 245.307 243.043" stroke="#FEBA15" stroke-width="2.5" stroke-miterlimit="10" stroke-linecap="round"/>
<path d="M233.932 251.384C233.932 251.384 236.302 266.171 239.854 255.176" stroke="#FEBA15" stroke-width="2.5" stroke-miterlimit="10" stroke-linecap="round"/>
<path d="M232.825 263.051C232.825 263.051 236.238 266.91 236.238 258.577" stroke="#FEBA15" stroke-width="2.5" stroke-miterlimit="10" stroke-linecap="round"/>
<path d="M235.058 283.802C235.058 283.802 243.6 267.714 248.931 272.427C254.262 277.14 235.058 283.802 235.058 283.802Z" stroke="#FEBA15" stroke-width="2.5" stroke-miterlimit="10" stroke-linecap="round"/>
<path d="M234.824 283.741C234.824 283.741 219.824 279.009 221.451 275.096C223.078 271.183 233.102 280.821 234.824 283.741Z" stroke="#FEBA15" stroke-width="2.5" stroke-miterlimit="10" stroke-linecap="round"/>
<path d="M232.795 304.845C229.761 291.954 235.069 283.612 235.069 283.612C235.069 283.612 231.657 292.712 237.344 304.845" stroke="#FEBA15" stroke-width="2.5" stroke-miterlimit="10" stroke-linecap="round"/>
<path d="M261.664 256.042C261.664 256.042 268.489 341.731 326.499 364.859" stroke="#FEBA15" stroke-width="2.5" stroke-miterlimit="10" stroke-linecap="round"/>
</g>
</svg>
