<svg width="218" height="292" viewBox="0 0 218 292" fill="none" xmlns="http://www.w3.org/2000/svg">
<g opacity="0.2">
<path d="M89.4798 160.641C90.7044 161.559 90.6024 162.885 89.99 163.803C89.3777 164.721 88.153 165.333 86.9283 164.415L76.1103 156.459C74.8856 155.541 74.9877 154.215 75.6 153.297C76.2124 152.379 77.4371 151.767 78.6617 152.685L89.4798 160.641Z" fill="#F5FFF5"/>
<path d="M67.9458 148.299C67.3335 149.421 66.0067 150.033 64.7821 149.217L54.0661 142.383C53.2496 141.873 53.0455 141.159 53.0455 140.649C53.0455 139.833 53.5558 138.915 54.3723 138.507C55.0867 138.099 55.9031 138.099 56.6175 138.609L67.3335 145.443C68.5582 146.157 68.4561 147.483 67.9458 148.299Z" fill="#F5FFF5"/>
<path d="M11.7125 113.11C12.1207 112.804 12.7331 112.498 13.7537 112.804L25.0819 117.292C26.5107 117.904 26.7149 119.332 26.3066 120.352C26.2046 120.556 26.1025 120.76 26.0005 120.964C25.4902 121.678 24.6737 122.188 23.5511 121.678L12.2228 117.19C11.4063 116.884 10.9981 116.272 10.794 115.456C10.794 114.742 11.1002 113.722 11.7125 113.11Z" fill="#F5FFF5"/>
<path d="M53.5558 209.397C53.1475 210.417 52.229 211.233 50.9023 210.723L41.8192 206.949C41.0028 206.643 40.5945 206.031 40.3904 205.215C40.2884 204.297 40.5945 203.379 41.2069 202.767C41.6151 202.461 42.2275 202.155 43.146 202.563L52.3311 206.337C53.7599 206.847 53.964 208.275 53.5558 209.397Z" fill="#F5FFF5"/>
<path d="M44.7789 152.379L55.597 160.335C56.8216 161.253 56.7196 162.579 56.1072 163.497C55.4949 164.415 54.2702 165.027 53.0455 164.109L42.2275 156.153C41.0028 155.235 41.1049 153.909 41.7172 152.991C42.4316 152.073 43.5543 151.461 44.7789 152.379Z" fill="#F5FFF5"/>
<path d="M139.079 89.1398L148.673 98.9317C149.183 99.4417 149.387 100.054 149.285 100.768C149.183 100.972 149.081 101.278 148.979 101.482C148.673 101.992 148.162 102.4 147.55 102.604C147.04 102.706 146.121 102.808 145.305 101.992L135.711 92.1998C135.201 91.6898 134.997 91.0777 135.099 90.3637C135.303 89.5477 136.018 88.8338 136.834 88.6298C137.242 88.3238 138.263 88.2218 139.079 89.1398Z" fill="#F5FFF5"/>
<path d="M6.71176 43.7502C7.01793 43.3422 7.83438 42.7302 8.957 43.0362L20.4894 45.8922C21.2038 46.0962 21.7141 46.5042 21.8161 47.1162C22.0203 47.7282 21.8162 48.5442 21.4079 49.2581C21.3059 49.3601 21.2038 49.4621 21.2038 49.5641C20.8976 49.9721 20.0812 50.5841 18.9586 50.2781L7.42615 47.4222C6.71176 47.2182 6.20148 46.8102 6.09942 46.1982C5.79325 45.3822 6.09942 44.4642 6.71176 43.7502Z" fill="#F5FFF5"/>
<path d="M193.373 122.494C193.986 121.372 195.313 120.76 196.537 121.576L207.253 128.41C208.478 129.226 208.376 130.45 207.866 131.367C207.253 132.387 205.926 133.102 204.702 132.286L193.986 125.452C192.761 124.636 192.863 123.31 193.373 122.494Z" fill="#F5FFF5"/>
<path d="M37.9411 29.8783C38.3493 29.5723 38.9616 29.2663 39.8802 29.5723L53.3517 34.9783C54.1681 35.2843 54.5763 35.8963 54.7804 36.7123C54.8825 37.4263 54.6784 38.1403 54.3722 38.6503C54.2702 38.8543 54.066 38.9563 53.964 39.1603C53.5558 39.4663 52.9434 39.7723 52.0249 39.4663L38.5534 34.0603C37.737 33.7543 37.3287 33.1423 37.1246 32.3263C36.9205 31.4083 37.3287 30.3883 37.9411 29.8783Z" fill="#F5FFF5"/>
<path d="M170.819 132.082C171.329 131.368 172.248 130.858 173.064 130.96C173.574 131.062 174.289 131.266 174.697 132.286L178.269 140.446C178.677 141.262 178.473 142.077 178.167 142.587C177.861 142.995 177.555 143.301 177.146 143.505C176.126 144.015 174.901 143.811 174.289 142.383L170.717 134.224C170.411 133.51 170.411 132.796 170.819 132.082Z" fill="#F5FFF5"/>
<path d="M129.18 198.585C129.588 199.503 129.384 200.217 129.18 200.625C129.18 200.625 129.18 200.625 129.18 200.727C128.772 201.441 127.853 201.849 127.037 201.849C126.22 201.849 125.608 201.339 125.2 200.523L121.015 191.955C120.607 191.037 120.811 190.323 121.015 189.915C121.423 189.201 122.342 188.691 123.26 188.793C124.077 188.793 124.689 189.303 125.097 190.119L129.18 198.585Z" fill="#F5FFF5"/>
<path d="M82.5399 51.7062C82.1317 52.6242 81.3152 53.3382 79.9885 52.7262L67.2314 46.4022C65.8026 45.6882 65.5985 44.0562 66.1088 42.9342C66.517 42.0162 67.3335 41.3022 68.6602 41.9142L81.4173 48.2382C82.8461 48.9522 83.0502 50.5842 82.5399 51.7062Z" fill="#F5FFF5"/>
<path d="M38.5534 125.247L46.2077 129.939C47.4324 130.653 47.3303 131.877 46.9221 132.693C46.3097 133.815 44.983 134.529 43.6563 133.713L36.002 129.021C35.3897 128.613 34.9814 128.103 34.9814 127.389C34.9814 126.573 35.4917 125.655 36.3082 125.247C36.7164 125.043 37.5329 124.635 38.5534 125.247Z" fill="#F5FFF5"/>
<path d="M109.279 243.464C108.768 242.75 108.666 242.036 108.973 241.22C109.279 240.404 110.095 239.69 110.912 239.588C111.422 239.486 112.136 239.588 112.749 240.404L118.974 248.666C119.484 249.38 119.586 250.094 119.28 250.91C119.178 251.114 119.076 251.216 118.974 251.42C118.566 252.032 117.954 252.44 117.341 252.542C116.831 252.644 116.117 252.542 115.504 251.726L109.279 243.464Z" fill="#F5FFF5"/>
<path d="M104.584 200.523C103.87 199.299 104.482 198.279 105.299 197.769C106.319 197.157 107.85 197.157 108.666 198.585L114.075 208.071C114.484 208.785 114.484 209.397 114.177 210.009C114.177 210.111 114.075 210.111 114.075 210.111C113.667 210.723 112.851 211.131 112.034 211.131C111.524 211.131 110.605 211.029 109.993 209.907L104.584 200.523Z" fill="#F5FFF5"/>
<path d="M102.441 265.19C103.768 267.536 105.911 269.372 108.564 270.29C109.891 270.8 110.197 272.126 109.891 273.146C109.789 273.35 109.687 273.656 109.585 273.86C109.075 274.574 108.258 275.084 107.136 274.676C103.462 273.35 100.502 270.8 98.3587 267.026C97.6443 265.802 98.2566 264.782 99.0731 264.272C100.196 263.66 101.727 263.762 102.441 265.19Z" fill="#F5FFF5"/>
<path d="M65.7005 215.823C66.517 215.109 67.8437 214.803 68.8643 216.027L76.8247 225.615C77.5391 226.533 77.4371 227.553 77.0288 228.267C76.9268 228.471 76.7227 228.573 76.6206 228.777C75.8042 229.491 74.4774 229.797 73.4569 228.573L65.4964 218.985C64.5779 217.863 64.8841 216.537 65.7005 215.823Z" fill="#F5FFF5"/>
<path d="M10.1817 211.845C10.5899 210.927 11.4064 210.009 12.8352 210.621L25.3881 216.027C26.8169 216.639 27.0211 218.067 26.6128 219.291C26.2046 220.209 25.3882 221.127 23.9594 220.515L11.4064 215.109C9.97759 214.497 9.77348 212.967 10.1817 211.845Z" fill="#F5FFF5"/>
<path d="M119.28 221.331C120.097 220.515 121.526 220.311 122.546 221.433L129.18 229.083C129.996 230.001 129.894 230.919 129.384 231.735C129.282 231.939 129.18 232.041 128.976 232.143C128.159 232.959 126.73 233.163 125.71 232.041L119.076 224.391C118.158 223.269 118.566 222.045 119.28 221.331Z" fill="#F5FFF5"/>
<path d="M87.6427 183.795C88.255 182.877 89.4797 182.265 90.6024 183.183L98.4607 188.895C99.6854 189.813 99.5834 191.139 98.971 192.159C98.3587 193.077 97.134 193.689 96.0114 192.771L88.153 187.059C86.9283 186.141 87.0304 184.713 87.6427 183.795Z" fill="#F5FFF5"/>
<path d="M54.6784 186.345C55.2907 185.223 56.6175 184.509 57.9442 185.325L66.2108 190.425C66.8232 190.833 67.2314 191.445 67.2314 192.057C67.2314 192.873 66.7211 193.791 65.9046 194.199C65.4964 194.403 64.5779 194.811 63.6594 194.199L55.3928 189.099C54.1681 188.385 54.2702 187.161 54.6784 186.345Z" fill="#F5FFF5"/>
<path d="M131.221 208.887C131.935 208.275 133.16 208.071 133.976 209.295L140.406 218.577C141.12 219.597 140.814 220.515 140.61 220.923C140.508 221.025 140.508 221.229 140.406 221.331C139.998 221.943 139.385 222.351 138.671 222.453C138.059 222.555 137.446 222.249 136.936 221.535L130.507 212.253C129.69 211.131 130.2 209.601 131.221 208.887Z" fill="#F5FFF5"/>
<path d="M-11.8626 198.381C-11.3523 198.177 -10.842 198.177 -10.4338 198.381L-1.14665 203.277C-0.126081 203.787 0.690374 204.909 0.282147 206.337C0.180091 206.541 0.180094 206.643 0.0780373 206.847C-0.228133 207.255 -0.636358 207.561 -1.04459 207.765C-1.55487 207.969 -2.06515 207.969 -2.47338 207.765L-11.7605 202.869C-12.7811 202.359 -13.5976 201.237 -13.1893 199.809C-12.9852 199.197 -12.4749 198.687 -11.8626 198.381Z" fill="#F5FFF5"/>
<path d="M106.523 173.901L114.075 181.449C114.484 181.857 114.586 182.469 114.586 182.775C114.586 183.285 114.382 183.795 114.177 184.203C114.075 184.407 113.973 184.509 113.871 184.611C112.749 185.631 111.524 185.019 110.708 184.305L103.155 176.757C102.747 176.349 102.645 175.737 102.645 175.431C102.645 174.717 102.951 174.003 103.462 173.493C104.482 172.575 105.809 173.085 106.523 173.901Z" fill="#F5FFF5"/>
<path d="M81.1111 238.058C82.2337 237.854 83.5604 238.262 83.8666 239.792C84.7851 243.974 86.9283 247.646 90.2962 250.196C91.5208 251.114 91.4188 252.542 90.7044 253.46C90.7044 253.46 90.7044 253.562 90.6023 253.562C89.99 254.48 88.8674 254.99 87.7447 254.072C83.4584 250.706 80.6008 246.014 79.4781 240.608C79.172 239.18 80.0905 238.262 81.1111 238.058Z" fill="#F5FFF5"/>
<path d="M95.7052 226.023C94.7867 224.799 95.297 223.371 96.1134 222.657C96.9299 221.943 98.1546 221.841 99.0731 222.963L105.299 231.225C106.013 232.143 105.911 233.163 105.401 233.979C105.299 234.183 105.094 234.387 104.89 234.591C104.074 235.305 102.849 235.407 101.931 234.285L95.7052 226.023Z" fill="#F5FFF5"/>
<path d="M32.2259 173.493C32.328 172.575 32.9403 171.759 33.6547 171.453C34.2671 171.249 34.8794 171.351 35.4918 171.861L44.1666 179.103C45.0851 179.817 45.0851 180.837 44.983 181.347C44.881 181.755 44.7789 182.163 44.5748 182.469C44.2686 182.877 43.9625 183.183 43.5542 183.387C42.9419 183.591 42.3295 183.489 41.7172 182.979L33.0424 175.737C32.1239 174.921 32.1239 174.003 32.2259 173.493Z" fill="#F5FFF5"/>
<path d="M81.2132 177.267C81.3152 177.981 81.1111 178.593 80.805 179.103C80.7029 179.307 80.4988 179.511 80.2947 179.613C79.8864 179.919 79.2741 180.123 78.3556 179.817L68.0479 175.125C66.6191 174.513 66.415 172.983 66.8232 171.861C67.2314 170.943 68.0479 170.127 69.3746 170.739L79.6823 175.431C80.907 175.839 81.2132 176.757 81.2132 177.267Z" fill="#F5FFF5"/>
<path d="M-12.577 103.93C-12.3729 103.318 -11.8626 102.808 -11.2502 102.502C-10.74 102.298 -10.2297 102.298 -9.82145 102.502L-1.14663 106.888C-0.22812 107.398 0.690392 108.418 0.282166 109.948C0.180108 110.152 0.180112 110.254 0.0780544 110.458C-0.228115 110.866 -0.534284 111.172 -1.04457 111.376C-1.55485 111.58 -2.06514 111.58 -2.47336 111.376L-11.1482 106.99C-12.1688 106.378 -13.0873 105.358 -12.577 103.93Z" fill="#F5FFF5"/>
<path d="M5.28293 87.7118C5.89527 86.4878 7.32407 85.7738 8.65081 86.4878L19.1626 92.3017C19.775 92.6077 20.1832 93.2197 20.1832 93.8317C20.1832 94.3417 20.0812 94.7497 19.775 95.1577C19.5709 95.4637 19.2647 95.7697 18.9585 95.9737C18.5503 96.2797 17.6318 96.6877 16.5092 96.0757L5.99733 90.2617C4.8747 89.6497 4.87471 88.5278 5.28293 87.7118Z" fill="#F5FFF5"/>
<path d="M0.180104 180.837C1.40478 181.653 1.30273 182.877 0.792442 183.693C0.792442 183.795 0.690388 183.795 0.690388 183.897C0.0780468 184.917 -1.24869 185.427 -2.47337 184.713L-11.3523 179.103C-12.577 178.287 -12.4749 177.063 -11.9646 176.247C-11.3523 175.125 -10.0256 174.513 -8.69883 175.329L0.180104 180.837Z" fill="#F5FFF5"/>
<path d="M16.3051 191.547C17.1215 190.323 18.4483 190.425 19.4688 191.037L24.6737 193.893C25.082 194.097 25.3881 194.505 25.4902 195.117C25.6943 195.831 25.4902 196.647 25.184 197.157C24.3676 198.381 23.0408 198.279 22.0203 197.667L16.8154 194.811C16.4071 194.607 16.101 194.199 15.9989 193.587C15.7948 192.873 15.8969 192.057 16.3051 191.547Z" fill="#F5FFF5"/>
<path d="M2.42534 132.489C2.5274 133.203 2.42535 133.917 2.01712 134.427C1.91506 134.631 1.81301 134.733 1.60889 134.937C1.20067 135.243 0.588326 135.651 -0.432242 135.243L-14.0058 130.041C-15.4346 129.531 -15.6387 128.103 -15.2305 126.981C-14.8222 125.859 -13.9037 125.043 -12.4749 125.553L1.09861 130.755C1.81301 131.061 2.32328 131.673 2.42534 132.489Z" fill="#F5FFF5"/>
<path d="M85.3975 214.599L77.5391 206.133C76.5186 205.011 76.9268 203.889 77.6412 203.175C78.5597 202.257 79.9885 201.951 81.0091 203.175L88.8674 211.641C89.6839 212.559 89.5818 213.477 89.0716 214.191C88.9695 214.293 88.8674 214.497 88.7654 214.599C87.9489 215.415 86.4181 215.721 85.3975 214.599Z" fill="#F5FFF5"/>
<path d="M47.5345 228.165C47.1262 229.083 46.3098 229.899 44.881 229.287L35.1856 225.003C34.3692 224.697 33.9609 223.983 33.7568 223.167C33.6547 222.249 33.9609 221.331 34.6753 220.719C35.0836 220.413 35.6959 220.107 36.6144 220.515L46.3098 224.799C47.7386 225.513 48.0447 226.941 47.5345 228.165Z" fill="#F5FFF5"/>
<path d="M105.809 142.587C107.033 143.505 106.931 144.831 106.319 145.749C105.707 146.667 104.482 147.279 103.257 146.361L97.8484 142.383C96.6237 141.465 96.7257 140.139 97.3381 139.221C97.9504 138.303 99.1751 137.691 100.4 138.609L105.809 142.587Z" fill="#F5FFF5"/>
<path d="M146.223 164.415C145.509 163.191 146.121 162.171 146.836 161.763C147.856 161.151 149.489 161.151 150.204 162.579L155.612 172.065C156.021 172.779 156.021 173.391 155.715 174.003C155.715 174.105 155.612 174.105 155.612 174.207C155.204 174.819 154.388 175.227 153.571 175.227C153.061 175.227 152.143 175.125 151.53 174.003L146.223 164.415Z" fill="#F5FFF5"/>
<path d="M50.5961 111.07C50.9023 110.152 51.8208 109.336 53.2496 109.948L62.945 114.232C63.7614 114.538 64.1697 115.252 64.3738 116.068C64.4758 116.782 64.2717 117.394 63.9656 118.006C63.8635 118.21 63.6594 118.414 63.5573 118.516C63.1491 118.822 62.5368 119.128 61.6183 118.72L51.9229 114.436C50.4941 113.722 50.1879 112.192 50.5961 111.07Z" fill="#F5FFF5"/>
<path d="M27.6333 99.7476C28.0416 98.8296 28.858 98.1156 30.1847 98.7276L41.7172 104.338C43.1459 105.052 43.3501 106.684 42.8398 107.806C42.4316 108.724 41.6151 109.438 40.2884 108.826L28.756 103.216C27.3272 102.604 27.123 100.972 27.6333 99.7476Z" fill="#F5FFF5"/>
<path d="M88.6633 280.082C89.2756 279.164 90.5003 278.552 91.725 279.47L102.033 287.018C103.257 287.936 103.155 289.262 102.543 290.18C101.931 291.098 100.706 291.71 99.4813 290.792L89.1736 283.244C87.9489 282.326 88.0509 281 88.6633 280.082Z" fill="#F5FFF5"/>
<path d="M58.8627 236.732L64.0676 242.444C64.5779 243.056 64.782 243.668 64.5779 244.382C64.4759 244.586 64.3738 244.79 64.2718 244.994C63.9656 245.504 63.3532 245.912 62.7409 246.116C62.2306 246.218 61.4142 246.32 60.5977 245.402L55.3928 239.69C54.8825 239.078 54.6784 238.466 54.8825 237.752C55.0867 236.936 55.801 236.223 56.7195 236.019C57.1278 235.917 58.0463 235.916 58.8627 236.732Z" fill="#F5FFF5"/>
<path d="M70.3951 258.356C71.2116 258.05 72.4363 258.152 72.9465 259.58C74.1712 262.946 76.1103 265.496 78.9679 267.434C79.7843 267.944 79.9884 268.76 79.9884 269.27C79.9884 269.678 79.7843 270.188 79.5802 270.596C79.3761 270.902 79.0699 271.208 78.6617 271.412C77.9473 271.82 77.2329 271.718 76.5185 271.31C73.0486 268.964 70.4972 265.7 68.9663 261.722C68.456 260.09 69.2725 258.866 70.3951 258.356Z" fill="#F5FFF5"/>
<path d="M15.0804 66.088L26.6128 71.698C27.7354 72.208 27.9396 73.126 27.9396 73.7379C28.0416 74.6559 27.6334 75.5739 27.0211 76.0839C26.5108 76.4919 25.8984 76.4919 25.184 76.186L13.6516 70.576C12.529 70.066 12.3249 69.046 12.3249 68.536C12.2228 67.618 12.6311 66.7 13.2434 66.1901C13.7537 65.7821 14.366 65.68 15.0804 66.088Z" fill="#F5FFF5"/>
<path d="M5.48706 64.15C5.28294 65.068 4.6706 65.986 3.34387 65.68L-9.2091 63.028C-10.4338 62.824 -10.842 61.906 -11.0461 61.396C-11.3523 60.478 -11.1482 59.458 -10.74 58.846C-10.3317 58.336 -9.71939 58.234 -9.00499 58.336L3.54799 60.988C5.07884 61.294 5.69117 62.824 5.48706 64.15Z" fill="#F5FFF5"/>
<path d="M-12.9852 80.1639C-12.679 79.0419 -11.6584 78.0219 -10.1276 78.5319L-0.636316 81.6939C0.282194 81.9999 0.690423 82.7138 0.79248 83.2238C0.894536 83.9378 0.792478 84.6518 0.384251 85.2638C0.282194 85.4678 0.180143 85.5698 -0.0239697 85.6718C-0.63631 86.1818 -1.35071 86.3859 -2.16717 86.0799L-11.6584 82.9179C-12.9852 82.5099 -13.2913 81.2859 -12.9852 80.1639Z" fill="#F5FFF5"/>
<path d="M9.87549 23.7583C10.2837 23.4523 10.8961 23.1463 11.8146 23.5543C15.9989 25.2883 20.3873 25.7983 24.7758 25.1863C26.3066 24.9823 27.1231 26.1043 27.3272 27.2263C27.5313 28.3483 27.021 29.5723 25.5922 29.7763C20.3873 30.5923 15.2845 29.9803 10.3858 28.0423C9.56932 27.7363 9.16109 27.1243 8.95697 26.3083C8.85492 25.1863 9.26315 24.2683 9.87549 23.7583Z" fill="#F5FFF5"/>
<path d="M48.555 13.8644C49.1673 13.2524 49.8817 13.0484 50.6982 13.3544L57.3319 15.3944C58.7607 15.8024 58.9648 17.1284 58.6586 18.0464C58.3524 19.2704 57.2298 20.1884 55.801 19.7804L49.0653 17.7404C48.1468 17.4344 47.8406 16.8224 47.6365 16.3124C47.6365 15.4964 47.9426 14.4764 48.555 13.8644Z" fill="#F5FFF5"/>
<path d="M0.0780592 22.1266C0.6904 22.5346 1.09863 23.0446 1.09863 23.7586C1.09863 24.2685 0.996569 24.6765 0.690398 25.0845C0.486284 25.3905 0.180111 25.6966 -0.126059 25.9006C-0.534286 26.2066 -1.45279 26.5126 -2.47336 25.9006L-9.51527 21.7186C-10.74 21.0046 -10.6379 19.7806 -10.2297 18.9646C-9.61733 17.8426 -8.29059 17.1286 -6.96386 17.9446L0.0780592 22.1266Z" fill="#F5FFF5"/>
<path d="M5.18087 158.397C5.79321 157.377 7.11995 156.765 8.34463 157.581L21.4079 166.251C22.2243 166.761 22.4285 167.475 22.4285 167.985C22.4285 168.393 22.2243 168.903 22.0202 169.311C21.8161 169.617 21.5099 169.923 21.1017 170.127C20.3873 170.535 19.5709 170.433 18.8565 170.025L5.79321 161.355C4.46647 160.539 4.67059 159.213 5.18087 158.397Z" fill="#F5FFF5"/>
<path d="M146.223 198.177C146.632 197.361 147.346 196.749 148.162 196.647C148.775 196.545 149.387 196.953 149.795 197.565L155.612 206.439C156.225 207.459 156.123 208.479 155.612 209.295C155.408 209.601 155.204 209.805 154.898 210.009C154.082 210.519 153.061 210.723 152.245 209.499L146.427 200.625C145.713 199.503 146.019 198.585 146.223 198.177Z" fill="#F5FFF5"/>
<path d="M52.5352 62.0082C52.9434 60.9882 53.8619 60.1722 55.1887 60.6822L66.517 65.1702C67.9458 65.7822 68.1499 67.2102 67.7417 68.2302C67.6396 68.4342 67.5375 68.6381 67.4355 68.8421C67.2314 69.1481 67.0273 69.3521 66.7211 69.5561C66.2108 69.8621 65.5985 69.8621 64.9861 69.6581L53.6578 65.1702C52.4331 64.5582 52.127 63.1302 52.5352 62.0082Z" fill="#F5FFF5"/>
<path d="M103.257 60.988C104.482 61.906 104.38 63.232 103.768 64.15C103.155 65.068 101.931 65.6799 100.706 64.762L92.2353 58.54C91.0106 57.622 91.1126 56.296 91.725 55.378C92.3373 54.46 93.562 53.8481 94.7867 54.7661L103.257 60.988Z" fill="#F5FFF5"/>
<path d="M139.488 61.294L146.529 68.332C146.938 68.74 147.04 69.352 147.04 69.76C147.04 70.27 146.836 70.78 146.632 71.1879C146.529 71.3919 146.427 71.494 146.325 71.596C145.203 72.616 143.978 72.004 143.162 71.29L136.12 64.252C135.711 63.844 135.609 63.232 135.609 62.824C135.609 62.11 135.916 61.396 136.426 60.988C137.446 59.9681 138.773 60.58 139.488 61.294Z" fill="#F5FFF5"/>
<path d="M106.421 41.6083C106.421 42.1183 106.319 42.5263 106.013 42.9343C105.809 43.2403 105.503 43.5463 105.196 43.7503C104.788 44.0563 103.87 44.4643 102.747 43.8523L92.2353 38.0383C91.0106 37.4263 91.0106 36.3043 91.4188 35.4884C92.0312 34.2644 93.46 33.5504 94.7867 34.2643L105.299 40.0783C106.115 40.3843 106.421 40.8943 106.421 41.6083Z" fill="#F5FFF5"/>
<path d="M90.8065 81.1839C91.6229 81.6939 91.8271 82.4079 91.8271 82.9179C91.8271 83.3259 91.6229 83.8359 91.4188 84.2439C91.2147 84.5499 90.9085 84.856 90.5003 85.06C89.7859 85.4679 88.9695 85.4679 88.2551 84.9579L77.6412 78.022C76.4165 77.206 76.5185 75.88 77.0288 75.064C77.6412 74.044 78.9679 73.33 80.1926 74.146L90.8065 81.1839Z" fill="#F5FFF5"/>
<path d="M44.4728 57.6221C44.3707 57.8261 44.3707 57.9281 44.2686 58.1321C43.9625 58.5401 43.5543 58.8461 43.146 59.0501C42.6358 59.2541 42.1255 59.2541 41.7172 59.0501L32.4301 54.1541C31.4095 53.6441 30.593 52.5221 31.0013 51.0941C31.2054 50.4822 31.7157 49.9722 32.328 49.6662C32.8383 49.4622 33.3486 49.4622 33.7568 49.6662L43.044 54.5621C44.0645 55.1741 44.983 56.1941 44.4728 57.6221Z" fill="#F5FFF5"/>
<path d="M68.4561 23.0443C68.8643 21.9223 69.7828 21.1064 71.2116 21.6164L84.7851 26.8183C85.3975 27.0223 85.9078 27.5323 86.1119 28.0423C86.316 28.5523 86.316 29.1643 86.1119 29.7763C86.0098 29.9803 85.9078 30.1843 85.8057 30.3883C85.6016 30.6943 85.3975 30.8983 85.0913 31.1023C84.581 31.4083 83.9687 31.4082 83.3563 31.2043L69.7828 26.0023C68.2519 25.5943 68.0478 24.1663 68.4561 23.0443Z" fill="#F5FFF5"/>
<path d="M128.772 80.572C129.996 81.49 129.894 82.8159 129.282 83.7339C128.67 84.6519 127.445 85.2639 126.22 84.346L113.565 75.064C112.34 74.146 112.443 72.82 113.055 71.9021C113.667 70.9841 114.892 70.3721 116.117 71.2901L128.772 80.572Z" fill="#F5FFF5"/>
<path d="M-3.39188 2.84869C-3.49393 1.9307 -3.18776 1.01275 -2.47336 0.400754C-2.06514 0.0947561 -1.45279 -0.211253 -0.534284 0.196743L8.54876 4.0727C9.36521 4.37869 9.77344 4.99068 9.97755 5.90867C10.0796 6.82666 9.77344 7.74468 9.05904 8.35667C8.65082 8.66267 8.03848 8.96868 7.11997 8.56068L-1.96308 4.68467C-2.77953 4.37867 -3.28982 3.66469 -3.39188 2.84869Z" fill="#F5FFF5"/>
<path d="M173.677 113.008C174.085 111.988 175.003 111.172 176.33 111.682L187.658 116.17C189.087 116.782 189.291 118.21 188.883 119.23C188.781 119.434 188.679 119.638 188.577 119.842C188.373 120.148 188.169 120.352 187.862 120.556C187.352 120.862 186.74 120.862 186.127 120.658L174.799 116.17C173.575 115.558 173.268 114.13 173.677 113.008Z" fill="#F5FFF5"/>
<path d="M14.9784 137.997L29.1642 143.709C29.9807 144.015 30.3889 144.627 30.593 145.443C30.6951 146.157 30.491 146.871 30.1848 147.381C30.0827 147.585 29.8786 147.687 29.7766 147.891C29.3684 148.197 28.756 148.503 27.8375 148.197L13.6516 142.485C12.8352 142.179 12.4269 141.567 12.2228 140.751C12.1208 139.833 12.4269 138.915 13.0393 138.303C13.4475 137.997 14.0598 137.691 14.9784 137.997Z" fill="#F5FFF5"/>
<path d="M35.2876 12.9467C34.9814 14.1707 33.8588 15.1906 32.43 14.7827L21.9182 11.7227C21.2038 11.5187 20.6935 11.0087 20.4894 10.3967C20.2853 9.58071 20.5914 8.56069 21.2038 7.9487C21.5099 7.5407 22.3264 7.03073 23.449 7.33673L33.9609 10.2947C35.2876 10.8047 35.4917 12.0287 35.2876 12.9467Z" fill="#F5FFF5"/>
<path d="M217.153 111.783C217.357 112.599 217.051 113.62 216.438 114.231C215.826 114.843 215.112 115.047 214.295 114.741L200.926 110.56C199.497 110.152 199.293 108.826 199.599 107.908C199.905 106.684 201.028 105.766 202.457 106.174L215.826 110.356C216.642 110.662 217.051 111.274 217.153 111.783Z" fill="#F5FFF5"/>
<path d="M35.1856 77.5121C35.5938 76.4921 36.5123 75.6761 37.839 76.1861L54.8825 83.02C55.4949 83.224 56.0051 83.734 56.2092 84.346C56.4134 84.856 56.4134 85.57 56.2092 86.08C56.1072 86.284 56.0051 86.488 55.9031 86.692C55.699 86.998 55.4949 87.202 55.1887 87.406C54.6784 87.712 54.0661 87.712 53.4537 87.508L36.5123 80.674C35.0835 80.062 34.8794 78.6341 35.1856 77.5121Z" fill="#F5FFF5"/>
<path d="M134.385 121.168C134.997 119.944 136.426 119.23 137.753 119.944C143.672 123.207 148.673 127.797 152.653 133.611C153.265 134.529 153.163 135.651 152.653 136.467C152.449 136.773 152.245 136.977 152.041 137.181C151.326 137.691 150.101 137.997 149.285 136.773C145.509 131.265 140.916 127.083 135.201 123.82C133.976 123.106 133.976 121.983 134.385 121.168Z" fill="#F5FFF5"/>
<path d="M120.709 100.87L129.486 109.234C130.507 110.254 130.507 111.682 129.792 112.702C129.69 112.804 129.69 112.906 129.588 113.008C128.976 113.722 128.057 114.13 127.037 113.11L118.26 104.746C117.137 103.624 117.341 101.992 118.158 100.972C118.668 100.36 119.689 99.9519 120.709 100.87Z" fill="#F5FFF5"/>
<path d="M80.907 98.8299C81.009 99.5439 80.8049 100.258 80.4988 100.768C80.3967 100.972 80.1926 101.074 80.0905 101.278C79.6823 101.584 79.07 101.89 78.1514 101.482C73.0486 99.3398 68.354 96.4838 64.3738 92.9139C63.4553 92.0979 63.4553 91.0779 63.5573 90.5679C63.7615 89.6499 64.2717 88.8339 65.0882 88.5279C65.7005 88.3239 66.3129 88.426 66.8232 88.9359C70.8034 92.5059 74.9877 95.1579 79.5802 96.9938C80.2946 97.4018 80.8049 98.0139 80.907 98.8299Z" fill="#F5FFF5"/>
<path d="M197.456 144.423C197.047 145.341 196.231 146.259 194.802 145.647L188.577 142.893C187.148 142.281 186.944 140.853 187.352 139.629C187.76 138.711 188.577 137.793 190.006 138.405L196.231 141.057C197.66 141.771 197.966 143.301 197.456 144.423Z" fill="#F5FFF5"/>
<path d="M89.2756 133.306C89.1736 134.224 88.4592 135.244 87.0304 135.04C81.8255 134.122 77.335 131.674 73.661 127.594C72.6404 126.472 73.0486 125.35 73.763 124.636C74.6815 123.718 76.1103 123.514 77.1309 124.636C79.8864 127.696 83.4584 129.634 87.3366 130.348C88.8674 130.654 89.4798 132.082 89.2756 133.306Z" fill="#F5FFF5"/>
<path d="M187.658 102.298C187.556 102.502 187.454 102.706 187.352 102.91C186.842 103.624 186.025 104.134 184.903 103.624L173.574 99.0337C172.146 98.4217 171.942 96.9937 172.35 95.8717C172.758 94.8518 173.677 94.0358 175.003 94.5458L186.332 99.1357C187.862 99.7477 188.067 101.176 187.658 102.298Z" fill="#F5FFF5"/>
<path d="M156.633 79.7559C157.96 82.2039 160.001 84.0398 162.756 84.9578C163.675 85.2638 164.083 85.9778 164.185 86.4878C164.287 87.2018 164.185 87.9158 163.777 88.5278C163.675 88.7318 163.573 88.8338 163.369 88.9358C162.756 89.4458 162.042 89.6498 161.328 89.3438C157.654 88.0178 154.592 85.3658 152.653 81.5919C152.143 80.6739 152.347 79.9599 152.653 79.5519C153.061 78.8379 153.98 78.3279 154.796 78.4299C155.204 78.4299 156.123 78.6339 156.633 79.7559Z" fill="#F5FFF5"/>
<path d="M128.465 57.4181C128.159 58.6421 127.037 59.7641 125.506 59.4581C121.423 58.4381 117.749 56.3982 114.586 53.4402C113.463 52.3182 113.667 50.6862 114.484 49.6662C115.096 48.9522 116.014 48.5442 117.035 49.5642C119.995 52.3181 123.261 54.1541 127.037 55.0721C128.363 55.3781 128.67 56.5001 128.465 57.4181Z" fill="#F5FFF5"/>
<path d="M113.565 93.6279C113.871 94.5459 113.769 95.5659 113.259 96.1778C112.851 96.6878 112.238 96.7898 111.524 96.6878C107.646 95.8719 104.38 94.2399 101.727 91.7919C100.91 91.0779 100.298 89.7519 101.114 88.5279C101.42 88.0179 102.135 87.6099 102.747 87.5079C103.257 87.4059 103.768 87.61 104.176 87.9159C106.523 90.0579 109.075 91.4859 111.728 91.9959C112.953 92.1999 113.463 93.1179 113.565 93.6279Z" fill="#F5FFF5"/>
<path d="M92.6435 105.562L102.645 111.988C103.462 112.498 103.666 113.212 103.666 113.722C103.666 114.13 103.462 114.64 103.257 115.048C103.053 115.354 102.747 115.66 102.339 115.864C101.625 116.272 100.808 116.272 100.094 115.762L90.0921 109.336C89.2756 108.826 89.0715 108.112 89.0715 107.602C89.0715 106.786 89.5818 105.868 90.3983 105.46C91.1127 105.052 91.9291 105.052 92.6435 105.562Z" fill="#F5FFF5"/>
<path d="M133.976 175.023C133.568 174.309 133.568 173.697 133.874 173.085C134.283 172.371 135.099 171.861 136.018 171.861C136.528 171.861 137.446 172.065 138.059 173.085L144.182 184.101C144.692 184.917 144.59 185.631 144.182 186.141C143.978 186.447 143.774 186.651 143.468 186.855C142.447 187.467 140.916 187.365 140.1 186.039L133.976 175.023Z" fill="#F5FFF5"/>
<path d="M126.118 163.089C126.628 163.599 126.832 164.211 126.73 164.823C126.628 165.027 126.526 165.333 126.424 165.537C126.118 166.047 125.608 166.455 124.995 166.557C124.485 166.659 123.567 166.863 122.648 165.945L112.442 155.643C111.932 155.133 111.728 154.521 111.83 153.909C112.034 153.093 112.749 152.379 113.565 152.175C114.075 152.073 114.994 151.869 115.912 152.787L126.118 163.089Z" fill="#F5FFF5"/>
<path d="M124.791 134.019C124.791 134.019 124.791 134.121 124.689 134.121C124.077 134.937 123.056 135.549 121.832 134.529L109.585 124.635C108.36 123.718 108.564 122.187 109.177 121.168C109.789 120.352 110.81 119.74 112.034 120.76L124.281 130.653C125.506 131.673 125.404 132.999 124.791 134.019Z" fill="#F5FFF5"/>
<path d="M156.021 146.973C155.408 145.545 156.123 144.423 157.041 144.015C158.062 143.505 159.389 143.607 160.001 145.035L165.104 156.255C165.512 157.173 165.308 157.989 165.002 158.397C164.491 159.111 163.675 159.519 162.756 159.519C162.246 159.519 161.532 159.213 161.022 158.193L156.021 146.973Z" fill="#F5FFF5"/>
<path d="M158.164 179.919C158.776 180.021 159.184 180.531 159.389 181.245C160.613 185.325 162.961 188.385 166.328 190.527C167.145 191.037 167.349 191.751 167.349 192.261C167.349 192.669 167.145 193.179 166.941 193.587C166.737 193.893 166.431 194.199 166.022 194.403C165.614 194.607 164.798 194.913 163.777 194.301C159.797 191.751 156.837 187.875 155.408 183.285C155 182.061 155.51 181.245 155.919 180.837C156.531 180.021 157.449 179.715 158.164 179.919Z" fill="#F5FFF5"/>
<path d="M165.614 123.412C164.798 124.126 163.471 124.33 162.654 123.106L154.49 112.396C153.571 111.172 154.082 109.846 154.898 109.132C155.715 108.418 157.041 108.214 157.858 109.438L166.022 120.148C166.737 121.066 166.635 122.086 166.124 122.902C166.022 123.004 165.818 123.208 165.614 123.412Z" fill="#F5FFF5"/>
<path d="M138.569 154.215L130.2 142.485C129.282 141.261 129.792 139.833 130.711 139.017C131.425 138.405 132.65 138.201 133.568 139.425L141.937 151.155C142.651 152.073 142.549 153.195 142.039 153.909C141.835 154.113 141.631 154.419 141.427 154.521C140.61 155.235 139.488 155.439 138.569 154.215Z" fill="#F5FFF5"/>
<path d="M185.311 164.109C186.025 165.027 185.923 166.047 185.413 166.863C185.311 167.067 185.107 167.271 184.903 167.475C184.086 168.189 182.862 168.291 181.943 167.169C178.984 163.191 177.044 158.703 176.126 153.807C176.024 153.093 176.126 152.481 176.534 152.073C176.84 151.665 177.351 151.359 177.963 151.257C178.984 151.053 180.31 151.563 180.514 153.093C181.229 157.071 182.862 160.845 185.311 164.109Z" fill="#F5FFF5"/>
<path d="M168.88 171.759C169.39 171.045 170.309 170.637 171.125 170.739C171.635 170.841 172.248 171.045 172.656 172.065C174.085 175.533 176.228 178.287 179.29 180.327C180.514 181.143 180.412 182.469 179.902 183.285C179.902 183.285 179.902 183.387 179.8 183.387C179.188 184.407 177.963 184.917 176.738 184.101C173.064 181.653 170.309 178.185 168.574 174.003C168.37 173.289 168.37 172.473 168.88 171.759Z" fill="#F5FFF5"/>
</g>
</svg>
