<svg width="341" height="487" viewBox="0 0 341 487" fill="none" xmlns="http://www.w3.org/2000/svg">
<path d="M284.783 302.917C284.64 303.777 285.092 304.627 285.785 305.263L301.001 316.874C301.922 317.524 302.796 317.439 303.265 317.239C304.013 316.964 304.509 316.309 304.829 315.551C304.931 315.374 304.944 315.147 304.958 314.919C305.101 314.059 304.649 313.209 303.955 312.573L288.74 300.962C287.819 300.312 286.945 300.397 286.476 300.597C285.538 300.998 284.888 301.918 284.783 302.917Z" fill="#4B9F9C"/>
<path d="M332.162 166.56C333.518 166.048 334.562 164.648 333.974 163.013L327.931 146.333C327.38 144.837 326.065 144.667 325.038 145.016C323.682 145.528 322.638 146.928 323.226 148.563L329.269 165.243C329.82 166.739 331.135 166.91 332.162 166.56Z" fill="#4B9F9C"/>
<path d="M295.397 253.101C296.501 252.207 297.141 250.692 296.084 249.257L286.406 236.014C285.726 235.151 284.917 234.919 284.36 235.068C283.486 235.153 282.483 235.869 282.061 236.804C281.691 237.65 281.776 238.523 282.367 239.336L292.045 252.579C293.102 254.014 294.445 253.729 295.397 253.101Z" fill="#4B9F9C"/>
<path d="M246.111 243.961L254.687 260.337C255.139 261.187 255.883 261.734 256.845 261.701C257.896 261.719 258.885 261.23 259.344 260.435C259.65 259.905 259.919 259.235 259.341 258.195L250.816 241.731C250.038 240.222 248.355 240.075 247.175 240.689C246.084 241.355 245.37 242.591 246.111 243.961Z" fill="#4B9F9C"/>
<path d="M320.179 292.025C320.19 292.619 320.377 293.316 321.298 293.966L335.184 302.572C336.068 303.082 336.979 303.137 337.829 302.686C338.73 302.146 339.379 301.225 339.434 300.315C339.424 299.72 339.237 299.023 338.315 298.373L324.429 289.767C323.545 289.257 322.634 289.202 321.784 289.653C320.795 290.142 320.146 291.063 320.179 292.025Z" fill="#4B9F9C"/>
<path d="M336.693 130.545C335.714 131.628 335.465 133.487 336.764 134.708L347.682 144.781C348.287 145.366 349.008 145.546 349.617 145.309C350.314 145.122 350.949 144.429 351.32 143.583C351.371 143.495 351.385 143.267 351.436 143.179C351.565 142.547 351.633 141.408 350.637 140.48L339.718 130.407C338.546 129.377 337.38 129.763 336.693 130.545Z" fill="#4B9F9C"/>
<path d="M288.114 347.359C287.414 348.368 287.23 349.911 288.631 350.955L302.082 360.723C303.482 361.767 304.801 361.116 305.59 360.158C305.743 359.893 305.896 359.628 305.998 359.451C306.331 358.466 306.26 357.364 305.074 356.562L291.623 346.794C290.222 345.749 288.815 346.35 288.114 347.359Z" fill="#4B9F9C"/>
<path d="M216.459 264.295C215.684 265.025 215.146 266.364 216.357 267.534L226.891 278.68C227.836 279.697 228.849 279.575 229.406 279.426C230.382 279.165 231.245 278.486 231.579 277.5C231.745 277.007 231.749 276.185 230.93 275.359L220.395 264.212C219.097 262.991 217.526 263.263 216.459 264.295Z" fill="#4B9F9C"/>
<path d="M256.791 310.783C257.477 310.002 257.913 308.84 256.74 307.809L242.293 294.051C241.297 293.122 240.195 293.193 239.587 293.43C238.611 293.692 237.785 294.51 237.554 295.319C237.374 296.039 237.611 296.648 238.216 297.233L252.663 310.991C253.962 312.212 255.811 311.867 256.791 310.783Z" fill="#4B9F9C"/>
<path d="M162.08 487.89C163.382 488.288 164.194 487.697 164.626 487.358C164.919 487.055 165.262 486.665 165.429 486.172C165.595 485.679 165.673 485.136 165.524 484.578C165.374 484.021 165.048 483.361 163.923 483.065L146.402 477.896C145.1 477.498 144.288 478.088 143.856 478.428C143.081 479.158 142.696 480.232 143.009 481.119C143.159 481.677 143.485 482.336 144.61 482.633L162.08 487.89Z" fill="#4B9F9C"/>
<path d="M210.411 396.013C209.551 395.87 208.803 396.145 208.358 396.712C207.81 397.456 207.654 398.543 208.004 399.57C208.204 400.039 208.745 400.94 210.098 401.25L227.313 403.887C228.717 404.109 229.404 403.327 229.774 402.481C229.876 402.305 229.89 402.077 229.852 401.937C230.074 400.534 229.346 398.936 227.575 398.738L210.411 396.013Z" fill="#4B9F9C"/>
<path d="M139.978 374.311C139.543 375.473 139.815 377.043 141.382 377.595L154.222 382.299C155.789 382.85 157.033 381.92 157.468 380.758C157.903 379.596 157.632 378.025 156.064 377.474L143.225 372.77C141.658 372.218 140.413 373.149 139.978 374.311Z" fill="#4B9F9C"/>
<path d="M110.905 464.469C110.395 465.352 110.314 466.718 111.728 467.534L123.799 474.386C125.39 475.304 126.95 474.439 127.664 473.202C128.174 472.319 128.256 470.952 126.842 470.136L114.771 463.285C113.18 462.366 111.619 463.232 110.905 464.469Z" fill="#4B9F9C"/>
<path d="M286.468 398.585C289.899 395.501 293.893 393.685 298.415 392.997C299.428 392.876 300.013 392.271 300.281 391.602C300.397 391.197 300.475 390.653 300.363 390.235C300.166 388.944 299.146 387.648 297.436 387.957C292.129 388.78 287.146 391.084 283.093 394.634C281.835 395.792 282.107 397.362 282.963 398.328C283.82 399.293 285.211 399.743 286.468 398.585Z" fill="#4B9F9C"/>
<path d="M191.703 396.166C193.005 396.564 193.818 395.973 194.301 395.545C194.593 395.243 194.848 394.801 195.103 394.359C195.27 393.867 195.348 393.323 195.198 392.766C195.063 391.98 194.406 391.484 193.597 391.252L178.276 386.764C176.569 386.25 175.312 387.408 174.914 388.71C174.669 389.746 174.815 391.126 176.433 391.589L191.703 396.166Z" fill="#4B9F9C"/>
<path d="M296.118 460.454C294.888 461.157 294.731 462.244 294.741 462.839C294.724 463.889 295.302 464.929 296.098 465.389C296.716 465.746 297.451 465.699 298.25 465.336L313.64 456.437C314.35 456.022 314.656 455.492 314.823 455C314.939 454.595 315.003 454.279 315.017 454.052C315.034 453.001 314.456 451.961 313.661 451.502C313.042 451.145 312.308 451.192 311.509 451.555L296.118 460.454Z" fill="#4B9F9C"/>
<path d="M159.903 331.636C158.169 331.578 157.264 332.94 157.183 334.306C157.115 335.445 157.679 336.712 159.413 336.771L173.789 337.18C174.751 337.147 175.55 336.784 176.009 335.989C176.111 335.812 176.213 335.635 176.315 335.459C176.635 334.701 176.55 333.828 176.223 333.168C175.934 332.648 175.418 332.114 174.279 332.045L159.903 331.636Z" fill="#4B9F9C"/>
<path d="M194.795 332.23C193.061 332.171 192.208 333.445 192.038 334.761C191.919 335.987 192.66 337.357 194.305 337.365L206.149 338.079C207.516 338.161 208.342 337.343 208.624 336.445C208.689 336.129 208.842 335.864 208.767 335.586C208.886 334.359 208.145 332.989 206.5 332.981L194.795 332.23Z" fill="#4B9F9C"/>
<path d="M163.059 348.417C161.706 348.107 160.792 348.874 160.309 349.302C159.622 350.083 159.327 351.208 159.602 351.956C159.789 352.653 160.356 353.098 161.216 353.242L178.047 356.952C179.4 357.262 180.315 356.495 180.798 356.067C181.09 355.764 181.294 355.411 181.41 355.007C181.627 354.426 181.705 353.882 181.505 353.413C181.318 352.716 180.75 352.27 179.89 352.127L163.059 348.417Z" fill="#4B9F9C"/>
<path d="M198.829 354.228C197.197 353.993 196.446 355.09 196.201 356.126C195.98 357.53 196.707 359.128 198.427 359.414L216.716 362.435C218.12 362.657 218.896 361.927 219.178 361.03C219.28 360.853 219.242 360.714 219.344 360.537C219.565 359.134 218.838 357.536 217.118 357.25L198.829 354.228Z" fill="#4B9F9C"/>
<path d="M100.713 429.257C100.723 429.852 100.859 430.637 101.78 431.287L113.518 439.124C114.97 440.079 116.428 439.39 117.18 438.293C117.88 437.284 117.924 435.778 116.561 434.874L104.823 427.037C104.079 426.489 103.167 426.434 102.317 426.886C101.379 427.286 100.767 428.346 100.713 429.257Z" fill="#4B9F9C"/>
<path d="M223.81 337.086C223.565 338.122 223.711 339.502 225.329 339.965L238.502 343.684C240.12 344.147 241.415 343.128 241.762 341.915C241.813 341.827 241.813 341.827 241.864 341.739C242.109 340.702 241.963 339.322 240.345 338.859L227.172 335.141C225.516 334.538 224.207 335.785 223.81 337.086Z" fill="#4B9F9C"/>
<path d="M228.674 429.289C226.89 429.318 225.883 430.857 225.89 432.274C225.873 433.324 226.488 434.504 228.184 434.423L244.019 434.144C245.349 434.087 246.175 433.268 246.596 432.334C246.712 431.929 246.777 431.613 246.804 431.158C246.821 430.108 246.206 428.928 244.56 428.92L228.674 429.289Z" fill="#4B9F9C"/>
<path d="M198.862 499.703C199.154 499.401 199.409 498.96 199.664 498.518C199.831 498.025 199.909 497.481 199.76 496.924C199.573 496.227 198.968 495.642 198.159 495.411L182.786 491.011C181.484 490.613 180.672 491.204 180.189 491.631C179.414 492.362 179.118 493.487 179.342 494.323C179.529 495.02 180.134 495.604 180.943 495.836L196.316 500.236C197.618 500.634 198.43 500.043 198.862 499.703Z" fill="#4B9F9C"/>
<path d="M139.907 409.133C139.095 409.723 138.711 410.797 138.833 411.81C139.006 412.734 139.509 413.496 140.356 413.867L158.233 421.48C159.256 421.953 160.055 421.589 160.487 421.25C160.919 420.91 161.174 420.469 161.341 419.976C161.507 419.483 161.534 419.028 161.562 418.572C161.388 417.648 160.885 416.886 160.039 416.515L142.161 408.903C141.087 408.518 140.428 408.844 139.907 409.133Z" fill="#4B9F9C"/>
<path d="M184.158 420.665C183.383 421.395 183.087 422.52 183.311 423.356C183.498 424.053 184.103 424.638 184.913 424.87L201.359 429.654C202.661 430.052 203.474 429.461 203.956 429.033C204.249 428.731 204.504 428.289 204.759 427.848C204.925 427.355 205.004 426.811 204.854 426.254C204.667 425.557 204.062 424.972 203.253 424.741L186.806 419.956C185.453 419.646 184.553 420.186 184.158 420.665Z" fill="#4B9F9C"/>
<path d="M263.601 469.829C261.867 469.771 260.963 471.133 260.932 472.411C260.902 473.689 261.605 474.919 263.2 475.015C269.628 475.311 275.785 474.037 281.53 471.23C282.19 470.904 282.584 470.425 282.802 469.844C283.07 469.174 282.934 468.389 282.608 467.73C282.081 466.601 280.806 465.747 279.297 466.525C274.351 468.969 269.119 470.07 263.601 469.829Z" fill="#4B9F9C"/>
<path d="M220.05 466.474C218.367 466.327 217.477 467.462 217.358 468.689C217.188 470.004 217.877 471.462 219.649 471.66L239.461 473.676C240.6 473.745 241.222 473.28 241.616 472.801C241.718 472.624 241.871 472.359 241.973 472.183C242.242 471.513 242.245 470.691 241.919 470.031C241.555 469.232 240.811 468.685 239.9 468.63L220.05 466.474Z" fill="#4B9F9C"/>
<path d="M242.709 360.483C240.925 360.512 239.969 361.963 239.976 363.38C239.959 364.43 240.523 365.698 242.169 365.706L259.078 365.811C260.407 365.753 261.094 364.972 261.349 364.531C261.451 364.354 261.553 364.177 261.604 364.089C261.923 363.331 261.838 362.458 261.424 361.747C261.097 361.088 260.39 360.679 259.516 360.764L242.709 360.483Z" fill="#4B9F9C"/>
<path d="M262.909 276.508C262.831 277.052 262.813 278.102 263.809 279.031L274.038 287.645C275.299 288.726 276.567 288.163 277.254 287.382C278.094 286.335 278.379 284.616 276.941 283.432L266.713 274.818C266.057 274.321 265.248 274.09 264.639 274.327C263.752 274.64 263.014 275.509 262.909 276.508Z" fill="#4B9F9C"/>
<path d="M335.409 339.331C336.069 339.005 336.565 338.349 336.783 337.768C336.936 337.503 336.949 337.276 336.874 336.997C336.827 336.263 336.501 335.603 335.705 335.144L319.721 325.68C318.219 324.813 316.621 325.539 315.907 326.776C315.397 327.659 315.315 329.025 316.729 329.842L332.713 339.306C333.862 339.969 334.889 339.62 335.409 339.331Z" fill="#4B9F9C"/>
<path d="M303.879 417.824C303.155 418.465 302.873 419.362 303.046 420.287C303.308 421.263 303.988 422.126 304.974 422.46C305.466 422.627 306.289 422.63 307.204 421.863C311.562 417.784 316.75 415.126 322.451 413.824C323.376 413.651 324.049 413.097 324.28 412.289L324.331 412.2C324.665 411.215 324.365 410.1 323.723 409.376C323.383 408.944 322.588 408.485 321.472 408.783C314.847 410.258 308.721 413.316 303.879 417.824Z" fill="#4B9F9C"/>
<path d="M328.694 446.284C327.677 447.228 327.8 448.241 327.949 448.798C328.211 449.774 328.979 450.688 329.876 450.971C330.369 451.138 331.192 451.142 332.018 450.323C337.635 445.086 344.192 441.687 351.641 440.217C352.844 439.969 353.252 439.262 353.47 438.681C353.803 437.696 353.593 436.632 352.95 435.908C352.522 435.425 351.866 434.928 350.662 435.176C342.391 436.643 334.755 440.479 328.694 446.284Z" fill="#4B9F9C"/>
<path d="M157.999 455.971C158.05 455.883 158.152 455.706 158.203 455.618C158.69 454.368 158.33 452.746 156.864 452.018L139.524 443.067C138.817 442.659 138.083 442.706 137.512 443.083C136.75 443.585 136.277 444.608 136.4 445.621C136.41 446.216 136.709 447.331 137.946 448.045L155.287 456.996C156.575 457.622 157.489 456.855 157.999 455.971Z" fill="#4B9F9C"/>
<path d="M278.114 335.696C279.089 335.435 279.916 334.617 280.198 333.72C280.378 332.999 280.191 332.302 279.586 331.718L267.978 320.186C266.982 319.258 265.88 319.329 265.323 319.478C264.347 319.739 263.521 320.558 263.239 321.455C263.058 322.175 263.245 322.872 263.85 323.457L275.459 334.988C276.404 336.005 277.556 335.846 278.114 335.696Z" fill="#4B9F9C"/>
<path d="M300.402 188.504C301.531 187.978 302.384 186.704 301.745 185.157L298.295 177.865C297.768 176.736 296.959 176.505 296.327 176.375C295.328 176.269 294.338 176.758 293.74 177.591C293.345 178.07 293.114 178.878 293.641 180.007L297.091 187.299C297.679 188.934 299.273 189.03 300.402 188.504Z" fill="#4B9F9C"/>
<path d="M327.62 487.946L350.135 479.156C350.934 478.793 351.329 478.314 351.444 477.91C351.495 477.821 351.509 477.594 351.56 477.505C351.754 476.557 351.264 475.568 350.482 474.881C350.091 474.538 349.119 473.976 347.851 474.54L325.336 483.329C323.789 483.967 323.707 485.333 324.057 486.36C324.533 487.577 325.984 488.533 327.62 487.946Z" fill="#4B9F9C"/>
<path d="M195.974 298.755C195.063 298.7 194.213 299.152 193.717 299.807C193.207 300.691 193.139 301.829 193.591 302.679C193.88 303.199 194.434 303.873 195.623 303.853L211.074 304.647C212.441 304.729 213.267 303.91 213.6 302.925C213.665 302.609 213.729 302.293 213.794 301.977C213.825 300.699 213.121 299.468 211.527 299.372L195.974 298.755Z" fill="#4B9F9C"/>
<path d="M293.032 496.008C292.196 496.232 291.751 496.799 291.571 497.52C291.428 498.38 291.866 499.457 292.648 500.144C293.127 500.539 294.099 501.1 295.405 500.676L309.221 495.932C309.918 495.746 310.401 495.318 310.618 494.737C310.669 494.648 310.72 494.56 310.683 494.421C310.826 493.561 310.387 492.484 309.605 491.797C309.126 491.402 308.154 490.841 306.848 491.265L293.032 496.008Z" fill="#4B9F9C"/>
<path d="M197.096 468.062C198.715 468.525 200.01 467.506 200.408 466.205C200.459 466.116 200.51 466.028 200.472 465.889C200.717 464.852 200.469 463.649 198.851 463.186L176.649 457.552C174.892 457.126 173.583 458.373 173.185 459.674C172.94 460.711 173.188 461.914 174.806 462.377L197.096 468.062Z" fill="#4B9F9C"/>
<path d="M329.933 380.454C331.575 381.284 333.223 380.47 333.9 379.094C334.41 378.21 334.39 377.021 333.064 376.255L318.844 368.635C317.607 367.92 316.529 368.358 315.958 368.735C315.057 369.275 314.496 370.246 314.581 371.12C314.629 371.854 315.006 372.425 315.764 372.745L329.933 380.454Z" fill="#4B9F9C"/>
<path d="M299.546 265.508C298.771 266.238 298.373 267.539 299.495 268.658L311.104 280.189C312.1 281.118 313.201 281.047 313.759 280.898C314.734 280.637 315.459 279.995 315.741 279.098C315.792 279.009 315.792 279.009 315.843 278.921C316.023 278.201 315.836 277.504 315.231 276.919L303.623 265.388C302.324 264.167 300.475 264.512 299.546 265.508Z" fill="#4B9F9C"/>
<path d="M337.505 178.125C336.4 179.018 336.305 180.612 337.148 181.805L342.056 188.408C342.396 188.84 343.015 189.197 343.647 189.327C344.419 189.419 345.116 189.232 345.738 188.767C346.119 188.516 346.374 188.074 346.489 187.67C346.809 186.912 346.687 185.899 346.095 185.087L341.187 178.484C340.847 178.052 340.228 177.695 339.596 177.565C338.824 177.473 337.988 177.697 337.505 178.125Z" fill="#4B9F9C"/>
<path d="M313.104 213.857C313.713 213.62 314.209 212.964 314.478 212.295C314.529 212.206 314.529 212.206 314.58 212.118C314.797 211.537 314.699 210.891 314.447 210.51L307.469 199.533C306.803 198.441 305.528 197.587 303.981 198.226C303.321 198.551 302.825 199.207 302.505 199.965C302.288 200.546 302.386 201.192 302.638 201.572L309.616 212.55C310.334 213.553 311.557 214.495 313.104 213.857Z" fill="#4B9F9C"/>
<path d="M326.857 239.229C327.73 239.144 328.682 238.516 329.104 237.582C329.41 237.052 329.655 236.015 328.9 234.873L320.158 222.052C319.654 221.29 318.985 221.021 318.251 221.069C317.377 221.153 316.425 221.781 316.003 222.716C315.697 223.246 315.452 224.282 316.207 225.424L324.95 238.245C325.504 238.919 326.122 239.276 326.857 239.229Z" fill="#4B9F9C"/>
<path d="M331.799 249.855C331.656 250.715 332.108 251.565 332.852 252.112L345.28 261.408C346.592 262.401 347.949 261.888 348.649 260.879C349.489 259.833 349.584 258.239 348.184 257.195L335.756 247.9C334.835 247.25 333.961 247.335 333.492 247.535C332.642 247.986 331.904 248.856 331.799 249.855Z" fill="#4B9F9C"/>
<path d="M275.923 221.717C276.783 221.861 277.861 221.423 278.547 220.642C278.942 220.163 279.452 219.279 279.027 217.974L273.035 201.205C272.811 200.369 272.243 199.924 271.522 199.743C270.662 199.6 269.585 200.038 268.898 200.819C268.503 201.298 267.993 202.181 268.418 203.487L274.41 220.255C274.635 221.091 275.202 221.537 275.923 221.717Z" fill="#4B9F9C"/>
<path d="M122.09 501.431C123.555 502.159 124.521 501.303 125.031 500.42C125.657 499.132 125.398 497.334 123.756 496.504L104.166 486.96C102.701 486.232 101.735 487.088 101.225 487.971C100.599 489.259 100.858 491.057 102.5 491.887L122.09 501.431Z" fill="#4B9F9C"/>
<path d="M270.118 431.191L288.18 428.075C289.332 427.916 289.879 427.172 290.097 426.591C290.379 425.694 290.22 424.542 289.577 423.817C289.149 423.335 288.493 422.838 287.201 423.034L269.139 426.151C267.987 426.31 267.439 427.054 267.221 427.635C266.939 428.532 267.099 429.684 267.741 430.408C268.17 430.891 268.826 431.388 270.118 431.191Z" fill="#4B9F9C"/>
<path d="M248.591 397.445C247.123 397.539 246.473 398.46 246.167 398.99C245.746 399.924 245.677 401.063 246.18 401.824C246.558 402.396 247.227 402.664 248.05 402.668L262.862 401.915C264.33 401.821 264.98 400.9 265.286 400.37C265.337 400.282 265.439 400.105 265.49 400.017C265.772 399.12 265.687 398.247 265.361 397.587C264.984 397.016 264.314 396.747 263.491 396.743L248.591 397.445Z" fill="#4B9F9C"/>
<path d="M79.0788 466.116C80.741 468.136 82.7194 470.22 84.3816 472.24C86.0438 474.259 87.5157 476.405 88.6577 478.713C88.8957 479.321 88.7255 480.637 88.0524 481.19C87.709 481.581 86.1284 481.257 85.7375 480.914C82.6646 477.255 79.9214 473.434 77.1783 469.612C76.7126 468.99 76.9336 467.586 76.988 466.675C76.8249 466.346 78.0657 466.238 79.0788 466.116Z" fill="#4B9F9C"/>
</svg>
