<svg width="561" height="561" viewBox="0 0 561 561" fill="none" xmlns="http://www.w3.org/2000/svg">
<circle cx="280.5" cy="280.5" r="280.5" fill="#4B9F9C" fill-opacity="0.2"/>
<path d="M280.126 373.768C331.244 373.768 372.683 332.329 372.683 281.212C372.683 230.095 331.244 188.656 280.126 188.656C229.009 188.656 187.57 230.095 187.57 281.212C187.57 332.329 229.009 373.768 280.126 373.768Z" stroke="#FEBA15" stroke-width="3" stroke-miterlimit="10" stroke-linecap="round"/>
<path d="M280.293 188.656V373.768" stroke="#FEBA15" stroke-width="3" stroke-miterlimit="10" stroke-linecap="round"/>
<path d="M269.322 190.117C269.322 190.117 183.619 286.216 269.322 372.706" stroke="#FEBA15" stroke-width="3" stroke-miterlimit="10" stroke-linecap="round"/>
<path d="M289.389 188.801C289.389 188.801 375.917 285.821 289.389 373.145" stroke="#FEBA15" stroke-width="3" stroke-miterlimit="10" stroke-linecap="round"/>
<path d="M193.751 247.908C208.484 259.323 300.123 288.016 366.835 248.703" stroke="#FEBA15" stroke-width="3" stroke-miterlimit="10" stroke-linecap="round"/>
<path d="M197.448 322.852C211.865 312.808 279.495 271.927 363.156 322.15" stroke="#FEBA15" stroke-width="3" stroke-miterlimit="10" stroke-linecap="round"/>
<path d="M332.148 128.911C382.762 146.217 422.035 188.002 435.741 240.165" stroke="#FEBA15" stroke-width="3" stroke-miterlimit="10" stroke-linecap="round"/>
<path d="M124.511 240.165C138.234 188.002 177.49 146.217 228.117 128.911" stroke="#FEBA15" stroke-width="3" stroke-miterlimit="10" stroke-linecap="round"/>
<path d="M227.722 433.381C206.532 426.05 187.101 414.384 170.67 399.126C154.239 383.868 141.168 365.353 132.291 344.763" stroke="#FEBA15" stroke-width="3" stroke-miterlimit="10" stroke-linecap="round"/>
<path d="M427.962 344.811C419.079 365.393 406.005 383.898 389.575 399.147C373.144 414.397 353.716 426.056 332.53 433.381" stroke="#FEBA15" stroke-width="3" stroke-miterlimit="10" stroke-linecap="round"/>
<path d="M372.472 283.034H189.55" stroke="#FEBA15" stroke-width="3" stroke-miterlimit="10" stroke-linecap="round"/>
<path d="M280.126 171.24C309.464 171.24 333.246 147.457 333.246 118.12C333.246 88.7827 309.464 65 280.126 65C250.789 65 227.006 88.7827 227.006 118.12C227.006 147.457 250.789 171.24 280.126 171.24Z" stroke="#FEBA15" stroke-width="3" stroke-miterlimit="10" stroke-linecap="round"/>
<path d="M280.126 495.229C309.464 495.229 333.246 471.446 333.246 442.109C333.246 412.771 309.464 388.989 280.126 388.989C250.789 388.989 227.006 412.771 227.006 442.109C227.006 471.446 250.789 495.229 280.126 495.229Z" stroke="#FEBA15" stroke-width="3" stroke-miterlimit="10" stroke-linecap="round"/>
<path d="M440.914 346.404C470.251 346.404 494.034 322.622 494.034 293.284C494.034 263.947 470.251 240.164 440.914 240.164C411.576 240.164 387.793 263.947 387.793 293.284C387.793 322.622 411.576 346.404 440.914 346.404Z" stroke="#FEBA15" stroke-width="3" stroke-miterlimit="10" stroke-linecap="round"/>
<path d="M119.12 346.404C148.457 346.404 172.24 322.622 172.24 293.284C172.24 263.947 148.457 240.164 119.12 240.164C89.7827 240.164 66 263.947 66 293.284C66 322.622 89.7827 346.404 119.12 346.404Z" stroke="#FEBA15" stroke-width="3" stroke-miterlimit="10" stroke-linecap="round"/>
<path d="M315.795 121.632C315.795 124.077 315.065 126.466 313.7 128.494C312.335 130.523 310.396 132.098 308.131 133.018C305.866 133.938 303.378 134.163 300.985 133.662C298.592 133.161 296.402 131.958 294.697 130.206C291.267 132.71 287.107 134.015 282.862 133.917C278.616 133.819 274.521 132.325 271.21 129.666C269.287 131.929 266.766 133.605 263.934 134.502C261.103 135.398 258.077 135.479 255.202 134.734C252.327 133.989 249.72 132.45 247.68 130.292C245.64 128.134 244.249 125.445 243.667 122.533C243.084 119.621 243.334 116.604 244.388 113.827C245.442 111.051 247.256 108.627 249.624 106.834C251.992 105.042 254.816 103.952 257.775 103.691C260.733 103.43 263.705 104.008 266.35 105.358C268.193 101.986 271 99.2395 274.412 97.4709C277.824 95.7024 281.686 94.9919 285.504 95.4303C289.322 95.8687 292.922 97.436 295.845 99.9318C298.767 102.428 300.879 105.738 301.909 109.441C302.438 109.373 302.97 109.339 303.503 109.34C306.763 109.34 309.89 110.635 312.195 112.94C314.5 115.245 315.795 118.372 315.795 121.632V121.632Z" stroke="#FEBA15" stroke-width="3" stroke-miterlimit="10" stroke-linecap="round"/>
<path d="M418.085 288.104C418.085 288.104 442.621 265.175 467.693 288.104" stroke="#FEBA15" stroke-width="3" stroke-miterlimit="10" stroke-linecap="round"/>
<path d="M423.955 296.081C423.955 296.081 442.621 277.138 461.823 296.081" stroke="#FEBA15" stroke-width="3" stroke-miterlimit="10" stroke-linecap="round"/>
<path d="M431.953 302.065C431.953 302.065 443.157 292.095 454.343 302.065" stroke="#FEBA15" stroke-width="3" stroke-miterlimit="10" stroke-linecap="round"/>
<path d="M443.767 308.211C444.858 308.211 445.743 307.326 445.743 306.235C445.743 305.144 444.858 304.26 443.767 304.26C442.676 304.26 441.792 305.144 441.792 306.235C441.792 307.326 442.676 308.211 443.767 308.211Z" stroke="#FEBA15" stroke-width="3" stroke-miterlimit="10" stroke-linecap="round"/>
<path d="M301.343 429.377H258.689C257.496 429.377 256.529 430.344 256.529 431.537V458.387C256.529 459.58 257.496 460.547 258.689 460.547H301.343C302.536 460.547 303.503 459.58 303.503 458.387V431.537C303.503 430.344 302.536 429.377 301.343 429.377Z" stroke="#FEBA15" stroke-width="3" stroke-miterlimit="10" stroke-linecap="round"/>
<path d="M302.187 430.255L279.797 444.742L257.408 429.816" stroke="#FEBA15" stroke-width="3" stroke-miterlimit="10" stroke-linecap="round"/>
<path d="M119.12 307H100.106L95.093 312.496C94.9696 312.631 94.8082 312.726 94.63 312.768C94.4517 312.81 94.2649 312.798 94.094 312.732C93.9231 312.666 93.7762 312.55 93.6724 312.399C93.5687 312.248 93.513 312.069 93.5126 311.886V307H90.0751C89.1666 307 88.2951 306.639 87.6523 305.997C87.0094 305.355 86.6476 304.484 86.6465 303.575V277.397C86.6465 276.488 87.0077 275.616 87.6507 274.973C88.2937 274.33 89.1658 273.969 90.0751 273.969H134.13C135.039 273.969 135.911 274.33 136.554 274.973C137.197 275.616 137.558 276.488 137.558 277.397V298.992" stroke="#FEBA15" stroke-width="3" stroke-miterlimit="10" stroke-linecap="round"/>
<path d="M119.778 301.116V315.674C119.778 316.179 119.979 316.664 120.336 317.021C120.694 317.378 121.178 317.579 121.684 317.579H140.6L143.265 320.503C143.344 320.587 143.445 320.646 143.558 320.672C143.67 320.698 143.787 320.689 143.895 320.648C144.002 320.606 144.094 320.533 144.16 320.439C144.225 320.344 144.261 320.232 144.262 320.117V317.575H146.176C146.427 317.576 146.676 317.529 146.908 317.434C147.14 317.339 147.352 317.199 147.53 317.023C147.708 316.846 147.85 316.636 147.947 316.405C148.044 316.173 148.094 315.925 148.094 315.674V301.116C148.094 300.611 147.894 300.126 147.536 299.769C147.179 299.412 146.694 299.211 146.189 299.211H121.684C121.178 299.211 120.694 299.412 120.336 299.769C119.979 300.126 119.778 300.611 119.778 301.116Z" stroke="#FEBA15" stroke-width="3" stroke-miterlimit="10" stroke-linecap="round"/>
<path d="M90.5845 290.65V280.114C90.5845 280.114 90.1454 277.041 93.6575 277.041" stroke="#FEBA15" stroke-width="3" stroke-miterlimit="10" stroke-linecap="round"/>
<path d="M143.266 302.064C143.266 302.064 145.461 301.625 145.461 304.259V308.649" stroke="#FEBA15" stroke-width="3" stroke-miterlimit="10" stroke-linecap="round"/>
<path d="M248.627 118.12C248.627 118.12 254.335 105.389 268.383 111.974C268.383 111.974 275.407 96.1697 289.455 102.755" stroke="#FEBA15" stroke-width="3" stroke-miterlimit="10" stroke-linecap="round"/>
<path d="M259.164 435.084V455.279C259.164 455.279 259.164 458.352 262.676 457.474" stroke="#FEBA15" stroke-width="3" stroke-miterlimit="10" stroke-linecap="round"/>
</svg>
