<svg width="561" height="561" viewBox="0 0 561 561" fill="none" xmlns="http://www.w3.org/2000/svg">
<circle cx="280.5" cy="280.5" r="280.5" fill="#4B9F9C" fill-opacity="0.2"/>
<path d="M384.391 175H177.609C172.854 175 169 178.871 169 183.645V306.355C169 311.129 172.854 315 177.609 315H384.391C389.146 315 393 311.129 393 306.355V183.645C393 178.871 389.146 175 384.391 175Z" stroke="#FEBA15" stroke-width="3" stroke-miterlimit="10"/>
<path d="M290 315H271V377H290V315Z" stroke="#FEBA15" stroke-width="3" stroke-miterlimit="10"/>
<path d="M335.068 377H226.932C224.76 377 223 378.811 223 381.045V390.955C223 393.189 224.76 395 226.932 395H335.068C337.24 395 339 393.189 339 390.955V381.045C339 378.811 337.24 377 335.068 377Z" stroke="#FEBA15" stroke-width="3" stroke-miterlimit="10"/>
<path d="M177.119 175H384.872C387.028 175 389.095 175.9 390.619 177.502C392.144 179.103 393 181.276 393 183.541V194H169V183.546C169 181.281 169.856 179.108 171.381 177.506C172.905 175.905 174.972 175.005 177.128 175.005L177.119 175Z" stroke="#FEBA15" stroke-width="3" stroke-miterlimit="10"/>
<path d="M383.558 200H283.442C282.093 200 281 201.104 281 202.467V301.533C281 302.896 282.093 304 283.442 304H383.558C384.907 304 386 302.896 386 301.533V202.467C386 201.104 384.907 200 383.558 200Z" stroke="#FEBA15" stroke-width="3" stroke-miterlimit="10"/>
<path d="M269.708 280H180.292C177.369 280 175 282.415 175 285.393V298.607C175 301.585 177.369 304 180.292 304H269.708C272.631 304 275 301.585 275 298.607V285.393C275 282.415 272.631 280 269.708 280Z" stroke="#FEBA15" stroke-width="3" stroke-miterlimit="10"/>
<path d="M271.986 200H178.014C176.349 200 175 201.365 175 203.049V271.951C175 273.635 176.349 275 178.014 275H271.986C273.651 275 275 273.635 275 271.951V203.049C275 201.365 273.651 200 271.986 200Z" stroke="#FEBA15" stroke-width="3" stroke-miterlimit="10"/>
<path d="M361.747 250.824L365.201 249.056C365.473 248.916 365.694 248.695 365.835 248.424C365.975 248.152 366.028 247.844 365.986 247.542C365.73 245.672 365.308 243.829 364.726 242.033C364.631 241.745 364.45 241.492 364.206 241.31C363.963 241.128 363.669 241.026 363.366 241.018L359.476 240.945C359.208 240.942 358.946 240.864 358.718 240.721C358.491 240.578 358.308 240.375 358.189 240.134C357.939 239.626 357.672 239.128 357.391 238.638C357.258 238.404 357.191 238.137 357.199 237.868C357.207 237.598 357.289 237.336 357.436 237.11L359.544 233.86C359.711 233.602 359.793 233.299 359.779 232.993C359.765 232.686 359.656 232.392 359.467 232.15C358.305 230.665 357.015 229.283 355.614 228.02C355.387 227.814 355.1 227.685 354.795 227.65C354.49 227.615 354.182 227.676 353.914 227.826L350.519 229.702C350.282 229.833 350.013 229.896 349.743 229.884C349.473 229.872 349.211 229.786 348.987 229.634C348.533 229.322 348.044 229.022 347.559 228.728C347.325 228.589 347.134 228.389 347.007 228.149C346.879 227.909 346.821 227.639 346.838 227.368L347.037 223.492C347.053 223.187 346.975 222.885 346.813 222.627C346.65 222.369 346.412 222.167 346.131 222.05C344.381 221.34 342.571 220.79 340.723 220.404C340.423 220.34 340.111 220.372 339.83 220.493C339.549 220.615 339.312 220.822 339.154 221.084L337.155 224.407C337.015 224.639 336.815 224.828 336.575 224.952C336.335 225.077 336.065 225.133 335.795 225.115C335.242 225.078 334.685 225.06 334.127 225.056C333.856 225.056 333.59 224.981 333.359 224.839C333.127 224.698 332.94 224.495 332.817 224.253L331.054 220.803C330.915 220.53 330.694 220.308 330.423 220.166C330.151 220.025 329.843 219.972 329.539 220.014C327.67 220.272 325.827 220.693 324.032 221.275C323.742 221.369 323.489 221.55 323.307 221.793C323.124 222.037 323.021 222.331 323.012 222.635L322.939 226.529C322.936 226.798 322.857 227.061 322.713 227.288C322.569 227.515 322.365 227.698 322.123 227.816C321.62 228.066 321.121 228.329 320.632 228.61C320.398 228.743 320.133 228.81 319.864 228.802C319.595 228.794 319.334 228.712 319.109 228.564L315.854 226.456C315.596 226.29 315.293 226.209 314.987 226.223C314.681 226.236 314.387 226.345 314.145 226.533C312.658 227.697 311.275 228.988 310.011 230.391C309.806 230.619 309.678 230.904 309.643 231.208C309.608 231.512 309.668 231.819 309.816 232.087L311.697 235.483C311.829 235.719 311.892 235.987 311.881 236.258C311.87 236.528 311.784 236.79 311.634 237.015C311.331 237.48 311.029 237.956 310.727 238.443C310.589 238.677 310.389 238.869 310.149 238.996C309.909 239.123 309.638 239.181 309.367 239.164L305.491 238.964C305.187 238.948 304.885 239.027 304.627 239.189C304.369 239.351 304.167 239.59 304.05 239.871C303.344 241.622 302.794 243.432 302.404 245.279C302.34 245.579 302.371 245.892 302.492 246.173C302.614 246.454 302.821 246.69 303.084 246.848L306.407 248.847C306.639 248.987 306.828 249.187 306.954 249.427C307.079 249.667 307.136 249.937 307.119 250.207C307.078 250.76 307.06 251.314 307.055 251.876C307.054 252.147 306.979 252.413 306.836 252.644C306.694 252.876 306.49 253.063 306.248 253.186L302.803 254.949C302.53 255.088 302.308 255.309 302.166 255.58C302.025 255.851 301.972 256.16 302.014 256.464C302.273 258.333 302.694 260.176 303.275 261.972C303.369 262.261 303.55 262.513 303.794 262.695C304.037 262.877 304.331 262.979 304.634 262.987L308.524 263.06C308.795 263.064 309.059 263.143 309.287 263.288C309.516 263.433 309.7 263.638 309.82 263.88C310.065 264.384 310.328 264.878 310.609 265.367C310.743 265.601 310.809 265.867 310.801 266.135C310.793 266.404 310.711 266.665 310.564 266.891L308.456 270.146C308.29 270.403 308.208 270.706 308.222 271.012C308.236 271.319 308.344 271.613 308.533 271.855C309.697 273.342 310.988 274.725 312.391 275.989C312.618 276.194 312.903 276.322 313.207 276.357C313.511 276.392 313.818 276.332 314.086 276.184L317.481 274.303C317.718 274.173 317.985 274.11 318.254 274.122C318.523 274.133 318.784 274.217 319.009 274.366C319.462 274.684 319.956 274.983 320.441 275.273C320.676 275.41 320.868 275.61 320.995 275.851C321.122 276.091 321.18 276.362 321.162 276.633L320.963 280.505C320.947 280.809 321.025 281.111 321.188 281.369C321.35 281.627 321.588 281.829 321.869 281.946C323.62 282.655 325.429 283.207 327.277 283.596C327.577 283.658 327.888 283.626 328.169 283.504C328.45 283.383 328.686 283.177 328.846 282.916L330.845 279.589C330.985 279.358 331.186 279.17 331.426 279.045C331.666 278.92 331.935 278.864 332.205 278.882C332.753 278.918 333.311 278.94 333.873 278.94C334.145 278.943 334.411 279.02 334.642 279.163C334.873 279.306 335.06 279.51 335.183 279.752L336.942 283.197C337.083 283.47 337.304 283.692 337.576 283.833C337.848 283.974 338.157 284.028 338.461 283.986C340.33 283.727 342.173 283.304 343.968 282.721C344.258 282.629 344.512 282.448 344.694 282.204C344.876 281.96 344.977 281.666 344.984 281.361L345.056 277.472C345.061 277.202 345.14 276.938 345.284 276.71C345.429 276.482 345.634 276.298 345.877 276.18C346.385 275.93 346.879 275.667 347.364 275.386C347.598 275.254 347.865 275.188 348.134 275.196C348.403 275.204 348.665 275.286 348.891 275.432L352.146 277.54C352.403 277.705 352.705 277.787 353.011 277.773C353.316 277.759 353.61 277.651 353.851 277.463C355.337 276.299 356.72 275.01 357.985 273.609C358.189 273.381 358.317 273.095 358.352 272.79C358.387 272.486 358.327 272.178 358.18 271.909L356.298 268.513C356.168 268.277 356.105 268.008 356.117 267.738C356.129 267.467 356.215 267.206 356.366 266.981C356.669 266.513 356.971 266.037 357.273 265.553C357.41 265.318 357.61 265.126 357.85 264.999C358.091 264.872 358.362 264.814 358.633 264.832L362.509 265.032C362.813 265.049 363.116 264.97 363.374 264.808C363.632 264.645 363.833 264.407 363.95 264.125C364.656 262.374 365.206 260.564 365.596 258.717C365.66 258.417 365.629 258.105 365.507 257.824C365.385 257.542 365.178 257.306 364.916 257.148L361.593 255.149C361.36 255.011 361.17 254.81 361.045 254.57C360.92 254.329 360.865 254.059 360.886 253.789C360.922 253.231 360.945 252.674 360.945 252.111C360.95 251.844 361.028 251.584 361.169 251.357C361.31 251.131 361.51 250.946 361.747 250.824V250.824ZM355.854 252.111C355.839 256.436 354.541 260.659 352.126 264.246C349.71 267.832 346.285 270.622 342.284 272.262C338.283 273.902 333.885 274.318 329.647 273.458C325.409 272.597 321.522 270.499 318.477 267.429C315.432 264.359 313.365 260.454 312.539 256.209C311.713 251.964 312.165 247.57 313.837 243.582C315.509 239.593 318.326 236.191 321.932 233.804C325.538 231.418 329.771 230.154 334.095 230.174C336.965 230.185 339.804 230.762 342.45 231.87C345.097 232.979 347.499 234.598 349.52 236.635C351.541 238.672 353.141 241.087 354.229 243.743C355.316 246.398 355.87 249.242 355.859 252.111H355.854Z" stroke="#FEBA15" stroke-width="3" stroke-miterlimit="10"/>
<path d="M132.405 314.043L133.701 313.406C133.803 313.356 133.886 313.276 133.939 313.178C133.991 313.08 134.011 312.969 133.994 312.86C133.899 312.187 133.741 311.524 133.52 310.879C133.486 310.774 133.418 310.681 133.325 310.615C133.233 310.549 133.121 310.512 133.006 310.511L131.548 310.485C131.447 310.483 131.349 310.455 131.264 310.404C131.179 310.353 131.11 310.28 131.065 310.195C130.974 310.008 130.875 309.831 130.767 309.653C130.715 309.571 130.688 309.476 130.688 309.38C130.688 309.284 130.715 309.189 130.767 309.107L131.557 307.937C131.619 307.844 131.65 307.735 131.645 307.625C131.64 307.515 131.6 307.409 131.53 307.321C131.093 306.785 130.608 306.286 130.081 305.831C129.995 305.757 129.888 305.71 129.774 305.698C129.66 305.686 129.545 305.708 129.444 305.761L128.171 306.437C128.085 306.487 127.986 306.514 127.885 306.514C127.783 306.514 127.684 306.487 127.598 306.437C127.422 306.325 127.246 306.216 127.061 306.112C126.974 306.063 126.904 305.992 126.856 305.908C126.808 305.823 126.786 305.727 126.79 305.631L126.867 304.236C126.872 304.126 126.843 304.017 126.781 303.923C126.72 303.83 126.63 303.758 126.524 303.716C125.865 303.462 125.186 303.263 124.492 303.122C124.38 303.1 124.263 303.112 124.158 303.156C124.053 303.2 123.965 303.275 123.905 303.369L123.156 304.565C123.103 304.648 123.028 304.716 122.938 304.761C122.848 304.806 122.747 304.827 122.646 304.821C122.438 304.821 122.231 304.821 122.018 304.821C121.917 304.82 121.818 304.793 121.732 304.741C121.646 304.69 121.577 304.617 121.531 304.53L120.867 303.287C120.814 303.189 120.731 303.11 120.63 303.059C120.528 303.009 120.412 302.99 120.299 303.005C119.599 303.091 118.909 303.236 118.236 303.438C118.126 303.472 118.03 303.538 117.961 303.626C117.892 303.715 117.854 303.822 117.852 303.932L117.825 305.332C117.823 305.429 117.794 305.524 117.74 305.606C117.686 305.688 117.609 305.753 117.518 305.796C117.328 305.887 117.143 305.982 116.958 306.082C116.873 306.132 116.774 306.159 116.674 306.159C116.573 306.159 116.475 306.132 116.389 306.082L115.166 305.319C115.069 305.261 114.955 305.232 114.841 305.237C114.726 305.243 114.616 305.282 114.525 305.35C113.968 305.768 113.45 306.232 112.977 306.736C112.9 306.819 112.853 306.921 112.84 307.031C112.827 307.14 112.849 307.251 112.905 307.347L113.609 308.57C113.658 308.655 113.681 308.751 113.677 308.848C113.673 308.945 113.642 309.039 113.586 309.12C113.469 309.289 113.356 309.462 113.248 309.636C113.196 309.718 113.123 309.786 113.034 309.832C112.946 309.878 112.847 309.9 112.747 309.896L111.293 309.822C111.178 309.818 111.065 309.848 110.968 309.907C110.871 309.967 110.795 310.054 110.751 310.156C110.487 310.786 110.28 311.437 110.133 312.101C110.11 312.209 110.122 312.321 110.168 312.422C110.214 312.523 110.292 312.608 110.39 312.665L111.636 313.384C111.723 313.436 111.793 313.509 111.84 313.596C111.887 313.683 111.909 313.78 111.902 313.878C111.902 314.073 111.88 314.277 111.88 314.476C111.879 314.574 111.851 314.67 111.798 314.753C111.744 314.837 111.668 314.904 111.577 314.949L110.282 315.581C110.189 315.632 110.114 315.707 110.064 315.798C110.015 315.888 109.993 315.991 110.002 316.093C110.099 316.766 110.258 317.431 110.476 318.078C110.512 318.182 110.581 318.273 110.673 318.338C110.765 318.403 110.876 318.439 110.991 318.442L112.449 318.468C112.55 318.469 112.648 318.497 112.734 318.549C112.819 318.601 112.887 318.675 112.932 318.762C113.026 318.944 113.126 319.122 113.23 319.3C113.283 319.382 113.311 319.476 113.311 319.573C113.311 319.669 113.283 319.764 113.23 319.846L112.44 321.02C112.378 321.113 112.348 321.222 112.353 321.333C112.359 321.443 112.4 321.549 112.471 321.636C112.907 322.17 113.391 322.667 113.916 323.122C114.001 323.196 114.108 323.243 114.222 323.256C114.337 323.268 114.452 323.246 114.552 323.191L115.825 322.515C115.914 322.468 116.014 322.446 116.116 322.45C116.217 322.455 116.315 322.486 116.398 322.541C116.574 322.654 116.751 322.762 116.936 322.862C117.022 322.912 117.094 322.983 117.141 323.069C117.189 323.154 117.212 323.25 117.206 323.347L117.13 324.743C117.124 324.853 117.155 324.962 117.217 325.054C117.28 325.147 117.371 325.218 117.477 325.259C118.134 325.512 118.812 325.711 119.504 325.852C119.616 325.875 119.732 325.864 119.838 325.82C119.943 325.777 120.031 325.703 120.091 325.61L120.84 324.409C120.893 324.327 120.969 324.26 121.059 324.215C121.149 324.171 121.25 324.151 121.35 324.158C121.558 324.158 121.77 324.158 121.978 324.179C122.08 324.18 122.179 324.207 122.266 324.258C122.353 324.31 122.423 324.383 122.47 324.47L123.129 325.709C123.181 325.808 123.264 325.888 123.366 325.939C123.468 325.99 123.584 326.01 123.698 325.995C124.399 325.909 125.091 325.764 125.765 325.562C125.874 325.527 125.968 325.461 126.036 325.372C126.104 325.284 126.142 325.178 126.144 325.068L126.171 323.664C126.174 323.566 126.204 323.472 126.259 323.39C126.314 323.308 126.392 323.242 126.483 323.2C126.668 323.109 126.858 323.018 127.038 322.914C127.125 322.864 127.224 322.837 127.325 322.837C127.426 322.837 127.525 322.864 127.611 322.914L128.83 323.672C128.927 323.732 129.04 323.762 129.155 323.757C129.27 323.753 129.38 323.714 129.471 323.646C130.028 323.226 130.546 322.761 131.02 322.255C131.097 322.174 131.146 322.071 131.159 321.961C131.172 321.851 131.148 321.74 131.092 321.644L130.388 320.422C130.338 320.337 130.315 320.24 130.32 320.143C130.325 320.046 130.357 319.952 130.415 319.872C130.532 319.703 130.645 319.534 130.749 319.356C130.8 319.273 130.875 319.205 130.964 319.16C131.053 319.115 131.154 319.094 131.254 319.1L132.703 319.17C132.818 319.177 132.932 319.148 133.03 319.089C133.127 319.03 133.202 318.943 133.245 318.84C133.51 318.209 133.717 317.556 133.863 316.89C133.887 316.782 133.875 316.67 133.829 316.569C133.783 316.468 133.705 316.383 133.606 316.327L132.36 315.607C132.274 315.558 132.203 315.486 132.156 315.4C132.109 315.315 132.088 315.219 132.094 315.122C132.094 314.923 132.116 314.719 132.121 314.515C132.118 314.419 132.143 314.324 132.193 314.24C132.244 314.157 132.317 314.089 132.405 314.043V314.043ZM130.198 314.502C130.193 316.059 129.706 317.579 128.801 318.871C127.896 320.162 126.612 321.167 125.111 321.758C123.611 322.348 121.962 322.499 120.373 322.19C118.784 321.88 117.326 321.126 116.183 320.021C115.041 318.916 114.265 317.511 113.955 315.983C113.644 314.456 113.812 312.874 114.439 311.438C115.065 310.002 116.12 308.776 117.472 307.916C118.824 307.056 120.41 306.6 122.032 306.606C123.108 306.61 124.173 306.817 125.166 307.215C126.159 307.614 127.061 308.197 127.819 308.93C128.577 309.663 129.178 310.533 129.586 311.489C129.994 312.445 130.202 313.469 130.198 314.502V314.502Z" stroke="#FEBA15" stroke-width="3" stroke-miterlimit="10"/>
<path d="M281.08 402L281 461.301C280.995 465.462 281.806 469.583 283.387 473.429C284.967 477.275 287.287 480.769 290.213 483.713C293.138 486.657 296.613 488.993 300.438 490.586C304.262 492.18 308.362 493 312.502 493V493C320.856 493 328.868 489.665 334.775 483.729C340.681 477.792 344 469.741 344 461.346V457.219" stroke="#FEBA15" stroke-width="3" stroke-miterlimit="10"/>
<path d="M348.5 457C363.688 457 376 444.688 376 429.5C376 414.312 363.688 402 348.5 402C333.312 402 321 414.312 321 429.5C321 444.688 333.312 457 348.5 457Z" stroke="#FEBA15" stroke-width="3" stroke-miterlimit="10"/>
<path d="M400 270L468.237 269.814C472.406 269.82 476.536 269.011 480.389 267.435C484.243 265.859 487.744 263.547 490.694 260.63C493.644 257.713 495.985 254.249 497.581 250.435C499.178 246.622 500 242.535 500 238.407V238.407C500 230.078 496.658 222.089 490.709 216.199C484.759 210.309 476.691 207 468.277 207H464.146" stroke="#FEBA15" stroke-width="3" stroke-miterlimit="10"/>
<path d="M436.5 230C451.688 230 464 217.688 464 202.5C464 187.312 451.688 175 436.5 175C421.312 175 409 187.312 409 202.5C409 217.688 421.312 230 436.5 230Z" stroke="#FEBA15" stroke-width="3" stroke-miterlimit="10"/>
<path d="M281 168V98.6349C281.006 94.6144 280.209 90.6321 278.654 86.9158C277.099 83.1996 274.817 79.8223 271.938 76.977C269.059 74.1318 265.64 71.8744 261.877 70.3341C258.113 68.7937 254.079 68.0006 250.005 68V68C241.782 68 233.895 71.2233 228.081 76.9609C222.267 82.6985 219 90.4804 219 98.5946V102.58" stroke="#FEBA15" stroke-width="3" stroke-miterlimit="10"/>
<path d="M215.5 156C230.136 156 242 144.136 242 129.5C242 114.864 230.136 103 215.5 103C200.864 103 189 114.864 189 129.5C189 144.136 200.864 156 215.5 156Z" stroke="#FEBA15" stroke-width="3" stroke-miterlimit="10"/>
<path d="M161 248H91.6349C87.614 247.994 83.6314 248.779 79.9148 250.309C76.1983 251.839 72.8208 254.084 69.9755 256.917C67.1302 259.749 64.8729 263.113 63.3328 266.816C61.7927 270.52 61 274.489 61 278.498V278.498C61 286.587 64.2234 294.346 69.961 300.066C75.6986 305.786 83.4804 309 91.5946 309H95.5796" stroke="#FEBA15" stroke-width="3" stroke-miterlimit="10"/>
<path d="M122.5 341C137.136 341 149 328.912 149 314C149 299.088 137.136 287 122.5 287C107.864 287 96 299.088 96 314C96 328.912 107.864 341 122.5 341Z" stroke="#FEBA15" stroke-width="3" stroke-miterlimit="10"/>
<path d="M417 214H457" stroke="#FEBA15" stroke-width="3" stroke-miterlimit="10"/>
<path d="M426.858 196H421.142C420.511 196 420 196.512 420 197.143V212.857C420 213.488 420.511 214 421.142 214H426.858C427.489 214 428 213.488 428 212.857V197.143C428 196.512 427.489 196 426.858 196Z" stroke="#FEBA15" stroke-width="3" stroke-miterlimit="10"/>
<path d="M435.801 201H429.199C428.537 201 428 201.51 428 202.139V212.861C428 213.49 428.537 214 429.199 214H435.801C436.463 214 437 213.49 437 212.861V202.139C437 201.51 436.463 201 435.801 201Z" stroke="#FEBA15" stroke-width="3" stroke-miterlimit="10"/>
<path d="M444.876 190H438.124C437.503 190 437 190.505 437 191.129V212.871C437 213.495 437.503 214 438.124 214H444.876C445.497 214 446 213.495 446 212.871V191.129C446 190.505 445.497 190 444.876 190Z" stroke="#FEBA15" stroke-width="3" stroke-miterlimit="10"/>
<path d="M452.934 207H447.066C446.477 207 446 207.531 446 208.185V212.815C446 213.469 446.477 214 447.066 214H452.934C453.523 214 454 213.469 454 212.815V208.185C454 207.531 453.523 207 452.934 207Z" stroke="#FEBA15" stroke-width="3" stroke-miterlimit="10"/>
<path d="M215.5 145C223.508 145 230 138.06 230 129.5C230 120.94 223.508 114 215.5 114C207.492 114 201 120.94 201 129.5C201 138.06 207.492 145 215.5 145Z" stroke="#FEBA15" stroke-width="3" stroke-miterlimit="10"/>
<path d="M201 130H230" stroke="#FEBA15" stroke-width="3" stroke-miterlimit="10"/>
<path d="M206 118L215.466 129L225 118.283" stroke="#FEBA15" stroke-width="3" stroke-miterlimit="10"/>
<path d="M368 423.153V436.252C368 437.353 367.573 438.41 366.813 439.189C366.053 439.967 365.022 440.405 363.947 440.405H343.627L340.476 443.711C340.343 443.848 340.174 443.942 339.989 443.98C339.805 444.019 339.613 444 339.439 443.927C339.265 443.854 339.116 443.73 339.011 443.57C338.906 443.41 338.849 443.221 338.849 443.028V440.405H336.053C334.978 440.405 333.947 439.967 333.187 439.189C332.427 438.41 332 437.353 332 436.252V423.153C332 422.052 332.427 420.995 333.187 420.217C333.947 419.438 334.978 419 336.053 419H363.947C365.022 419 366.053 419.438 366.813 420.217C367.573 420.995 368 422.052 368 423.153Z" stroke="#FEBA15" stroke-width="3" stroke-miterlimit="10"/>
<path d="M340.5 432C341.328 432 342 431.105 342 430C342 428.895 341.328 428 340.5 428C339.672 428 339 428.895 339 430C339 431.105 339.672 432 340.5 432Z" stroke="#FEBA15" stroke-width="3" stroke-miterlimit="10"/>
<path d="M350 432C351.105 432 352 431.105 352 430C352 428.895 351.105 428 350 428C348.895 428 348 428.895 348 430C348 431.105 348.895 432 350 432Z" stroke="#FEBA15" stroke-width="3" stroke-miterlimit="10"/>
<path d="M359 432C360.105 432 361 431.105 361 430C361 428.895 360.105 428 359 428C357.895 428 357 428.895 357 430C357 431.105 357.895 432 359 432Z" stroke="#FEBA15" stroke-width="3" stroke-miterlimit="10"/>
<path d="M334 428V424.143C334 424.143 334.333 422 336 422" stroke="#FEBA15" stroke-width="3" stroke-miterlimit="10" stroke-linecap="round"/>
<path d="M175 190V183.182C175 183.182 175.333 180.455 178 180" stroke="#FEBA15" stroke-width="3" stroke-miterlimit="10" stroke-linecap="round"/>
<path d="M180 180C180.552 180 181 179.776 181 179.5C181 179.224 180.552 179 180 179C179.448 179 179 179.224 179 179.5C179 179.776 179.448 180 180 180Z" fill="black"/>
</svg>
