<svg width="561" height="561" viewBox="0 0 561 561" fill="none" xmlns="http://www.w3.org/2000/svg">
<circle cx="280.5" cy="280.5" r="280.5" fill="#4B9F9C" fill-opacity="0.2"/>
<path d="M339.302 323.405C348.983 317.666 359.763 314.027 370.941 312.726" stroke="#FEBA15" stroke-width="3" stroke-miterlimit="10"/>
<path d="M404.313 315.801C437.204 325.997 461.098 356.662 461.098 392.905C461.098 437.477 424.963 473.613 380.391 473.613C335.819 473.613 299.684 437.457 299.684 392.885C299.666 380.331 302.588 367.947 308.217 356.726" stroke="#FEBA15" stroke-width="3" stroke-miterlimit="10"/>
<path d="M195.607 131.724C205.545 138.088 213.855 146.689 219.874 156.839C225.892 166.989 229.452 178.407 230.269 190.179" stroke="#FEBA15" stroke-width="3" stroke-miterlimit="10"/>
<path d="M215.415 240.726C208.375 250.167 199.225 257.832 188.696 263.11C178.167 268.387 166.551 271.13 154.774 271.121C112.979 271.121 79.0981 237.24 79.0981 195.445C79.0981 153.65 112.979 119.77 154.774 119.77C156.88 119.77 158.963 119.854 161.021 120.023" stroke="#FEBA15" stroke-width="3" stroke-miterlimit="10"/>
<path d="M187.567 193.128C186.948 189.948 186.255 186.76 185.486 183.596" stroke="#FEBA15" stroke-width="3" stroke-miterlimit="10" stroke-linecap="round"/>
<path d="M192.744 260.655C192.744 260.655 193.364 247.83 191.979 228.622" stroke="#FEBA15" stroke-width="3" stroke-miterlimit="10"/>
<path d="M160.066 144.549C160.066 144.549 138.494 148.675 129.929 195.626C121.363 242.577 121.363 262.884 121.363 262.884" stroke="#FEBA15" stroke-width="3" stroke-miterlimit="10"/>
<path d="M155.944 156.924C155.944 156.924 169.585 191.506 232.4 219.421L222.884 243.851C168.631 222.597 137.226 179.132 137.226 179.132" stroke="#FEBA15" stroke-width="3" stroke-miterlimit="10" stroke-linecap="round"/>
<path d="M171.492 148.675C171.492 148.675 213.721 175.318 239.616 198.48" stroke="#FEBA15" stroke-width="3" stroke-miterlimit="10"/>
<path d="M163.437 113.883C163.791 108.517 165.341 103.501 169.588 102.04C179.739 98.5502 197.507 102.99 196.871 123.93C196.235 144.869 172.124 146.773 164.838 129.642C164.406 127.756 164.078 125.848 163.856 123.926" stroke="#FEBA15" stroke-width="3" stroke-miterlimit="10"/>
<path d="M164.837 129.64L160.075 144.534C161.046 145.698 162.23 146.667 163.565 147.388C166.032 148.67 168.856 149.095 171.591 148.595L173.869 139.494C173.869 139.494 167.365 136.62 164.837 129.64Z" stroke="#FEBA15" stroke-width="3" stroke-miterlimit="10"/>
<path d="M232.401 219.42C232.401 219.42 255.245 222.278 255.877 225.458C256.159 226.851 246.679 226.408 246.679 226.408C246.845 229.02 247.62 231.557 248.941 233.816C250.263 236.075 252.095 237.993 254.291 239.418C261.907 244.493 265.397 244.493 266.347 245.125C267.297 245.757 267.933 247.665 265.397 248.301C265.397 248.301 272.695 250.519 266.033 252.105C266.033 252.105 270.155 254.327 264.129 255.913C264.129 255.913 266.347 257.817 261.589 258.135C256.831 258.453 236.539 253.369 226.223 235.296" stroke="#FEBA15" stroke-width="3" stroke-miterlimit="10"/>
<path d="M265.397 248.293C265.397 248.293 260.321 247.657 254.291 243.865" stroke="#FEBA15" stroke-width="3" stroke-miterlimit="10" stroke-linecap="round"/>
<path d="M266.034 252.097C266.034 252.097 260.64 252.733 252.706 248.293" stroke="#FEBA15" stroke-width="3" stroke-miterlimit="10" stroke-linecap="round"/>
<path d="M264.129 255.904C264.129 255.904 259.367 255.904 251.755 252.096" stroke="#FEBA15" stroke-width="3" stroke-miterlimit="10" stroke-linecap="round"/>
<path d="M200.993 202.768V198.485H287.923V226.401H246.519" stroke="#FEBA15" stroke-width="3" stroke-miterlimit="10"/>
<path d="M251.241 235.285H287.762V226.401H246.813" stroke="#FEBA15" stroke-width="3" stroke-miterlimit="10"/>
<path d="M263.944 244.168H287.922V235.284H249.839" stroke="#FEBA15" stroke-width="3" stroke-miterlimit="10"/>
<path d="M222.886 244.167H233.119" stroke="#FEBA15" stroke-width="3" stroke-miterlimit="10"/>
<path d="M169.116 124.553C168.118 124.897 167.049 124.976 166.012 124.784C164.974 124.592 164.004 124.134 163.196 123.456C162.388 122.778 161.77 121.902 161.401 120.913C161.032 119.925 160.925 118.858 161.091 117.816C161.256 116.774 161.689 115.793 162.347 114.968C163.004 114.143 163.864 113.502 164.843 113.108C165.821 112.714 166.885 112.58 167.931 112.719C168.977 112.858 169.969 113.266 170.81 113.902" stroke="#FEBA15" stroke-width="3" stroke-miterlimit="10"/>
<path d="M185.573 89.9829C183.032 89.9837 180.561 90.8204 178.541 92.3639C176.522 93.9075 175.067 96.0722 174.399 98.5246C173.031 97.7079 171.468 97.278 169.875 97.2808C167.519 97.2818 165.26 98.2182 163.594 99.884C161.928 101.55 160.992 103.809 160.991 106.165C160.99 107.059 161.126 107.948 161.393 108.801C161.51 110.138 161.687 111.917 161.941 114.264C162.712 113.618 163.628 113.171 164.611 112.96C165.594 112.749 166.614 112.78 167.582 113.052C168.55 113.324 169.437 113.828 170.166 114.521C170.895 115.213 171.444 116.072 171.766 117.025C174.314 115.37 176.714 113.237 177.869 110.625L177.945 110.262C179.353 111.497 181.038 112.372 182.858 112.812C184.678 113.252 186.577 113.244 188.393 112.789C190.209 112.334 191.887 111.446 193.285 110.2C194.682 108.954 195.756 107.388 196.415 105.635C197.074 103.883 197.299 101.997 197.069 100.139C196.839 98.2812 196.162 96.5067 195.096 94.9677C194.03 93.4287 192.607 92.1712 190.948 91.303C189.29 90.4349 187.445 89.9819 185.573 89.9829Z" fill="#FEBA15"/>
<path d="M168.951 121.073L165.143 116.315" stroke="#FEBA15" stroke-width="3" stroke-miterlimit="10" stroke-linecap="round"/>
<path d="M167.437 119.178L163.875 120.438" stroke="#FEBA15" stroke-width="3" stroke-miterlimit="10" stroke-linecap="round"/>
<path d="M186.968 190.175L201.153 198.641" stroke="#FEBA15" stroke-width="3" stroke-miterlimit="10"/>
<path d="M184.963 129.797C184.963 129.797 184.963 133.287 188.139 134.555" stroke="#FEBA15" stroke-width="3" stroke-miterlimit="10" stroke-linecap="round"/>
<path d="M364.159 471.581C364.159 471.581 366.707 403.691 368.031 385.287" stroke="#FEBA15" stroke-width="3" stroke-miterlimit="10"/>
<path d="M395.382 344.562C395.382 344.562 416.961 356.719 424.336 389.694C434.31 434.315 432.539 454.123 432.539 454.123" stroke="#FEBA15" stroke-width="3" stroke-miterlimit="10"/>
<path d="M400.047 325.061C399.098 326.655 398.063 328.196 396.947 329.678C383.865 341.802 363.537 330.701 371.185 312.144C373.774 305.853 377.473 302.049 381.522 300.036C389.412 296.123 398.642 299.038 403.609 303.683C406.753 306.621 406.024 311.424 404.817 315.356" stroke="#FEBA15" stroke-width="3" stroke-miterlimit="10" stroke-linecap="round"/>
<path d="M396.947 329.692L395.277 344.585C393.972 345.226 392.556 345.61 391.107 345.717C388.449 345.876 385.813 345.147 383.616 343.644L385.194 334.748C385.194 334.748 392 334.8 396.947 329.692Z" stroke="#FEBA15" stroke-width="3" stroke-miterlimit="10"/>
<path d="M382.937 361.288C382.937 361.288 357.678 361.727 321.18 334.778C313.61 329.159 306.395 323.078 299.577 316.567L281.463 333.953C327.057 385.44 395.487 391.478 395.487 391.478" stroke="#FEBA15" stroke-width="3" stroke-miterlimit="10" stroke-linecap="round"/>
<path d="M299.575 316.556C299.575 316.556 288.666 297.391 285.623 297.995C284.291 298.257 288.159 306.484 288.159 306.484C285.787 307.296 283.257 307.541 280.773 307.2C278.289 306.859 275.919 305.941 273.853 304.52C266.568 299.645 265.288 296.558 264.378 295.946C263.468 295.334 261.56 295.475 261.918 297.959C261.918 297.959 257.277 292.323 258.32 298.792C258.32 298.792 254.842 295.974 255.647 301.876C255.647 301.876 253.147 300.608 254.616 304.935C256.086 309.262 268.017 325.355 287.805 327.851" stroke="#FEBA15" stroke-width="3" stroke-miterlimit="10"/>
<path d="M261.919 297.955C261.919 297.955 264.334 302.213 269.925 306.15" stroke="#FEBA15" stroke-width="3" stroke-miterlimit="10" stroke-linecap="round"/>
<path d="M258.32 298.788C258.32 298.788 259.737 303.796 266.576 309.181" stroke="#FEBA15" stroke-width="3" stroke-miterlimit="10" stroke-linecap="round"/>
<path d="M255.647 301.87C255.647 301.87 257.394 306.081 263.557 311.422" stroke="#FEBA15" stroke-width="3" stroke-miterlimit="10" stroke-linecap="round"/>
<path d="M383.562 343.927C370.392 341.463 342.504 332.519 308.386 300.144L296.62 311.435" stroke="#FEBA15" stroke-width="3" stroke-miterlimit="10" stroke-linecap="round"/>
<path d="M308.387 300.143C308.387 300.143 297.478 280.978 294.451 281.586C293.119 281.848 296.983 290.075 296.983 290.075C294.611 290.887 292.082 291.132 289.599 290.791C287.115 290.449 284.746 289.532 282.681 288.111C275.395 283.236 274.115 280.149 273.205 279.537C272.296 278.925 270.388 279.066 270.746 281.55C270.746 281.55 266.105 275.914 267.123 282.383C267.123 282.383 263.645 279.565 264.454 285.466C264.454 285.466 261.955 284.198 263.42 288.526C264.515 291.746 271.471 301.564 283.144 307.352" stroke="#FEBA15" stroke-width="3" stroke-miterlimit="10"/>
<path d="M270.734 281.542C270.734 281.542 273.15 285.801 278.741 289.738" stroke="#FEBA15" stroke-width="3" stroke-miterlimit="10" stroke-linecap="round"/>
<path d="M267.132 282.391C267.132 282.391 268.549 287.399 275.392 292.784" stroke="#FEBA15" stroke-width="3" stroke-miterlimit="10" stroke-linecap="round"/>
<path d="M264.464 285.459C264.464 285.459 266.211 289.669 272.374 295.011" stroke="#FEBA15" stroke-width="3" stroke-miterlimit="10" stroke-linecap="round"/>
<path d="M422.21 313.715L421.933 313.497L421.988 313.431L422.21 313.715Z" fill="black"/>
<path d="M395.193 323.261C395.931 323.95 396.834 324.436 397.816 324.672C398.797 324.908 399.823 324.887 400.793 324.609C401.764 324.332 402.646 323.808 403.354 323.088C404.062 322.369 404.571 321.479 404.833 320.504C405.095 319.529 405.101 318.503 404.849 317.526C404.597 316.549 404.096 315.653 403.396 314.926C402.695 314.2 401.818 313.667 400.851 313.379C399.883 313.092 398.858 313.06 397.874 313.286" stroke="#FEBA15" stroke-width="3" stroke-miterlimit="10"/>
<path d="M396.693 320.287L401.886 317.614" stroke="#FEBA15" stroke-width="3" stroke-miterlimit="10" stroke-linecap="round"/>
<path d="M398.764 319.219L401.381 321.715" stroke="#FEBA15" stroke-width="3" stroke-miterlimit="10" stroke-linecap="round"/>
<path d="M379.272 321.947C379.272 321.947 377.908 324.998 374.635 324.866" stroke="#FEBA15" stroke-width="3" stroke-miterlimit="10" stroke-linecap="round"/>
<path d="M373.175 360.028L373.807 357.633" stroke="#FEBA15" stroke-width="3" stroke-miterlimit="10"/>
<path d="M404.806 317.209C403.808 315.482 401.473 313.562 399.336 313.562C398.233 313.565 397.154 313.883 396.227 314.479C395.3 315.076 394.562 315.925 394.103 316.927C390.667 315.527 387.678 313.215 385.46 310.24C383.241 307.266 381.878 303.742 381.516 300.049C389.405 296.137 398.635 299.051 403.602 303.696C406.734 306.635 406.593 312.383 404.806 317.209Z" fill="#FEBA15"/>
<path d="M440.924 333.373C440.252 335.975 438.659 338.244 436.44 339.76C434.221 341.275 431.528 341.935 428.86 341.615C426.192 341.295 423.73 340.019 421.932 338.022C420.134 336.025 419.122 333.443 419.083 330.757C418.17 331.026 417.217 331.138 416.265 331.087H416.181C414.613 331.195 413.042 330.928 411.599 330.307C410.155 329.687 408.88 328.73 407.88 327.518C406.88 326.306 406.183 324.873 405.849 323.337C405.514 321.802 405.55 320.209 405.954 318.69C406.358 317.172 407.119 315.772 408.173 314.606C409.227 313.441 410.544 312.544 412.015 311.989C413.485 311.435 415.067 311.239 416.628 311.419C418.189 311.598 419.685 312.147 420.991 313.021C421.092 313.086 421.192 313.158 421.293 313.23C422.467 314.078 423.44 315.174 424.143 316.44C424.846 317.706 425.261 319.112 425.359 320.556V320.601C427.263 319.686 429.39 319.335 431.487 319.587C433.585 319.84 435.567 320.687 437.2 322.028C438.833 323.368 440.049 325.148 440.705 327.156C441.362 329.165 441.431 331.319 440.904 333.365L440.924 333.373Z" fill="#FEBA15"/>
<path d="M299.682 444.612C292.082 445.691 284.415 446.229 276.738 446.222C188.037 446.222 116.129 374.314 116.129 285.613" stroke="#FEBA15" stroke-width="3" stroke-miterlimit="10" stroke-linecap="round"/>
<path d="M222.053 134.553C239.588 128.212 258.095 124.979 276.741 125.001C365.442 125.001 437.35 196.909 437.35 285.61C437.352 292.423 436.924 299.228 436.07 305.986" stroke="#FEBA15" stroke-width="3" stroke-miterlimit="10" stroke-linecap="round"/>
</svg>
