<svg width="1440" height="218" viewBox="0 0 1440 218" fill="none" xmlns="http://www.w3.org/2000/svg">
<g clip-path="url(#clip0_236_1577)">
<g clip-path="url(#clip1_236_1577)">
<mask id="mask0_236_1577" style="mask-type:alpha" maskUnits="userSpaceOnUse" x="12" y="-342" width="1447" height="549">
<path d="M1278.94 44.0926C1277.32 43.2619 1275.4 41.7882 1274.39 41.9438C1262.9 44.8032 1251.74 47.7094 1240.57 50.9138C1238.88 51.2719 1237.06 54.0113 1237.32 55.545C1238.15 58.6613 1241.21 57.5982 1243.23 57.2869C1253.36 54.8344 1263.51 52.0838 1273.66 49.3332C1275.69 48.7238 1277.11 47.1282 1278.84 45.8757C1278.88 45.2813 1278.91 44.6869 1278.94 44.0926Z" fill="#65AA7A"/>
<path d="M905.891 0.55875C905.258 -0.105 904.655 -1.33502 903.374 -2.37752C895.011 -8.45064 886.965 -14.1919 878.256 -20.0306C876.644 -21.1219 873.599 -20.4244 871.595 -20.43C872.5 -18.585 873.056 -16.5056 874.668 -15.4144C883.016 -9.05812 891.727 -3.21938 900.421 2.9025C903.314 5.03625 906.041 4.00687 905.891 0.55875Z" fill="#65AA7A"/>
<path d="M1215.45 165.097C1216.49 164.685 1218.19 164.364 1218.23 163.541C1218.29 162.442 1217.37 160.657 1216.39 160.245C1212.77 158.644 1208.81 157.269 1205.2 155.668C1199.27 153.197 1193.37 150.45 1187.43 148.252C1185.79 147.476 1183.74 148.024 1181.74 147.75C1182.32 149.49 1182.53 151.732 1183.84 152.464C1187.43 154.616 1191.36 156.538 1195.32 157.911C1201.91 160.474 1208.53 162.488 1215.45 165.097Z" fill="#65AA7A"/>
<path d="M1159.61 14.8069C1158.61 15.5644 1156.97 16.2375 1155.32 17.205C1156.53 18.5512 1157.7 20.4844 1159.27 20.9888C1168.38 23.9681 1177.49 26.9494 1186.62 29.6363C1187.56 30.0563 1188.91 28.7513 1190.21 28.3313C1189.32 27.0281 1188.78 25.1775 1187.84 24.7575C1178.76 21.1875 1169.65 18.2063 1159.61 14.8069Z" fill="#65AA7A"/>
<path d="M1306.92 67.0482C1308.62 66.69 1309.98 66.585 1311 66.4313C1316.85 64.2488 1322.38 61.7157 1328.25 59.2332C1330.68 58.0688 1332.13 56.1525 1330.57 53.7975C1329.93 53.0963 1326.55 53.2088 1325.18 53.6157C1318.99 55.7475 1312.79 58.1813 1306.9 60.9676C1305.86 61.4232 1304.43 63.0357 1304.72 63.9901C1304.33 64.8469 1305.96 65.9963 1306.92 67.0482Z" fill="#65AA7A"/>
<path d="M1436.88 55.9444C1438.55 55.2938 1440.84 55.0388 1442.19 54.0431C1446.94 50.5556 1451.69 46.77 1456.47 42.6881C1457.49 41.94 1458.21 40.5488 1458.61 39.1088C1458.97 38.5632 1458.38 37.275 1457.77 36.5813C1457.14 36.1875 1455.83 36.2907 1455.17 36.4913C1454.51 36.6919 1453.83 37.1888 1453.17 37.3894C1447.07 41.8744 1441.3 46.4063 1435.2 50.8894C1434.52 51.3882 1433.47 52.7307 1433.76 53.3738C1434.02 54.6132 1435.62 55.155 1436.88 55.9444Z" fill="#65AA7A"/>
<path d="M1344.38 38.9644C1346.53 38.0494 1348.68 37.4419 1350.16 36.1125C1356.08 30.4875 1361.65 25.1175 1366.9 19.0762C1367.66 17.9494 1367.08 15.6844 1367.16 14.1413C1365.73 14.5463 1363.61 14.8444 1362.51 15.6094C1355.85 21.7462 1349.54 27.9356 1343.23 34.125C1342.48 34.9444 1342.08 35.8162 1342.01 37.05C1342.35 37.41 1343.71 38.2406 1344.38 38.9644Z" fill="#65AA7A"/>
<path d="M1312.79 95.1712C1315.48 94.9369 1317.83 94.9594 1319.87 94.3294C1329.05 91.9519 1337.9 89.2238 1346.76 86.4975C1348.12 86.0775 1348.85 84.9619 1349.91 83.8913C1348.25 83.6588 1346.64 82.5206 1345.27 82.9406C1337.46 84.8981 1329.64 87.1594 1322.14 89.4675C1319.08 90.2588 1316.06 90.4481 1313 91.2413C1311.99 91.4044 1310.93 92.475 1310.21 93.2888C1310.84 93.9863 1311.81 94.7306 1312.79 95.1712Z" fill="#65AA7A"/>
<path d="M1395.25 41.43C1393.12 42.5775 1392.05 43.2975 1391.32 44.07C1386.61 48.3581 1381.55 52.8862 1376.83 57.465C1376.1 58.2375 1376.02 59.6963 1375.62 60.8138C1376.98 61.0219 1379 61.9163 1380.06 61.4888C1388.13 58.5975 1393.6 52.9537 1396.74 45.7781C1397.47 45.0056 1396.18 43.3387 1395.25 41.43Z" fill="#65AA7A"/>
<path d="M1384.86 205.455C1388.47 204.682 1392.09 203.91 1395.41 202.47C1396.07 202.245 1396.53 199.793 1396.27 198.503C1395.99 197.837 1393.76 196.911 1392.76 197.406C1387.78 199.564 1383.03 197.359 1377.92 195.733C1376.33 195.204 1374.73 194.678 1373.45 194.505C1372.14 194.644 1370.49 195.053 1370.44 195.988C1370.07 196.881 1371.26 198.924 1371.89 199.322C1375.97 201.754 1380.11 203.25 1384.86 205.455Z" fill="#65AA7A"/>
<path d="M1379.51 95.1019C1383.01 93.7631 1386.48 93.0412 1389.32 91.2919C1395.37 87.2306 1401.41 83.1694 1407.13 78.75C1408.2 77.9775 1407.96 76.08 1408.37 74.8987C1406.99 75.0037 1405.29 74.7487 1404.22 75.5212C1395.71 80.7656 1387.54 86.0606 1379.37 91.3575C1378.66 91.8712 1377.93 92.6925 1377.54 93.5662C1377.54 93.5662 1378.53 94.3331 1379.51 95.1019Z" fill="#65AA7A"/>
<path d="M1063 48.4012C1062 49.1062 1060.38 49.4419 1060.02 50.2369C1059.65 51.03 1060.5 53.1206 1061.45 53.535C1068.34 56.7525 1075.24 59.6888 1082.48 62.3925C1083.1 62.7619 1085.07 61.9106 1085.44 61.1175C1085.8 60.3225 1084.94 58.5112 1084.31 58.1437C1077.12 54.6019 1070.21 51.6637 1063 48.4012Z" fill="#65AA7A"/>
<path d="M981.717 44.505C981.013 44.9981 979.988 45.1463 979.972 45.4425C979.908 46.6256 979.829 48.1031 980.472 48.7931C982.397 50.865 984.674 52.6894 986.966 54.2175C992.849 58.3575 998.735 62.4994 1004.63 66.345C1005.61 67.0838 1007.31 67.035 1008.66 67.2319C1008.38 66 1008.48 64.2244 1007.5 63.4856C1005.56 61.71 1003.27 60.1819 1001.31 58.7044C996.083 54.9563 990.872 50.9138 985.645 47.1675C984.346 46.0819 983.031 45.2944 981.717 44.505Z" fill="#65AA7A"/>
<path d="M1054.06 99.7163C1055.39 99.0282 1056.7 98.6306 1057.39 97.8469C1057.74 97.3106 1057.19 95.4656 1056.57 95.0794C1050.34 90.6413 1044.43 86.5425 1038.19 82.3969C1037.24 81.9638 1035.29 82.2675 1034.28 83.0044C1033.62 83.2031 1034.14 85.6313 1034.75 86.31C1040.97 90.7481 1047.51 95.2313 1054.06 99.7163Z" fill="#65AA7A"/>
<path d="M1295.81 3.77249C1290.34 5.15999 1284.55 6.23063 1279.06 7.88438C1277.68 8.49751 1277.22 10.8563 1276.46 12.3656C1278.16 12.0656 1280.51 12.3956 1281.89 11.7806C1287.75 9.37314 1293.57 7.76814 1300.53 10.0913C1301.86 10.5469 1303.25 9.66564 1304.61 9.58689C1303.66 8.37564 1302.71 7.16627 1301.42 6.17627C1299.77 5.40752 1298.1 5.17125 1296.1 4.62187C1296.12 4.35562 1296.13 4.08749 1295.81 3.77249Z" fill="#65AA7A"/>
<path d="M1415.86 22.1606C1417.73 20.8744 1420.31 19.6969 1421.83 18.0431C1425.67 13.5975 1429.17 8.47498 1432.31 3.60936C1433.07 2.78248 1432.43 1.42684 1432.49 0.179961C1431.05 0.273711 1428.93 -0.363771 1428.17 0.461229C1426.27 2.37185 1424.71 4.64996 1422.79 6.87184C1419.72 10.4906 1417.01 14.1619 1413.96 17.4694C1413.2 18.2962 1413.15 19.2318 1413.08 20.4787C1413.42 20.8443 1414.47 21.3187 1415.86 22.1606Z" fill="#65AA7A"/>
<path d="M1254.82 138.728C1250.25 137.871 1245.67 137.016 1241.41 136.504C1240.1 136.346 1238.73 137.408 1237.38 137.859C1238.3 139.196 1239.51 141.184 1240.48 141.606C1247.35 142.738 1254.21 143.869 1261.11 144.39C1262.42 144.548 1263.85 142.571 1265.22 141.51C1263.62 140.704 1262.34 139.937 1260.72 139.434C1258.77 138.894 1256.79 138.964 1254.82 138.728Z" fill="#65AA7A"/>
<path d="M1391.72 135.966C1395.51 136.723 1399.29 137.762 1403.09 138.519C1404.36 138.679 1406 137.754 1407.3 137.353C1406.41 136.112 1405.87 134.347 1404.92 134.229C1398.91 132.911 1392.91 131.595 1386.88 130.839C1385.61 130.682 1384.22 132.767 1383.19 134.051C1384.75 134.811 1386.29 135.851 1387.86 136.331C1389.12 136.77 1390.4 136.648 1392 136.567C1391.7 136.247 1391.72 135.966 1391.72 135.966Z" fill="#65AA7A"/>
<path d="M1275.15 181.847C1277.16 181.528 1279.16 181.496 1280.85 180.846C1281.53 180.643 1282.27 179.289 1281.99 178.384C1282.02 177.808 1280.73 177.062 1279.74 176.932C1272.85 175.174 1266.28 173.743 1259.37 172.271C1257.72 172.057 1256.02 172.708 1254.34 173.07C1255.28 174.062 1256.18 175.916 1257.82 176.417C1263.37 178.296 1269.27 179.927 1275.15 181.847Z" fill="#65AA7A"/>
<path d="M952.372 34.0969C953.048 33.8869 954.398 33.4669 954.432 32.85C954.81 31.9762 954.563 30.3881 953.935 29.6737C948.548 24.8419 943.176 19.7006 937.44 15.1275C936.485 14.3662 934.459 14.9962 933.142 14.8012C933.406 16.0819 932.995 17.5725 933.95 18.3337C939.337 23.1675 944.743 27.6919 950.13 32.5237C950.758 33.2381 951.4 33.6431 952.372 34.0969Z" fill="#65AA7A"/>
<path d="M1452.22 204.69C1450.26 203.779 1449.28 203.211 1448.3 202.868C1440.32 201.958 1432.34 201.047 1424.34 200.364C1423.01 200.213 1421.64 200.745 1420.62 201.088C1421.58 201.885 1422.85 203.177 1423.84 203.518C1431.47 204.619 1438.78 205.682 1446.44 206.325C1448.1 206.516 1449.49 205.528 1452.22 204.69Z" fill="#65AA7A"/>
<path d="M1446.1 163.155C1438.8 162.604 1432.45 162.165 1426.4 162.075C1425.13 161.925 1423.78 163.335 1422.47 164.119C1423.7 164.893 1424.9 166.29 1426.16 166.44C1432.81 167.229 1439.48 167.706 1446.16 167.871C1447.75 168.058 1449.11 166.337 1450.43 165.551C1449.2 164.779 1447.65 163.967 1446.42 163.193C1445.78 163.118 1445.15 163.043 1446.1 163.155Z" fill="#65AA7A"/>
<path d="M1434.2 96.6712C1433.54 96.5756 1433.2 96.5269 1433.2 96.5269C1424.98 98.9381 1416.44 101.025 1408.22 103.434C1407.53 103.612 1407.47 104.707 1407.43 105.529C1408.75 105.994 1410.06 106.732 1411.1 106.327C1417.24 105 1423.07 103.076 1429.23 101.475C1431.28 100.941 1433.33 100.406 1435.06 99.5512C1435.75 99.3731 1435.81 98.2781 1435.85 97.4569C1435.51 97.41 1434.54 96.72 1434.2 96.6712Z" fill="#65AA7A"/>
<path d="M1274.69 81.03C1272.52 79.8938 1270.68 78.5175 1270.02 78.9994C1265.07 82.0463 1259.38 81.0188 1253.7 79.9932C1252.11 79.7869 1250.49 80.4263 1248.55 80.7432C1250.09 81.795 1251.57 83.9757 1252.84 84.1407C1257.92 84.5194 1263.33 84.6581 1268.45 84.4744C1270.36 84.4406 1272.05 82.6725 1274.69 81.03Z" fill="#65AA7A"/>
<path d="M1008.51 24.0112C1007.49 24.7181 1006.17 25.0968 1005.81 25.8975C1005.76 26.745 1006.34 27.9675 1006.96 28.6256C1013.26 32.3775 1019.55 36.1312 1025.87 39.6019C1026.5 39.9769 1028.12 39.9262 1029.12 39.5006C1029.46 39.2662 1029.55 37.5712 1028.92 37.1962C1022.02 32.5031 1015.42 28.4212 1008.51 24.0112Z" fill="#65AA7A"/>
<path d="M1123.15 97.6631C1122.49 97.5769 1121.84 97.2131 1121.49 97.4475C1120.16 97.5525 1119.13 97.9762 1117.79 98.0812C1118.74 99.0431 1119.33 100.515 1120.64 100.965C1124.57 102.313 1128.84 103.429 1132.77 104.779C1135.72 105.722 1138.67 106.663 1141.64 107.329C1142.63 107.458 1143.99 107.078 1145.33 106.973C1144.73 105.778 1144.14 104.306 1143.16 103.899C1136.61 101.649 1130.06 99.4013 1123.5 97.4288C1123.17 97.3856 1123.17 97.3856 1123.15 97.6631Z" fill="#65AA7A"/>
<path d="M1183.52 91.5862C1182.17 92.2162 1180.82 92.8463 1179.46 93.4763C1180.74 94.1831 1181.67 95.3794 1182.96 95.8181C1189.76 98.055 1196.58 100.024 1203.74 101.768C1204.72 101.897 1206.07 101.267 1207.08 100.86C1206.47 99.9731 1205.88 98.8181 1205.22 98.7319C1198.11 96.1856 1190.98 93.9075 1183.52 91.5862Z" fill="#65AA7A"/>
<path d="M1306.21 157.783C1311.49 157.712 1316.75 157.884 1321.72 157.526C1323.04 157.448 1324.12 155.863 1325.15 155.01C1323.53 154.56 1322.23 154.151 1320.59 153.945C1314.67 153.69 1308.44 153.15 1302.5 153.141C1300.52 153.137 1299.16 153.949 1297.15 154.433C1298.77 155.126 1300.36 156.066 1302.32 156.557C1303.28 156.924 1304.61 156.846 1305.92 157.011C1306.22 157.539 1306.22 157.539 1306.21 157.783Z" fill="#65AA7A"/>
<path d="M1179.58 112.183C1178.23 112.582 1177.21 113.027 1175.86 113.426C1176.47 114.388 1177.05 115.933 1178.03 116.359C1183.87 118.92 1189.72 121.481 1195.91 123.797C1196.89 124.222 1198.25 123.533 1199.6 123.133C1199.01 121.881 1198.77 120.092 1197.8 119.666C1191.93 117.396 1185.74 115.08 1179.58 112.183Z" fill="#65AA7A"/>
<path d="M1294.03 120.729C1290.37 120.281 1288.38 119.732 1286.03 119.751C1284.68 119.891 1283.3 120.641 1282.27 121.127C1283.55 122.203 1284.49 123.544 1285.8 124.011C1289.1 125.027 1292.43 125.436 1295.75 126.146C1298.4 126.778 1301.4 127.146 1304.07 127.472C1305.4 127.635 1306.78 126.885 1308.15 126.439C1307.2 125.404 1306.28 123.761 1305.3 123.334C1301.01 121.89 1297.01 121.401 1294.03 120.729Z" fill="#65AA7A"/>
<path d="M1113.59 38.1807C1112.62 37.1475 1111.67 35.8181 1110.33 35.3325C1105.67 32.8931 1100.68 30.4069 1095.67 28.2188C1093.99 27.6881 1091.89 28.5975 1089.82 28.9125C1091.12 30.2888 1092.07 31.62 1093.74 32.4488C1098.73 34.935 1103.72 37.4213 1109.09 39.3581C1110.43 39.8438 1111.82 39.435 1113.52 39.6694C1113.55 39.0731 1113.56 38.7769 1113.59 38.1807Z" fill="#65AA7A"/>
<path d="M1057.92 11.2931C1055.83 12.09 1054.09 12.6619 1052.35 13.2356C1053.65 14.5163 1054.59 16.0219 1056.26 16.8075C1059.92 18.6994 1063.94 20.3681 1067.95 22.0388C1069.3 22.5038 1071.01 22.4738 1072.38 22.3969C1072.11 20.9888 1072.22 19.0856 1071.23 18.3975C1067.24 16.185 1062.58 13.875 1057.92 11.2931Z" fill="#65AA7A"/>
<path d="M1107.2 -0.140625C1105.86 0.609375 1104.19 1.31437 1102.85 2.06437C1104.08 3.48562 1104.96 5.17124 1106.55 6.01687C1110.36 7.79999 1114.18 9.58125 1118.03 10.7419C1119.31 11.2331 1121.31 10.2619 1122.96 9.86812C1122.06 8.49187 1121.19 6.495 1119.93 5.69437C1115.81 3.55687 1111.99 1.77562 1107.2 -0.140625Z" fill="#65AA7A"/>
<path d="M1250.59 115.046C1253.28 115.376 1255.94 116.029 1258.31 115.995C1259.31 116.119 1260.39 114.956 1261.43 114.437C1260.79 113.711 1260.21 112.02 1259.2 111.896C1252.87 110.469 1246.52 109.363 1240.16 108.257C1239.16 108.133 1238.4 109.659 1237.34 110.501C1238.31 111.268 1238.92 112.639 1239.92 112.762C1243.57 113.859 1246.92 114.272 1250.59 115.046Z" fill="#65AA7A"/>
<path d="M1329.86 195.804C1333.43 195.607 1336.99 195.411 1340.56 195.214C1341.2 195.291 1341.62 193.459 1341.99 192.563C1341.05 192.135 1340.44 191.434 1339.48 191.318C1333.06 190.541 1326.64 189.767 1320.52 189.341C1318.92 189.148 1317.58 189.928 1315.94 190.357C1317.18 191.449 1318.39 192.851 1319.68 193.005C1322.85 194.017 1326.06 194.406 1329.59 194.831C1329.88 195.493 1329.86 195.804 1329.86 195.804Z" fill="#65AA7A"/>
<path d="M1104.2 124.853C1103.3 123.234 1103 122.597 1102.38 121.911C1097.61 118.243 1093.18 114.328 1088.41 110.659C1087.46 109.926 1085.79 110.274 1084.47 110.081C1084.74 111.309 1084.33 112.734 1085.29 113.468C1090.04 117.431 1094.79 121.393 1099.56 125.063C1100.52 125.796 1102.22 124.858 1104.2 124.853Z" fill="#65AA7A"/>
<path d="M1156.53 159.321C1155.9 158.617 1155.6 157.959 1154.96 157.56C1147.89 152.559 1140.85 147.253 1133.44 142.509C1132.48 141.759 1130.79 142.131 1129.47 141.941C1130.08 142.95 1130.35 144.216 1131.31 144.967C1138.37 149.968 1145.1 154.922 1152.18 159.619C1153.14 160.371 1154.48 160.254 1155.8 160.444C1156.5 159.93 1156.51 159.624 1156.53 159.321Z" fill="#65AA7A"/>
<path d="M1137.87 78.3825C1136.93 77.3494 1136.32 76.3594 1135.68 75.9694C1129.22 72.9806 1122.44 69.9469 1115.64 67.2131C1114.67 66.78 1113.29 67.8019 1112.29 67.9687C1112.58 68.6137 1113.17 69.9037 1113.81 70.2937C1120.93 73.3706 1128.06 76.1494 1135.17 79.2281C1135.5 79.2731 1136.19 78.7612 1137.87 78.3825Z" fill="#65AA7A"/>
<path d="M1372.45 161.679C1375.79 162.064 1378.78 162.675 1382.11 163.059C1383.11 163.174 1383.84 162.182 1384.87 161.762C1384.23 161.151 1383.29 159.967 1382.62 159.891C1375.63 158.816 1368.64 157.744 1361.64 156.937C1360.64 156.823 1359.92 157.549 1358.89 157.967C1359.87 158.617 1360.81 159.801 1361.81 159.917C1365.46 160.607 1369.15 160.761 1372.48 161.145C1372.47 161.411 1372.47 161.411 1372.45 161.679Z" fill="#65AA7A"/>
<path d="M1150.63 48.3488C1149.96 48.5456 1148.94 49.2656 1147.6 49.6631C1148.54 50.6269 1149.45 51.8738 1150.74 52.3181C1156.24 53.8575 1161.75 55.1156 1167.61 56.1356C1168.91 56.3006 1170.27 55.3425 1171.62 54.6638C1170.35 53.9382 1169.43 52.6931 1168.15 52.2488C1162.63 50.9888 1157.12 49.7306 1150.63 48.3488Z" fill="#65AA7A"/>
<path d="M1438.96 135.082C1442.61 134.994 1446.23 135.465 1449.56 135.052C1450.9 134.944 1451.68 132.784 1452.4 131.749C1451.09 131.295 1449.79 130.843 1448.48 130.672C1444.84 130.481 1440.89 129.966 1437.24 130.056C1435.25 130.078 1433.52 131.548 1431.82 132.174C1433.44 132.951 1435.37 134.049 1436.98 134.826C1437.64 134.912 1438.31 134.717 1438.96 135.082C1438.97 134.803 1438.97 134.803 1438.96 135.082Z" fill="#65AA7A"/>
<path d="M1348.12 124.596C1344.58 124.746 1340.4 125.109 1336.53 125.514C1335.56 125.691 1335.18 126.831 1334.51 127.343C1335.45 127.757 1336.36 128.764 1337.31 128.884C1343.05 129.311 1349.13 129.482 1354.89 129.613C1355.53 129.692 1356.85 128.966 1356.88 128.376C1356.91 127.785 1356.34 126.523 1355.72 126.148C1353.49 125.867 1350.96 125.252 1348.12 124.596Z" fill="#65AA7A"/>
<path d="M978.913 11.9794C977.711 10.3969 977.118 9.46504 976.494 9.09379C972.447 6.54004 968.723 4.03129 964.661 1.75879C963.719 1.34066 962.077 1.95377 960.785 2.05127C961.364 3.26252 961.274 4.94253 962.521 5.68503C966.247 8.19378 970.307 10.4682 974.063 12.4144C974.687 12.7875 976.648 12.2194 978.913 11.9794Z" fill="#65AA7A"/>
<path d="M1186.51 177.549C1185.94 176.106 1185.98 175.297 1185.66 175.249C1182.25 172.301 1179.16 169.399 1175.73 166.719C1175.12 166.086 1173.47 166.657 1172.17 166.738C1172.77 167.642 1173.03 168.769 1173.63 169.672C1176.43 171.988 1179.21 174.572 1182.02 176.617C1182.97 177.028 1184.6 176.996 1186.51 177.549Z" fill="#65AA7A"/>
<path d="M1314.28 16.98C1312.65 16.44 1310.73 15.2662 1310.37 15.8025C1306.94 17.9437 1303.84 20.1356 1301.06 22.6706C1300.7 23.2069 1300.95 24.72 1301.57 25.4044C1301.89 25.7475 1303.86 26.0419 1304.55 25.5562C1307.3 23.6081 1310.06 21.66 1312.5 19.3687C1312.84 19.125 1313.2 18.5887 1314.28 16.98Z" fill="#65AA7A"/>
<path d="M1216.15 62.5762C1212.52 63.3525 1209.56 63.5775 1206.9 64.4925C1205.91 64.6744 1205.79 66.9244 1205.4 68.1638C1206.7 68.3494 1207.96 69.1781 1208.95 68.9963C1211.57 68.7244 1214.22 68.13 1216.55 67.17C1217.55 66.9863 1217.96 65.4262 1218.66 64.5544C1217.72 63.7725 1216.76 63.3112 1216.15 62.5762Z" fill="#65AA7A"/>
<path d="M1224.35 26.0512C1229.5 24.2325 1234.98 22.4625 1240.45 20.6906C1240.8 20.4562 1240.83 19.8956 1241.2 19.38C1240.53 19.2843 1239.89 18.6281 1239.21 18.8137C1233.08 20.2106 1227.29 21.3712 1221.5 22.815C1221.15 23.0475 1220.78 23.5631 1220.43 23.7975C1221.4 24.5006 1222.39 24.9243 1224.35 26.0512Z" fill="#65AA7A"/>
</mask>
<g mask="url(#mask0_236_1577)">
<path d="M1440 397.5H-9.36279V-331.875H1440V397.5Z" fill="#4B9F9C"/>
</g>
</g>
</g>
<defs>
<clipPath id="clip0_236_1577">
<rect width="1440" height="218" fill="white"/>
</clipPath>
<clipPath id="clip1_236_1577">
<rect width="1440" height="570" fill="white" transform="translate(0 -330)"/>
</clipPath>
</defs>
</svg>
