<svg width="194" height="45" viewBox="0 0 194 45" fill="none" xmlns="http://www.w3.org/2000/svg">
<path d="M27.5355 32.9354C27.0487 31.8021 26.5799 30.6627 26.0811 29.5294C22.5052 21.4093 16.3572 16.6831 7.5889 15.375C6.2427 15.1761 4.21139 15.375 3.85681 14.1754C3.34597 12.4513 5.56359 12.0173 6.65738 11.1371C9.50002 8.85844 12.6371 7.01378 16.1709 5.98898C20.9126 4.6085 23.8935 6.01912 25.7205 10.6488C26.4056 12.379 26.9645 14.2417 27.1448 16.0863C27.6917 21.6625 28.0222 27.2628 28.4369 32.851C28.1364 32.8811 27.8299 32.9113 27.5294 32.9414L27.5355 32.9354Z" fill="url(#paint0_linear_79_577)"/>
<path d="M31.8386 12.9697C35.9914 24.3692 44.1467 30.09 56.0581 30.6687C53.7684 35.3888 43.1731 40.5852 38.5275 39.3735C35.6007 38.6079 34.4408 36.1665 33.6716 33.6105C31.6463 26.9372 31.5681 20.0409 31.8386 12.9637V12.9697Z" fill="url(#paint1_linear_79_577)"/>
<path d="M46.2654 21.4844V8.36496H41.1517V6.70931H53.37V8.36496H48.2354V21.4844H46.2654Z" fill="#F5FFF5"/>
<path d="M57.759 21.4844V6.70931H67.3157V8.30209H59.6452V13.1852H66.8337V14.778H59.6452V19.8917H67.3157V21.4844H57.759Z" fill="#F5FFF5"/>
<path d="M78.8825 21.6731C77.4015 21.6731 76.1301 21.3657 75.0682 20.7509C74.0203 20.1362 73.217 19.2629 72.6581 18.1312C72.0992 16.9855 71.8198 15.6373 71.8198 14.0864C71.8198 12.5355 72.0992 11.1942 72.6581 10.0625C73.217 8.93082 74.0203 8.05758 75.0682 7.44283C76.1301 6.82807 77.4015 6.52069 78.8825 6.52069C79.9444 6.52069 80.8875 6.68137 81.7118 7.00272C82.5361 7.3101 83.2557 7.76418 83.8704 8.36496L83.1579 9.93679C82.4872 9.34997 81.8236 8.93082 81.1669 8.67933C80.5242 8.41386 79.7767 8.28113 78.9244 8.28113C77.2897 8.28113 76.0393 8.78412 75.173 9.79008C74.3068 10.796 73.8736 12.2282 73.8736 14.0864C73.8736 15.9446 74.3068 17.3837 75.173 18.4037C76.0393 19.4096 77.2897 19.9126 78.9244 19.9126C79.7767 19.9126 80.5242 19.7869 81.1669 19.5354C81.8236 19.2699 82.4872 18.8438 83.1579 18.257L83.8704 19.8078C83.2557 20.4086 82.5291 20.8697 81.6908 21.191C80.8665 21.5124 79.9304 21.6731 78.8825 21.6731Z" fill="#F5FFF5"/>
<path d="M89.017 21.4844V6.70931H90.9661V13.1643H99.5587V6.70931H101.529V21.4844H99.5587V14.8199H90.9661V21.4844H89.017Z" fill="#F5FFF5"/>
<path d="M107.409 21.4844V6.70931H113.529C115.107 6.70931 116.323 7.07956 117.175 7.82006C118.041 8.56057 118.475 9.59448 118.475 10.9218C118.475 11.802 118.279 12.5495 117.888 13.1643C117.497 13.779 116.945 14.2471 116.232 14.5684C115.534 14.8898 114.716 15.0504 113.78 15.0504L114.136 14.757H114.639C115.212 14.757 115.722 14.9037 116.169 15.1972C116.616 15.4766 116.987 15.9377 117.28 16.5804L119.376 21.4844H117.217L115.184 16.6223C114.947 16.0215 114.597 15.6303 114.136 15.4486C113.689 15.267 113.123 15.1762 112.439 15.1762H109.358V21.4844H107.409ZM109.358 13.6672H113.235C114.311 13.6672 115.128 13.4367 115.687 12.9756C116.26 12.5146 116.546 11.8439 116.546 10.9637C116.546 10.0975 116.26 9.44079 115.687 8.99369C115.128 8.53262 114.311 8.30209 113.235 8.30209H109.358V13.6672Z" fill="#F5FFF5"/>
<path d="M130.175 21.6731C128.15 21.6731 126.641 21.1631 125.649 20.1432C124.671 19.1092 124.182 17.5933 124.182 15.5953V6.70931H126.152V15.5325C126.152 16.9995 126.473 18.1033 127.116 18.8438C127.758 19.5843 128.778 19.9545 130.175 19.9545C131.517 19.9545 132.523 19.5843 133.193 18.8438C133.878 18.1033 134.22 16.9995 134.22 15.5325V6.70931H136.148V15.5953C136.148 17.5933 135.645 19.1092 134.639 20.1432C133.633 21.1631 132.146 21.6731 130.175 21.6731Z" fill="#F5FFF5"/>
<path d="M141.962 21.4844V6.70931H143.471L152.734 18.9486H152.231V6.70931H154.055V21.4844H152.567L143.303 9.24518H143.785V21.4844H141.962Z" fill="#F5FFF5"/>
<path d="M166.462 21.6731C164.981 21.6731 163.71 21.3657 162.648 20.7509C161.6 20.1362 160.797 19.2629 160.238 18.1312C159.679 16.9855 159.4 15.6373 159.4 14.0864C159.4 12.5355 159.679 11.1942 160.238 10.0625C160.797 8.93082 161.6 8.05758 162.648 7.44283C163.71 6.82807 164.981 6.52069 166.462 6.52069C167.524 6.52069 168.467 6.68137 169.292 7.00272C170.116 7.3101 170.836 7.76418 171.45 8.36496L170.738 9.93679C170.067 9.34997 169.404 8.93082 168.747 8.67933C168.104 8.41386 167.357 8.28113 166.504 8.28113C164.87 8.28113 163.619 8.78412 162.753 9.79008C161.887 10.796 161.454 12.2282 161.454 14.0864C161.454 15.9446 161.887 17.3837 162.753 18.4037C163.619 19.4096 164.87 19.9126 166.504 19.9126C167.357 19.9126 168.104 19.7869 168.747 19.5354C169.404 19.2699 170.067 18.8438 170.738 18.257L171.45 19.8078C170.836 20.4086 170.109 20.8697 169.271 21.191C168.446 21.5124 167.51 21.6731 166.462 21.6731Z" fill="#F5FFF5"/>
<path d="M176.597 21.4844V6.70931H178.546V13.1643H187.139V6.70931H189.109V21.4844H187.139V14.8199H178.546V21.4844H176.597Z" fill="#F5FFF5"/>
<path d="M65.3414 31.2183C64.7798 31.0258 64.2583 30.9295 63.7769 30.9295C63.2955 30.9295 62.9023 31.0538 62.5974 31.3026C62.2925 31.5513 62.1401 31.8522 62.1401 32.2052C62.1401 32.7107 62.4089 33.1078 62.9464 33.3967L64.6434 34.3354C65.5902 34.8649 66.0635 35.5469 66.0635 36.3814C66.0635 37.0714 65.8188 37.621 65.3294 38.0302C64.84 38.4394 64.15 38.644 63.2594 38.644C62.3688 38.644 61.5704 38.4835 60.8644 38.1626L61.1653 37.3201C61.8232 37.6089 62.4691 37.7534 63.1029 37.7534C63.7448 37.7534 64.2182 37.629 64.523 37.3803C64.8279 37.1315 64.9804 36.8307 64.9804 36.4776C64.9804 35.9722 64.7116 35.575 64.174 35.2862L62.4771 34.3474C61.5303 33.8179 61.0569 33.1359 61.0569 32.3015C61.0569 31.6115 61.3017 31.0619 61.7911 30.6527C62.2805 30.2435 62.9384 30.0389 63.7648 30.0389C64.3265 30.0389 64.9563 30.1552 65.6543 30.3879L65.3414 31.2183Z" fill="#5CC1A1"/>
<path d="M79.2386 38.644C78.6368 38.644 78.0952 38.5316 77.6138 38.307C77.1404 38.0823 76.7553 37.7814 76.4585 37.4043C75.8647 36.6341 75.5679 35.7114 75.5679 34.6363C75.5679 33.2883 75.957 32.1851 76.7353 31.3266C77.5135 30.4681 78.5445 30.0389 79.8283 30.0389C80.43 30.0389 80.9676 30.1512 81.441 30.3759C81.9224 30.6005 82.3075 30.9014 82.5963 31.2785C83.1981 32.0487 83.499 32.9714 83.499 34.0466C83.499 35.3945 83.1098 36.4977 82.3316 37.3562C81.5533 38.2147 80.5223 38.644 79.2386 38.644ZM79.7801 30.9415C78.7852 30.9415 78.019 31.2665 77.4814 31.9164C76.9439 32.5662 76.6751 33.4769 76.6751 34.6483C76.6751 35.5068 76.9037 36.241 77.3611 36.8507C77.8264 37.4605 78.4723 37.7654 79.2987 37.7654C80.2936 37.7654 81.0559 37.4405 81.5854 36.7906C82.123 36.1407 82.3917 35.23 82.3917 34.0586C82.3917 33.2001 82.1631 32.466 81.7057 31.8562C81.2484 31.2464 80.6065 30.9415 79.7801 30.9415Z" fill="#5CC1A1"/>
<path d="M93.4254 38.4995V30.1833H94.4604V37.5849H97.9867V38.4995H93.4254Z" fill="#5CC1A1"/>
<path d="M108.349 30.1833V35.8278C108.349 36.4375 108.561 36.931 108.987 37.3081C109.324 37.613 109.809 37.7654 110.443 37.7654C111.317 37.7654 111.927 37.4565 112.272 36.8387C112.449 36.5338 112.537 36.1968 112.537 35.8278V30.1833H113.572V35.8278C113.572 36.6542 113.299 37.3321 112.754 37.8617C112.216 38.3832 111.446 38.644 110.443 38.644C109.44 38.644 108.666 38.3832 108.12 37.8617C107.582 37.3321 107.314 36.6542 107.314 35.8278V30.1833H108.349Z" fill="#5CC1A1"/>
<path d="M122.901 31.098V30.1833H128.702V31.098H126.319V38.4995H125.284V31.098H122.901Z" fill="#5CC1A1"/>
<path d="M138.212 38.4995V30.1833H139.247V38.4995H138.212Z" fill="#5CC1A1"/>
<path d="M152.965 38.644C152.363 38.644 151.822 38.5316 151.34 38.307C150.867 38.0823 150.482 37.7814 150.185 37.4043C149.591 36.6341 149.294 35.7114 149.294 34.6363C149.294 33.2883 149.684 32.1851 150.462 31.3266C151.24 30.4681 152.271 30.0389 153.555 30.0389C154.157 30.0389 154.694 30.1512 155.168 30.3759C155.649 30.6005 156.034 30.9014 156.323 31.2785C156.925 32.0487 157.226 32.9714 157.226 34.0466C157.226 35.3945 156.836 36.4977 156.058 37.3562C155.28 38.2147 154.249 38.644 152.965 38.644ZM153.507 30.9415C152.512 30.9415 151.746 31.2665 151.208 31.9164C150.67 32.5662 150.402 33.4769 150.402 34.6483C150.402 35.5068 150.63 36.241 151.088 36.8507C151.553 37.4605 152.199 37.7654 153.025 37.7654C154.02 37.7654 154.782 37.4405 155.312 36.7906C155.85 36.1407 156.118 35.23 156.118 34.0586C156.118 33.2001 155.89 32.466 155.432 31.8562C154.975 31.2464 154.333 30.9415 153.507 30.9415Z" fill="#5CC1A1"/>
<path d="M173.109 36.6341V30.1833H174.144V38.4995H173.145L168.247 32.0367H168.187V38.4995H167.152V30.1833H168.151L173.049 36.6341H173.109Z" fill="#5CC1A1"/>
<path d="M188.435 31.2183C187.874 31.0258 187.352 30.9295 186.871 30.9295C186.389 30.9295 185.996 31.0538 185.691 31.3026C185.386 31.5513 185.234 31.8522 185.234 32.2052C185.234 32.7107 185.503 33.1078 186.04 33.3967L187.737 34.3354C188.684 34.8649 189.157 35.5469 189.157 36.3814C189.157 37.0714 188.913 37.621 188.423 38.0302C187.934 38.4394 187.244 38.644 186.353 38.644C185.463 38.644 184.664 38.4835 183.958 38.1626L184.259 37.3201C184.917 37.6089 185.563 37.7534 186.197 37.7534C186.839 37.7534 187.312 37.629 187.617 37.3803C187.922 37.1315 188.074 36.8307 188.074 36.4776C188.074 35.9722 187.805 35.575 187.268 35.2862L185.571 34.3474C184.624 33.8179 184.151 33.1359 184.151 32.3015C184.151 31.6115 184.396 31.0619 184.885 30.6527C185.374 30.2435 186.032 30.0389 186.859 30.0389C187.42 30.0389 188.05 30.1552 188.748 30.3879L188.435 31.2183Z" fill="#5CC1A1"/>
<defs>
<linearGradient id="paint0_linear_79_577" x1="3.77868" y1="19.209" x2="28.4429" y2="19.209" gradientUnits="userSpaceOnUse">
<stop offset="0.01" stop-color="#80CC28"/>
<stop offset="1" stop-color="#4285F4"/>
</linearGradient>
<linearGradient id="paint1_linear_79_577" x1="31.7244" y1="26.262" x2="56.0641" y2="26.262" gradientUnits="userSpaceOnUse">
<stop offset="0.01" stop-color="#5CC1A1"/>
<stop offset="1" stop-color="#00ADEF"/>
</linearGradient>
</defs>
</svg>
